%TF.GenerationSoftware,KiCad,Pcbnew,(5.1.6)-1*%
%TF.CreationDate,2020-07-02T16:49:34+08:00*%
%TF.ProjectId,usb-ttl,7573622d-7474-46c2-9e6b-696361645f70,rev?*%
%TF.SameCoordinates,Original*%
%TF.FileFunction,Copper,L2,Bot*%
%TF.FilePolarity,Positive*%
%FSLAX46Y46*%
G04 Gerber Fmt 4.6, Leading zero omitted, Abs format (unit mm)*
G04 Created by KiCad (PCBNEW (5.1.6)-1) date 2020-07-02 16:49:34*
%MOMM*%
%LPD*%
G01*
G04 APERTURE LIST*
%TA.AperFunction,ComponentPad*%
%ADD10O,3.500000X1.900000*%
%TD*%
%TA.AperFunction,ComponentPad*%
%ADD11O,1.700000X1.700000*%
%TD*%
%TA.AperFunction,ComponentPad*%
%ADD12R,1.700000X1.700000*%
%TD*%
%TA.AperFunction,ViaPad*%
%ADD13C,0.700000*%
%TD*%
%TA.AperFunction,Conductor*%
%ADD14C,0.500000*%
%TD*%
%TA.AperFunction,Conductor*%
%ADD15C,0.600000*%
%TD*%
%TA.AperFunction,Conductor*%
%ADD16C,0.254000*%
%TD*%
G04 APERTURE END LIST*
D10*
%TO.P,J1,5*%
%TO.N,GND*%
X103100000Y-97700000D03*
X103100000Y-86300000D03*
%TD*%
D11*
%TO.P,J2,5*%
%TO.N,+5V*%
X123550000Y-97080000D03*
%TO.P,J2,4*%
%TO.N,/TXD*%
X123550000Y-94540000D03*
%TO.P,J2,3*%
%TO.N,/RXD*%
X123550000Y-92000000D03*
%TO.P,J2,2*%
%TO.N,GND*%
X123550000Y-89460000D03*
D12*
%TO.P,J2,1*%
%TO.N,/RTS*%
X123550000Y-86920000D03*
%TD*%
D13*
%TO.N,+5V*%
X112800000Y-92900000D03*
X116750000Y-87300000D03*
%TO.N,/RTS*%
X111500000Y-93900000D03*
%TD*%
D14*
%TO.N,+5V*%
X116750000Y-91500000D02*
X116750000Y-87300000D01*
X112800000Y-92900000D02*
X115350000Y-92900000D01*
X115350000Y-92900000D02*
X116750000Y-91500000D01*
D15*
%TO.N,/RTS*%
X115900000Y-93950000D02*
X123550000Y-86920000D01*
X111500000Y-93900000D02*
X115900000Y-93950000D01*
%TD*%
D16*
%TO.N,GND*%
G36*
X124616870Y-84383130D02*
G01*
X124648001Y-84421063D01*
X124648001Y-85946362D01*
X124631431Y-85915363D01*
X124596816Y-85873184D01*
X124554637Y-85838569D01*
X124506516Y-85812847D01*
X124454301Y-85797008D01*
X124400000Y-85791660D01*
X122700000Y-85791660D01*
X122645699Y-85797008D01*
X122593484Y-85812847D01*
X122545363Y-85838569D01*
X122503184Y-85873184D01*
X122468569Y-85915363D01*
X122442847Y-85963484D01*
X122427008Y-86015699D01*
X122421660Y-86070000D01*
X122421660Y-87173261D01*
X115677930Y-93370440D01*
X115589697Y-93369437D01*
X115644202Y-93340304D01*
X115724448Y-93274448D01*
X115740955Y-93254334D01*
X117104339Y-91890951D01*
X117124448Y-91874448D01*
X117190304Y-91794202D01*
X117239239Y-91702650D01*
X117269374Y-91603310D01*
X117277000Y-91525881D01*
X117277000Y-91525880D01*
X117279549Y-91500000D01*
X117277000Y-91474119D01*
X117277000Y-87639859D01*
X117305640Y-87596996D01*
X117352905Y-87482889D01*
X117377000Y-87361754D01*
X117377000Y-87238246D01*
X117352905Y-87117111D01*
X117305640Y-87003004D01*
X117237023Y-86900311D01*
X117149689Y-86812977D01*
X117046996Y-86744360D01*
X116932889Y-86697095D01*
X116811754Y-86673000D01*
X116688246Y-86673000D01*
X116567111Y-86697095D01*
X116453004Y-86744360D01*
X116350311Y-86812977D01*
X116262977Y-86900311D01*
X116194360Y-87003004D01*
X116147095Y-87117111D01*
X116123000Y-87238246D01*
X116123000Y-87361754D01*
X116147095Y-87482889D01*
X116194360Y-87596996D01*
X116223001Y-87639860D01*
X116223000Y-91281710D01*
X115131711Y-92373000D01*
X113139859Y-92373000D01*
X113096996Y-92344360D01*
X112982889Y-92297095D01*
X112861754Y-92273000D01*
X112738246Y-92273000D01*
X112617111Y-92297095D01*
X112503004Y-92344360D01*
X112400311Y-92412977D01*
X112312977Y-92500311D01*
X112244360Y-92603004D01*
X112197095Y-92717111D01*
X112173000Y-92838246D01*
X112173000Y-92961754D01*
X112197095Y-93082889D01*
X112244360Y-93196996D01*
X112312977Y-93299689D01*
X112345864Y-93332576D01*
X111752261Y-93325830D01*
X111682889Y-93297095D01*
X111561754Y-93273000D01*
X111438246Y-93273000D01*
X111317111Y-93297095D01*
X111203004Y-93344360D01*
X111100311Y-93412977D01*
X111012977Y-93500311D01*
X110944360Y-93603004D01*
X110897095Y-93717111D01*
X110873000Y-93838246D01*
X110873000Y-93961754D01*
X110897095Y-94082889D01*
X110944360Y-94196996D01*
X111012977Y-94299689D01*
X111100311Y-94387023D01*
X111203004Y-94455640D01*
X111317111Y-94502905D01*
X111438246Y-94527000D01*
X111561754Y-94527000D01*
X111682889Y-94502905D01*
X111738790Y-94479750D01*
X115856177Y-94526539D01*
X115875535Y-94529274D01*
X115912866Y-94527183D01*
X115921777Y-94527284D01*
X115941137Y-94525599D01*
X115989015Y-94522917D01*
X115997709Y-94520676D01*
X116006643Y-94519898D01*
X116052641Y-94506514D01*
X116099076Y-94494542D01*
X116107164Y-94490648D01*
X116115774Y-94488143D01*
X116158304Y-94466029D01*
X116201484Y-94445241D01*
X116208648Y-94439851D01*
X116216616Y-94435708D01*
X116254034Y-94405704D01*
X116269556Y-94394026D01*
X116276116Y-94387998D01*
X116305288Y-94364606D01*
X116317862Y-94349635D01*
X122139992Y-88999365D01*
X122108524Y-89103110D01*
X122229845Y-89333000D01*
X123423000Y-89333000D01*
X123423000Y-89313000D01*
X123677000Y-89313000D01*
X123677000Y-89333000D01*
X123697000Y-89333000D01*
X123697000Y-89587000D01*
X123677000Y-89587000D01*
X123677000Y-89607000D01*
X123423000Y-89607000D01*
X123423000Y-89587000D01*
X122229845Y-89587000D01*
X122108524Y-89816890D01*
X122153175Y-89964099D01*
X122278359Y-90226920D01*
X122452412Y-90460269D01*
X122668645Y-90655178D01*
X122918748Y-90804157D01*
X123193109Y-90901481D01*
X123422998Y-90780815D01*
X123422998Y-90876183D01*
X123221266Y-90916310D01*
X123016165Y-91001266D01*
X122831579Y-91124602D01*
X122674602Y-91281579D01*
X122551266Y-91466165D01*
X122466310Y-91671266D01*
X122423000Y-91889000D01*
X122423000Y-92111000D01*
X122466310Y-92328734D01*
X122551266Y-92533835D01*
X122674602Y-92718421D01*
X122831579Y-92875398D01*
X123016165Y-92998734D01*
X123221266Y-93083690D01*
X123439000Y-93127000D01*
X123661000Y-93127000D01*
X123878734Y-93083690D01*
X124083835Y-92998734D01*
X124268421Y-92875398D01*
X124425398Y-92718421D01*
X124548734Y-92533835D01*
X124633690Y-92328734D01*
X124648000Y-92256790D01*
X124648000Y-94283209D01*
X124633690Y-94211266D01*
X124548734Y-94006165D01*
X124425398Y-93821579D01*
X124268421Y-93664602D01*
X124083835Y-93541266D01*
X123878734Y-93456310D01*
X123661000Y-93413000D01*
X123439000Y-93413000D01*
X123221266Y-93456310D01*
X123016165Y-93541266D01*
X122831579Y-93664602D01*
X122674602Y-93821579D01*
X122551266Y-94006165D01*
X122466310Y-94211266D01*
X122423000Y-94429000D01*
X122423000Y-94651000D01*
X122466310Y-94868734D01*
X122551266Y-95073835D01*
X122674602Y-95258421D01*
X122831579Y-95415398D01*
X123016165Y-95538734D01*
X123221266Y-95623690D01*
X123439000Y-95667000D01*
X123661000Y-95667000D01*
X123878734Y-95623690D01*
X124083835Y-95538734D01*
X124268421Y-95415398D01*
X124425398Y-95258421D01*
X124548734Y-95073835D01*
X124633690Y-94868734D01*
X124648000Y-94796791D01*
X124648000Y-96823208D01*
X124633690Y-96751266D01*
X124548734Y-96546165D01*
X124425398Y-96361579D01*
X124268421Y-96204602D01*
X124083835Y-96081266D01*
X123878734Y-95996310D01*
X123661000Y-95953000D01*
X123439000Y-95953000D01*
X123221266Y-95996310D01*
X123016165Y-96081266D01*
X122831579Y-96204602D01*
X122674602Y-96361579D01*
X122551266Y-96546165D01*
X122466310Y-96751266D01*
X122423000Y-96969000D01*
X122423000Y-97191000D01*
X122466310Y-97408734D01*
X122551266Y-97613835D01*
X122674602Y-97798421D01*
X122831579Y-97955398D01*
X123016165Y-98078734D01*
X123221266Y-98163690D01*
X123439000Y-98207000D01*
X123661000Y-98207000D01*
X123878734Y-98163690D01*
X124083835Y-98078734D01*
X124268421Y-97955398D01*
X124425398Y-97798421D01*
X124548734Y-97613835D01*
X124633690Y-97408734D01*
X124648000Y-97336792D01*
X124648000Y-99578938D01*
X124616870Y-99616870D01*
X124578938Y-99648000D01*
X100421062Y-99648000D01*
X100383130Y-99616870D01*
X100352000Y-99578938D01*
X100352000Y-98072588D01*
X100759414Y-98072588D01*
X100787051Y-98189221D01*
X100911564Y-98474983D01*
X101089434Y-98730962D01*
X101313825Y-98947322D01*
X101576114Y-99115748D01*
X101866222Y-99229768D01*
X102173000Y-99285000D01*
X102973000Y-99285000D01*
X102973000Y-97827000D01*
X103227000Y-97827000D01*
X103227000Y-99285000D01*
X104027000Y-99285000D01*
X104333778Y-99229768D01*
X104623886Y-99115748D01*
X104886175Y-98947322D01*
X105110566Y-98730962D01*
X105288436Y-98474983D01*
X105412949Y-98189221D01*
X105440586Y-98072588D01*
X105320584Y-97827000D01*
X103227000Y-97827000D01*
X102973000Y-97827000D01*
X100879416Y-97827000D01*
X100759414Y-98072588D01*
X100352000Y-98072588D01*
X100352000Y-97327412D01*
X100759414Y-97327412D01*
X100879416Y-97573000D01*
X102973000Y-97573000D01*
X102973000Y-96115000D01*
X103227000Y-96115000D01*
X103227000Y-97573000D01*
X105320584Y-97573000D01*
X105440586Y-97327412D01*
X105412949Y-97210779D01*
X105288436Y-96925017D01*
X105110566Y-96669038D01*
X104886175Y-96452678D01*
X104623886Y-96284252D01*
X104333778Y-96170232D01*
X104027000Y-96115000D01*
X103227000Y-96115000D01*
X102973000Y-96115000D01*
X102173000Y-96115000D01*
X101866222Y-96170232D01*
X101576114Y-96284252D01*
X101313825Y-96452678D01*
X101089434Y-96669038D01*
X100911564Y-96925017D01*
X100787051Y-97210779D01*
X100759414Y-97327412D01*
X100352000Y-97327412D01*
X100352000Y-94218548D01*
X102273000Y-94218548D01*
X102273000Y-94381452D01*
X102304782Y-94541227D01*
X102367123Y-94691731D01*
X102457628Y-94827181D01*
X102572819Y-94942372D01*
X102708269Y-95032877D01*
X102858773Y-95095218D01*
X103018548Y-95127000D01*
X103181452Y-95127000D01*
X103341227Y-95095218D01*
X103491731Y-95032877D01*
X103627181Y-94942372D01*
X103742372Y-94827181D01*
X103832877Y-94691731D01*
X103895218Y-94541227D01*
X103927000Y-94381452D01*
X103927000Y-94218548D01*
X103895218Y-94058773D01*
X103832877Y-93908269D01*
X103742372Y-93772819D01*
X103627181Y-93657628D01*
X103491731Y-93567123D01*
X103341227Y-93504782D01*
X103181452Y-93473000D01*
X103018548Y-93473000D01*
X102858773Y-93504782D01*
X102708269Y-93567123D01*
X102572819Y-93657628D01*
X102457628Y-93772819D01*
X102367123Y-93908269D01*
X102304782Y-94058773D01*
X102273000Y-94218548D01*
X100352000Y-94218548D01*
X100352000Y-89618548D01*
X102273000Y-89618548D01*
X102273000Y-89781452D01*
X102304782Y-89941227D01*
X102367123Y-90091731D01*
X102457628Y-90227181D01*
X102572819Y-90342372D01*
X102708269Y-90432877D01*
X102858773Y-90495218D01*
X103018548Y-90527000D01*
X103181452Y-90527000D01*
X103341227Y-90495218D01*
X103491731Y-90432877D01*
X103627181Y-90342372D01*
X103742372Y-90227181D01*
X103832877Y-90091731D01*
X103895218Y-89941227D01*
X103927000Y-89781452D01*
X103927000Y-89618548D01*
X103895218Y-89458773D01*
X103832877Y-89308269D01*
X103742372Y-89172819D01*
X103627181Y-89057628D01*
X103491731Y-88967123D01*
X103341227Y-88904782D01*
X103181452Y-88873000D01*
X103018548Y-88873000D01*
X102858773Y-88904782D01*
X102708269Y-88967123D01*
X102572819Y-89057628D01*
X102457628Y-89172819D01*
X102367123Y-89308269D01*
X102304782Y-89458773D01*
X102273000Y-89618548D01*
X100352000Y-89618548D01*
X100352000Y-86672588D01*
X100759414Y-86672588D01*
X100787051Y-86789221D01*
X100911564Y-87074983D01*
X101089434Y-87330962D01*
X101313825Y-87547322D01*
X101576114Y-87715748D01*
X101866222Y-87829768D01*
X102173000Y-87885000D01*
X102973000Y-87885000D01*
X102973000Y-86427000D01*
X103227000Y-86427000D01*
X103227000Y-87885000D01*
X104027000Y-87885000D01*
X104333778Y-87829768D01*
X104623886Y-87715748D01*
X104886175Y-87547322D01*
X105110566Y-87330962D01*
X105288436Y-87074983D01*
X105412949Y-86789221D01*
X105440586Y-86672588D01*
X105320584Y-86427000D01*
X103227000Y-86427000D01*
X102973000Y-86427000D01*
X100879416Y-86427000D01*
X100759414Y-86672588D01*
X100352000Y-86672588D01*
X100352000Y-85927412D01*
X100759414Y-85927412D01*
X100879416Y-86173000D01*
X102973000Y-86173000D01*
X102973000Y-84715000D01*
X103227000Y-84715000D01*
X103227000Y-86173000D01*
X105320584Y-86173000D01*
X105440586Y-85927412D01*
X105412949Y-85810779D01*
X105288436Y-85525017D01*
X105110566Y-85269038D01*
X104886175Y-85052678D01*
X104623886Y-84884252D01*
X104333778Y-84770232D01*
X104027000Y-84715000D01*
X103227000Y-84715000D01*
X102973000Y-84715000D01*
X102173000Y-84715000D01*
X101866222Y-84770232D01*
X101576114Y-84884252D01*
X101313825Y-85052678D01*
X101089434Y-85269038D01*
X100911564Y-85525017D01*
X100787051Y-85810779D01*
X100759414Y-85927412D01*
X100352000Y-85927412D01*
X100352000Y-84421062D01*
X100383130Y-84383130D01*
X100421062Y-84352000D01*
X124578938Y-84352000D01*
X124616870Y-84383130D01*
G37*
X124616870Y-84383130D02*
X124648001Y-84421063D01*
X124648001Y-85946362D01*
X124631431Y-85915363D01*
X124596816Y-85873184D01*
X124554637Y-85838569D01*
X124506516Y-85812847D01*
X124454301Y-85797008D01*
X124400000Y-85791660D01*
X122700000Y-85791660D01*
X122645699Y-85797008D01*
X122593484Y-85812847D01*
X122545363Y-85838569D01*
X122503184Y-85873184D01*
X122468569Y-85915363D01*
X122442847Y-85963484D01*
X122427008Y-86015699D01*
X122421660Y-86070000D01*
X122421660Y-87173261D01*
X115677930Y-93370440D01*
X115589697Y-93369437D01*
X115644202Y-93340304D01*
X115724448Y-93274448D01*
X115740955Y-93254334D01*
X117104339Y-91890951D01*
X117124448Y-91874448D01*
X117190304Y-91794202D01*
X117239239Y-91702650D01*
X117269374Y-91603310D01*
X117277000Y-91525881D01*
X117277000Y-91525880D01*
X117279549Y-91500000D01*
X117277000Y-91474119D01*
X117277000Y-87639859D01*
X117305640Y-87596996D01*
X117352905Y-87482889D01*
X117377000Y-87361754D01*
X117377000Y-87238246D01*
X117352905Y-87117111D01*
X117305640Y-87003004D01*
X117237023Y-86900311D01*
X117149689Y-86812977D01*
X117046996Y-86744360D01*
X116932889Y-86697095D01*
X116811754Y-86673000D01*
X116688246Y-86673000D01*
X116567111Y-86697095D01*
X116453004Y-86744360D01*
X116350311Y-86812977D01*
X116262977Y-86900311D01*
X116194360Y-87003004D01*
X116147095Y-87117111D01*
X116123000Y-87238246D01*
X116123000Y-87361754D01*
X116147095Y-87482889D01*
X116194360Y-87596996D01*
X116223001Y-87639860D01*
X116223000Y-91281710D01*
X115131711Y-92373000D01*
X113139859Y-92373000D01*
X113096996Y-92344360D01*
X112982889Y-92297095D01*
X112861754Y-92273000D01*
X112738246Y-92273000D01*
X112617111Y-92297095D01*
X112503004Y-92344360D01*
X112400311Y-92412977D01*
X112312977Y-92500311D01*
X112244360Y-92603004D01*
X112197095Y-92717111D01*
X112173000Y-92838246D01*
X112173000Y-92961754D01*
X112197095Y-93082889D01*
X112244360Y-93196996D01*
X112312977Y-93299689D01*
X112345864Y-93332576D01*
X111752261Y-93325830D01*
X111682889Y-93297095D01*
X111561754Y-93273000D01*
X111438246Y-93273000D01*
X111317111Y-93297095D01*
X111203004Y-93344360D01*
X111100311Y-93412977D01*
X111012977Y-93500311D01*
X110944360Y-93603004D01*
X110897095Y-93717111D01*
X110873000Y-93838246D01*
X110873000Y-93961754D01*
X110897095Y-94082889D01*
X110944360Y-94196996D01*
X111012977Y-94299689D01*
X111100311Y-94387023D01*
X111203004Y-94455640D01*
X111317111Y-94502905D01*
X111438246Y-94527000D01*
X111561754Y-94527000D01*
X111682889Y-94502905D01*
X111738790Y-94479750D01*
X115856177Y-94526539D01*
X115875535Y-94529274D01*
X115912866Y-94527183D01*
X115921777Y-94527284D01*
X115941137Y-94525599D01*
X115989015Y-94522917D01*
X115997709Y-94520676D01*
X116006643Y-94519898D01*
X116052641Y-94506514D01*
X116099076Y-94494542D01*
X116107164Y-94490648D01*
X116115774Y-94488143D01*
X116158304Y-94466029D01*
X116201484Y-94445241D01*
X116208648Y-94439851D01*
X116216616Y-94435708D01*
X116254034Y-94405704D01*
X116269556Y-94394026D01*
X116276116Y-94387998D01*
X116305288Y-94364606D01*
X116317862Y-94349635D01*
X122139992Y-88999365D01*
X122108524Y-89103110D01*
X122229845Y-89333000D01*
X123423000Y-89333000D01*
X123423000Y-89313000D01*
X123677000Y-89313000D01*
X123677000Y-89333000D01*
X123697000Y-89333000D01*
X123697000Y-89587000D01*
X123677000Y-89587000D01*
X123677000Y-89607000D01*
X123423000Y-89607000D01*
X123423000Y-89587000D01*
X122229845Y-89587000D01*
X122108524Y-89816890D01*
X122153175Y-89964099D01*
X122278359Y-90226920D01*
X122452412Y-90460269D01*
X122668645Y-90655178D01*
X122918748Y-90804157D01*
X123193109Y-90901481D01*
X123422998Y-90780815D01*
X123422998Y-90876183D01*
X123221266Y-90916310D01*
X123016165Y-91001266D01*
X122831579Y-91124602D01*
X122674602Y-91281579D01*
X122551266Y-91466165D01*
X122466310Y-91671266D01*
X122423000Y-91889000D01*
X122423000Y-92111000D01*
X122466310Y-92328734D01*
X122551266Y-92533835D01*
X122674602Y-92718421D01*
X122831579Y-92875398D01*
X123016165Y-92998734D01*
X123221266Y-93083690D01*
X123439000Y-93127000D01*
X123661000Y-93127000D01*
X123878734Y-93083690D01*
X124083835Y-92998734D01*
X124268421Y-92875398D01*
X124425398Y-92718421D01*
X124548734Y-92533835D01*
X124633690Y-92328734D01*
X124648000Y-92256790D01*
X124648000Y-94283209D01*
X124633690Y-94211266D01*
X124548734Y-94006165D01*
X124425398Y-93821579D01*
X124268421Y-93664602D01*
X124083835Y-93541266D01*
X123878734Y-93456310D01*
X123661000Y-93413000D01*
X123439000Y-93413000D01*
X123221266Y-93456310D01*
X123016165Y-93541266D01*
X122831579Y-93664602D01*
X122674602Y-93821579D01*
X122551266Y-94006165D01*
X122466310Y-94211266D01*
X122423000Y-94429000D01*
X122423000Y-94651000D01*
X122466310Y-94868734D01*
X122551266Y-95073835D01*
X122674602Y-95258421D01*
X122831579Y-95415398D01*
X123016165Y-95538734D01*
X123221266Y-95623690D01*
X123439000Y-95667000D01*
X123661000Y-95667000D01*
X123878734Y-95623690D01*
X124083835Y-95538734D01*
X124268421Y-95415398D01*
X124425398Y-95258421D01*
X124548734Y-95073835D01*
X124633690Y-94868734D01*
X124648000Y-94796791D01*
X124648000Y-96823208D01*
X124633690Y-96751266D01*
X124548734Y-96546165D01*
X124425398Y-96361579D01*
X124268421Y-96204602D01*
X124083835Y-96081266D01*
X123878734Y-95996310D01*
X123661000Y-95953000D01*
X123439000Y-95953000D01*
X123221266Y-95996310D01*
X123016165Y-96081266D01*
X122831579Y-96204602D01*
X122674602Y-96361579D01*
X122551266Y-96546165D01*
X122466310Y-96751266D01*
X122423000Y-96969000D01*
X122423000Y-97191000D01*
X122466310Y-97408734D01*
X122551266Y-97613835D01*
X122674602Y-97798421D01*
X122831579Y-97955398D01*
X123016165Y-98078734D01*
X123221266Y-98163690D01*
X123439000Y-98207000D01*
X123661000Y-98207000D01*
X123878734Y-98163690D01*
X124083835Y-98078734D01*
X124268421Y-97955398D01*
X124425398Y-97798421D01*
X124548734Y-97613835D01*
X124633690Y-97408734D01*
X124648000Y-97336792D01*
X124648000Y-99578938D01*
X124616870Y-99616870D01*
X124578938Y-99648000D01*
X100421062Y-99648000D01*
X100383130Y-99616870D01*
X100352000Y-99578938D01*
X100352000Y-98072588D01*
X100759414Y-98072588D01*
X100787051Y-98189221D01*
X100911564Y-98474983D01*
X101089434Y-98730962D01*
X101313825Y-98947322D01*
X101576114Y-99115748D01*
X101866222Y-99229768D01*
X102173000Y-99285000D01*
X102973000Y-99285000D01*
X102973000Y-97827000D01*
X103227000Y-97827000D01*
X103227000Y-99285000D01*
X104027000Y-99285000D01*
X104333778Y-99229768D01*
X104623886Y-99115748D01*
X104886175Y-98947322D01*
X105110566Y-98730962D01*
X105288436Y-98474983D01*
X105412949Y-98189221D01*
X105440586Y-98072588D01*
X105320584Y-97827000D01*
X103227000Y-97827000D01*
X102973000Y-97827000D01*
X100879416Y-97827000D01*
X100759414Y-98072588D01*
X100352000Y-98072588D01*
X100352000Y-97327412D01*
X100759414Y-97327412D01*
X100879416Y-97573000D01*
X102973000Y-97573000D01*
X102973000Y-96115000D01*
X103227000Y-96115000D01*
X103227000Y-97573000D01*
X105320584Y-97573000D01*
X105440586Y-97327412D01*
X105412949Y-97210779D01*
X105288436Y-96925017D01*
X105110566Y-96669038D01*
X104886175Y-96452678D01*
X104623886Y-96284252D01*
X104333778Y-96170232D01*
X104027000Y-96115000D01*
X103227000Y-96115000D01*
X102973000Y-96115000D01*
X102173000Y-96115000D01*
X101866222Y-96170232D01*
X101576114Y-96284252D01*
X101313825Y-96452678D01*
X101089434Y-96669038D01*
X100911564Y-96925017D01*
X100787051Y-97210779D01*
X100759414Y-97327412D01*
X100352000Y-97327412D01*
X100352000Y-94218548D01*
X102273000Y-94218548D01*
X102273000Y-94381452D01*
X102304782Y-94541227D01*
X102367123Y-94691731D01*
X102457628Y-94827181D01*
X102572819Y-94942372D01*
X102708269Y-95032877D01*
X102858773Y-95095218D01*
X103018548Y-95127000D01*
X103181452Y-95127000D01*
X103341227Y-95095218D01*
X103491731Y-95032877D01*
X103627181Y-94942372D01*
X103742372Y-94827181D01*
X103832877Y-94691731D01*
X103895218Y-94541227D01*
X103927000Y-94381452D01*
X103927000Y-94218548D01*
X103895218Y-94058773D01*
X103832877Y-93908269D01*
X103742372Y-93772819D01*
X103627181Y-93657628D01*
X103491731Y-93567123D01*
X103341227Y-93504782D01*
X103181452Y-93473000D01*
X103018548Y-93473000D01*
X102858773Y-93504782D01*
X102708269Y-93567123D01*
X102572819Y-93657628D01*
X102457628Y-93772819D01*
X102367123Y-93908269D01*
X102304782Y-94058773D01*
X102273000Y-94218548D01*
X100352000Y-94218548D01*
X100352000Y-89618548D01*
X102273000Y-89618548D01*
X102273000Y-89781452D01*
X102304782Y-89941227D01*
X102367123Y-90091731D01*
X102457628Y-90227181D01*
X102572819Y-90342372D01*
X102708269Y-90432877D01*
X102858773Y-90495218D01*
X103018548Y-90527000D01*
X103181452Y-90527000D01*
X103341227Y-90495218D01*
X103491731Y-90432877D01*
X103627181Y-90342372D01*
X103742372Y-90227181D01*
X103832877Y-90091731D01*
X103895218Y-89941227D01*
X103927000Y-89781452D01*
X103927000Y-89618548D01*
X103895218Y-89458773D01*
X103832877Y-89308269D01*
X103742372Y-89172819D01*
X103627181Y-89057628D01*
X103491731Y-88967123D01*
X103341227Y-88904782D01*
X103181452Y-88873000D01*
X103018548Y-88873000D01*
X102858773Y-88904782D01*
X102708269Y-88967123D01*
X102572819Y-89057628D01*
X102457628Y-89172819D01*
X102367123Y-89308269D01*
X102304782Y-89458773D01*
X102273000Y-89618548D01*
X100352000Y-89618548D01*
X100352000Y-86672588D01*
X100759414Y-86672588D01*
X100787051Y-86789221D01*
X100911564Y-87074983D01*
X101089434Y-87330962D01*
X101313825Y-87547322D01*
X101576114Y-87715748D01*
X101866222Y-87829768D01*
X102173000Y-87885000D01*
X102973000Y-87885000D01*
X102973000Y-86427000D01*
X103227000Y-86427000D01*
X103227000Y-87885000D01*
X104027000Y-87885000D01*
X104333778Y-87829768D01*
X104623886Y-87715748D01*
X104886175Y-87547322D01*
X105110566Y-87330962D01*
X105288436Y-87074983D01*
X105412949Y-86789221D01*
X105440586Y-86672588D01*
X105320584Y-86427000D01*
X103227000Y-86427000D01*
X102973000Y-86427000D01*
X100879416Y-86427000D01*
X100759414Y-86672588D01*
X100352000Y-86672588D01*
X100352000Y-85927412D01*
X100759414Y-85927412D01*
X100879416Y-86173000D01*
X102973000Y-86173000D01*
X102973000Y-84715000D01*
X103227000Y-84715000D01*
X103227000Y-86173000D01*
X105320584Y-86173000D01*
X105440586Y-85927412D01*
X105412949Y-85810779D01*
X105288436Y-85525017D01*
X105110566Y-85269038D01*
X104886175Y-85052678D01*
X104623886Y-84884252D01*
X104333778Y-84770232D01*
X104027000Y-84715000D01*
X103227000Y-84715000D01*
X102973000Y-84715000D01*
X102173000Y-84715000D01*
X101866222Y-84770232D01*
X101576114Y-84884252D01*
X101313825Y-85052678D01*
X101089434Y-85269038D01*
X100911564Y-85525017D01*
X100787051Y-85810779D01*
X100759414Y-85927412D01*
X100352000Y-85927412D01*
X100352000Y-84421062D01*
X100383130Y-84383130D01*
X100421062Y-84352000D01*
X124578938Y-84352000D01*
X124616870Y-84383130D01*
%TD*%
M02*
