%TF.GenerationSoftware,KiCad,Pcbnew,(5.1.6)-1*%
%TF.CreationDate,2020-07-02T16:49:34+08:00*%
%TF.ProjectId,usb-ttl,7573622d-7474-46c2-9e6b-696361645f70,rev?*%
%TF.SameCoordinates,Original*%
%TF.FileFunction,Copper,L1,Top*%
%TF.FilePolarity,Positive*%
%FSLAX46Y46*%
G04 Gerber Fmt 4.6, Leading zero omitted, Abs format (unit mm)*
G04 Created by KiCad (PCBNEW (5.1.6)-1) date 2020-07-02 16:49:34*
%MOMM*%
%LPD*%
G01*
G04 APERTURE LIST*
%TA.AperFunction,SMDPad,CuDef*%
%ADD10R,2.500000X1.100000*%
%TD*%
%TA.AperFunction,ComponentPad*%
%ADD11O,3.500000X1.900000*%
%TD*%
%TA.AperFunction,ComponentPad*%
%ADD12O,1.700000X1.700000*%
%TD*%
%TA.AperFunction,ComponentPad*%
%ADD13R,1.700000X1.700000*%
%TD*%
%TA.AperFunction,ViaPad*%
%ADD14C,0.700000*%
%TD*%
%TA.AperFunction,Conductor*%
%ADD15C,0.500000*%
%TD*%
%TA.AperFunction,Conductor*%
%ADD16C,1.000000*%
%TD*%
%TA.AperFunction,Conductor*%
%ADD17C,0.250000*%
%TD*%
%TA.AperFunction,Conductor*%
%ADD18C,0.280000*%
%TD*%
%TA.AperFunction,Conductor*%
%ADD19C,0.254000*%
%TD*%
G04 APERTURE END LIST*
D10*
%TO.P,J1,2*%
%TO.N,/D-*%
X105850000Y-93000000D03*
%TO.P,J1,3*%
%TO.N,/D+*%
X105850000Y-91000000D03*
%TO.P,J1,1*%
%TO.N,+5V*%
X105850000Y-95500000D03*
%TO.P,J1,4*%
%TO.N,GND*%
X105850000Y-88500000D03*
D11*
%TO.P,J1,5*%
X103100000Y-97700000D03*
X103100000Y-86300000D03*
%TD*%
D12*
%TO.P,J2,5*%
%TO.N,+5V*%
X123550000Y-97080000D03*
%TO.P,J2,4*%
%TO.N,/TXD*%
X123550000Y-94540000D03*
%TO.P,J2,3*%
%TO.N,/RXD*%
X123550000Y-92000000D03*
%TO.P,J2,2*%
%TO.N,GND*%
X123550000Y-89460000D03*
D13*
%TO.P,J2,1*%
%TO.N,/RTS*%
X123550000Y-86920000D03*
%TD*%
%TO.P,U1,8*%
%TO.N,Net-(C2-Pad1)*%
%TA.AperFunction,SMDPad,CuDef*%
G36*
G01*
X110345000Y-90500000D02*
X110045000Y-90500000D01*
G75*
G02*
X109895000Y-90350000I0J150000D01*
G01*
X109895000Y-88700000D01*
G75*
G02*
X110045000Y-88550000I150000J0D01*
G01*
X110345000Y-88550000D01*
G75*
G02*
X110495000Y-88700000I0J-150000D01*
G01*
X110495000Y-90350000D01*
G75*
G02*
X110345000Y-90500000I-150000J0D01*
G01*
G37*
%TD.AperFunction*%
%TO.P,U1,7*%
%TO.N,/RXD*%
%TA.AperFunction,SMDPad,CuDef*%
G36*
G01*
X111615000Y-90500000D02*
X111315000Y-90500000D01*
G75*
G02*
X111165000Y-90350000I0J150000D01*
G01*
X111165000Y-88700000D01*
G75*
G02*
X111315000Y-88550000I150000J0D01*
G01*
X111615000Y-88550000D01*
G75*
G02*
X111765000Y-88700000I0J-150000D01*
G01*
X111765000Y-90350000D01*
G75*
G02*
X111615000Y-90500000I-150000J0D01*
G01*
G37*
%TD.AperFunction*%
%TO.P,U1,6*%
%TO.N,/TXD*%
%TA.AperFunction,SMDPad,CuDef*%
G36*
G01*
X112885000Y-90500000D02*
X112585000Y-90500000D01*
G75*
G02*
X112435000Y-90350000I0J150000D01*
G01*
X112435000Y-88700000D01*
G75*
G02*
X112585000Y-88550000I150000J0D01*
G01*
X112885000Y-88550000D01*
G75*
G02*
X113035000Y-88700000I0J-150000D01*
G01*
X113035000Y-90350000D01*
G75*
G02*
X112885000Y-90500000I-150000J0D01*
G01*
G37*
%TD.AperFunction*%
%TO.P,U1,5*%
%TO.N,+5V*%
%TA.AperFunction,SMDPad,CuDef*%
G36*
G01*
X114155000Y-90500000D02*
X113855000Y-90500000D01*
G75*
G02*
X113705000Y-90350000I0J150000D01*
G01*
X113705000Y-88700000D01*
G75*
G02*
X113855000Y-88550000I150000J0D01*
G01*
X114155000Y-88550000D01*
G75*
G02*
X114305000Y-88700000I0J-150000D01*
G01*
X114305000Y-90350000D01*
G75*
G02*
X114155000Y-90500000I-150000J0D01*
G01*
G37*
%TD.AperFunction*%
%TO.P,U1,4*%
%TO.N,/RTS*%
%TA.AperFunction,SMDPad,CuDef*%
G36*
G01*
X114155000Y-95450000D02*
X113855000Y-95450000D01*
G75*
G02*
X113705000Y-95300000I0J150000D01*
G01*
X113705000Y-93650000D01*
G75*
G02*
X113855000Y-93500000I150000J0D01*
G01*
X114155000Y-93500000D01*
G75*
G02*
X114305000Y-93650000I0J-150000D01*
G01*
X114305000Y-95300000D01*
G75*
G02*
X114155000Y-95450000I-150000J0D01*
G01*
G37*
%TD.AperFunction*%
%TO.P,U1,3*%
%TO.N,GND*%
%TA.AperFunction,SMDPad,CuDef*%
G36*
G01*
X112885000Y-95450000D02*
X112585000Y-95450000D01*
G75*
G02*
X112435000Y-95300000I0J150000D01*
G01*
X112435000Y-93650000D01*
G75*
G02*
X112585000Y-93500000I150000J0D01*
G01*
X112885000Y-93500000D01*
G75*
G02*
X113035000Y-93650000I0J-150000D01*
G01*
X113035000Y-95300000D01*
G75*
G02*
X112885000Y-95450000I-150000J0D01*
G01*
G37*
%TD.AperFunction*%
%TO.P,U1,2*%
%TO.N,/D-*%
%TA.AperFunction,SMDPad,CuDef*%
G36*
G01*
X111615000Y-95450000D02*
X111315000Y-95450000D01*
G75*
G02*
X111165000Y-95300000I0J150000D01*
G01*
X111165000Y-93650000D01*
G75*
G02*
X111315000Y-93500000I150000J0D01*
G01*
X111615000Y-93500000D01*
G75*
G02*
X111765000Y-93650000I0J-150000D01*
G01*
X111765000Y-95300000D01*
G75*
G02*
X111615000Y-95450000I-150000J0D01*
G01*
G37*
%TD.AperFunction*%
%TO.P,U1,1*%
%TO.N,/D+*%
%TA.AperFunction,SMDPad,CuDef*%
G36*
G01*
X110345000Y-95450000D02*
X110045000Y-95450000D01*
G75*
G02*
X109895000Y-95300000I0J150000D01*
G01*
X109895000Y-93650000D01*
G75*
G02*
X110045000Y-93500000I150000J0D01*
G01*
X110345000Y-93500000D01*
G75*
G02*
X110495000Y-93650000I0J-150000D01*
G01*
X110495000Y-95300000D01*
G75*
G02*
X110345000Y-95450000I-150000J0D01*
G01*
G37*
%TD.AperFunction*%
%TD*%
%TO.P,R2,1*%
%TO.N,Net-(D2-Pad2)*%
%TA.AperFunction,SMDPad,CuDef*%
G36*
G01*
X118556250Y-88587500D02*
X118043750Y-88587500D01*
G75*
G02*
X117825000Y-88368750I0J218750D01*
G01*
X117825000Y-87931250D01*
G75*
G02*
X118043750Y-87712500I218750J0D01*
G01*
X118556250Y-87712500D01*
G75*
G02*
X118775000Y-87931250I0J-218750D01*
G01*
X118775000Y-88368750D01*
G75*
G02*
X118556250Y-88587500I-218750J0D01*
G01*
G37*
%TD.AperFunction*%
%TO.P,R2,2*%
%TO.N,+5V*%
%TA.AperFunction,SMDPad,CuDef*%
G36*
G01*
X118556250Y-87012500D02*
X118043750Y-87012500D01*
G75*
G02*
X117825000Y-86793750I0J218750D01*
G01*
X117825000Y-86356250D01*
G75*
G02*
X118043750Y-86137500I218750J0D01*
G01*
X118556250Y-86137500D01*
G75*
G02*
X118775000Y-86356250I0J-218750D01*
G01*
X118775000Y-86793750D01*
G75*
G02*
X118556250Y-87012500I-218750J0D01*
G01*
G37*
%TD.AperFunction*%
%TD*%
%TO.P,R1,1*%
%TO.N,+5V*%
%TA.AperFunction,SMDPad,CuDef*%
G36*
G01*
X118556250Y-97825000D02*
X118043750Y-97825000D01*
G75*
G02*
X117825000Y-97606250I0J218750D01*
G01*
X117825000Y-97168750D01*
G75*
G02*
X118043750Y-96950000I218750J0D01*
G01*
X118556250Y-96950000D01*
G75*
G02*
X118775000Y-97168750I0J-218750D01*
G01*
X118775000Y-97606250D01*
G75*
G02*
X118556250Y-97825000I-218750J0D01*
G01*
G37*
%TD.AperFunction*%
%TO.P,R1,2*%
%TO.N,Net-(D1-Pad1)*%
%TA.AperFunction,SMDPad,CuDef*%
G36*
G01*
X118556250Y-96250000D02*
X118043750Y-96250000D01*
G75*
G02*
X117825000Y-96031250I0J218750D01*
G01*
X117825000Y-95593750D01*
G75*
G02*
X118043750Y-95375000I218750J0D01*
G01*
X118556250Y-95375000D01*
G75*
G02*
X118775000Y-95593750I0J-218750D01*
G01*
X118775000Y-96031250D01*
G75*
G02*
X118556250Y-96250000I-218750J0D01*
G01*
G37*
%TD.AperFunction*%
%TD*%
%TO.P,D2,1*%
%TO.N,/RXD*%
%TA.AperFunction,SMDPad,CuDef*%
G36*
G01*
X118556250Y-91637500D02*
X118043750Y-91637500D01*
G75*
G02*
X117825000Y-91418750I0J218750D01*
G01*
X117825000Y-90981250D01*
G75*
G02*
X118043750Y-90762500I218750J0D01*
G01*
X118556250Y-90762500D01*
G75*
G02*
X118775000Y-90981250I0J-218750D01*
G01*
X118775000Y-91418750D01*
G75*
G02*
X118556250Y-91637500I-218750J0D01*
G01*
G37*
%TD.AperFunction*%
%TO.P,D2,2*%
%TO.N,Net-(D2-Pad2)*%
%TA.AperFunction,SMDPad,CuDef*%
G36*
G01*
X118556250Y-90062500D02*
X118043750Y-90062500D01*
G75*
G02*
X117825000Y-89843750I0J218750D01*
G01*
X117825000Y-89406250D01*
G75*
G02*
X118043750Y-89187500I218750J0D01*
G01*
X118556250Y-89187500D01*
G75*
G02*
X118775000Y-89406250I0J-218750D01*
G01*
X118775000Y-89843750D01*
G75*
G02*
X118556250Y-90062500I-218750J0D01*
G01*
G37*
%TD.AperFunction*%
%TD*%
%TO.P,D1,1*%
%TO.N,Net-(D1-Pad1)*%
%TA.AperFunction,SMDPad,CuDef*%
G36*
G01*
X118556250Y-94737500D02*
X118043750Y-94737500D01*
G75*
G02*
X117825000Y-94518750I0J218750D01*
G01*
X117825000Y-94081250D01*
G75*
G02*
X118043750Y-93862500I218750J0D01*
G01*
X118556250Y-93862500D01*
G75*
G02*
X118775000Y-94081250I0J-218750D01*
G01*
X118775000Y-94518750D01*
G75*
G02*
X118556250Y-94737500I-218750J0D01*
G01*
G37*
%TD.AperFunction*%
%TO.P,D1,2*%
%TO.N,/TXD*%
%TA.AperFunction,SMDPad,CuDef*%
G36*
G01*
X118556250Y-93162500D02*
X118043750Y-93162500D01*
G75*
G02*
X117825000Y-92943750I0J218750D01*
G01*
X117825000Y-92506250D01*
G75*
G02*
X118043750Y-92287500I218750J0D01*
G01*
X118556250Y-92287500D01*
G75*
G02*
X118775000Y-92506250I0J-218750D01*
G01*
X118775000Y-92943750D01*
G75*
G02*
X118556250Y-93162500I-218750J0D01*
G01*
G37*
%TD.AperFunction*%
%TD*%
%TO.P,C2,1*%
%TO.N,Net-(C2-Pad1)*%
%TA.AperFunction,SMDPad,CuDef*%
G36*
G01*
X113087500Y-88506250D02*
X113087500Y-87993750D01*
G75*
G02*
X113306250Y-87775000I218750J0D01*
G01*
X113743750Y-87775000D01*
G75*
G02*
X113962500Y-87993750I0J-218750D01*
G01*
X113962500Y-88506250D01*
G75*
G02*
X113743750Y-88725000I-218750J0D01*
G01*
X113306250Y-88725000D01*
G75*
G02*
X113087500Y-88506250I0J218750D01*
G01*
G37*
%TD.AperFunction*%
%TO.P,C2,2*%
%TO.N,GND*%
%TA.AperFunction,SMDPad,CuDef*%
G36*
G01*
X114662500Y-88506250D02*
X114662500Y-87993750D01*
G75*
G02*
X114881250Y-87775000I218750J0D01*
G01*
X115318750Y-87775000D01*
G75*
G02*
X115537500Y-87993750I0J-218750D01*
G01*
X115537500Y-88506250D01*
G75*
G02*
X115318750Y-88725000I-218750J0D01*
G01*
X114881250Y-88725000D01*
G75*
G02*
X114662500Y-88506250I0J218750D01*
G01*
G37*
%TD.AperFunction*%
%TD*%
%TO.P,C1,1*%
%TO.N,+5V*%
%TA.AperFunction,SMDPad,CuDef*%
G36*
G01*
X113087500Y-95956250D02*
X113087500Y-95443750D01*
G75*
G02*
X113306250Y-95225000I218750J0D01*
G01*
X113743750Y-95225000D01*
G75*
G02*
X113962500Y-95443750I0J-218750D01*
G01*
X113962500Y-95956250D01*
G75*
G02*
X113743750Y-96175000I-218750J0D01*
G01*
X113306250Y-96175000D01*
G75*
G02*
X113087500Y-95956250I0J218750D01*
G01*
G37*
%TD.AperFunction*%
%TO.P,C1,2*%
%TO.N,GND*%
%TA.AperFunction,SMDPad,CuDef*%
G36*
G01*
X114662500Y-95956250D02*
X114662500Y-95443750D01*
G75*
G02*
X114881250Y-95225000I218750J0D01*
G01*
X115318750Y-95225000D01*
G75*
G02*
X115537500Y-95443750I0J-218750D01*
G01*
X115537500Y-95956250D01*
G75*
G02*
X115318750Y-96175000I-218750J0D01*
G01*
X114881250Y-96175000D01*
G75*
G02*
X114662500Y-95956250I0J218750D01*
G01*
G37*
%TD.AperFunction*%
%TD*%
D14*
%TO.N,+5V*%
X112800000Y-92900000D03*
X116750000Y-87300000D03*
%TO.N,/RTS*%
X111500000Y-93900000D03*
%TD*%
D15*
%TO.N,GND*%
X115100000Y-95700000D02*
X115250000Y-95700000D01*
D16*
%TO.N,+5V*%
X106000000Y-95550000D02*
X106450000Y-95550000D01*
X106450000Y-95550000D02*
X108337500Y-97437500D01*
X123392500Y-97437500D02*
X123700000Y-97130000D01*
X118450000Y-97437500D02*
X123392500Y-97437500D01*
X113637500Y-97437500D02*
X113637500Y-96262500D01*
X113637500Y-97437500D02*
X118450000Y-97437500D01*
X108337500Y-97437500D02*
X113637500Y-97437500D01*
X113675000Y-96225000D02*
X113675000Y-95750000D01*
X113637500Y-96262500D02*
X113675000Y-96225000D01*
D15*
X113675000Y-94375000D02*
X113675000Y-95750000D01*
X114095000Y-93955000D02*
X113675000Y-94375000D01*
X114725000Y-93955000D02*
X114095000Y-93955000D01*
X118425000Y-86600000D02*
X118450000Y-86625000D01*
X114575000Y-93905000D02*
X113455000Y-93905000D01*
X113455000Y-93905000D02*
X112800000Y-93250000D01*
X112800000Y-93250000D02*
X112800000Y-92900000D01*
X118300000Y-86575000D02*
X117225000Y-86575000D01*
X117225000Y-86575000D02*
X116750000Y-87050000D01*
X116750000Y-87050000D02*
X116750000Y-87300000D01*
%TO.N,/TXD*%
X118210000Y-92635000D02*
X118300000Y-92725000D01*
X114575000Y-92635000D02*
X118210000Y-92635000D01*
X118300000Y-92725000D02*
X120575000Y-92725000D01*
X122390000Y-94540000D02*
X123550000Y-94540000D01*
X120575000Y-92725000D02*
X122390000Y-94540000D01*
%TO.N,Net-(D2-Pad2)*%
X118300000Y-89625000D02*
X118300000Y-88150000D01*
D17*
%TO.N,/RXD*%
X114740000Y-91200000D02*
X114575000Y-91365000D01*
D15*
X118135000Y-91365000D02*
X118300000Y-91200000D01*
X114575000Y-91365000D02*
X118135000Y-91365000D01*
D18*
%TO.N,/D+*%
X106634000Y-91784000D02*
X105850000Y-91000000D01*
X107310528Y-91784000D02*
X106634000Y-91784000D01*
X108580528Y-90514000D02*
X107310528Y-91784000D01*
X109206000Y-90514000D02*
X108580528Y-90514000D01*
X109625000Y-90095000D02*
X109206000Y-90514000D01*
%TO.N,/D-*%
X106634000Y-92216000D02*
X105850000Y-93000000D01*
X107489472Y-92216000D02*
X106634000Y-92216000D01*
X109625000Y-91365000D02*
X109206000Y-90946000D01*
X108759472Y-90946000D02*
X107489472Y-92216000D01*
X109206000Y-90946000D02*
X108759472Y-90946000D01*
D15*
%TO.N,/RTS*%
X109625000Y-93905000D02*
X111495000Y-93905000D01*
X111495000Y-93905000D02*
X111500000Y-93900000D01*
%TO.N,Net-(D1-Pad1)*%
X118300000Y-95812500D02*
X118300000Y-94300000D01*
%TD*%
D19*
%TO.N,GND*%
G36*
X124616870Y-84383130D02*
G01*
X124648001Y-84421063D01*
X124648001Y-85946362D01*
X124631431Y-85915363D01*
X124596816Y-85873184D01*
X124554637Y-85838569D01*
X124506516Y-85812847D01*
X124454301Y-85797008D01*
X124400000Y-85791660D01*
X122700000Y-85791660D01*
X122645699Y-85797008D01*
X122593484Y-85812847D01*
X122545363Y-85838569D01*
X122503184Y-85873184D01*
X122468569Y-85915363D01*
X122442847Y-85963484D01*
X122427008Y-86015699D01*
X122421660Y-86070000D01*
X122421660Y-87770000D01*
X122427008Y-87824301D01*
X122442847Y-87876516D01*
X122468569Y-87924637D01*
X122503184Y-87966816D01*
X122545363Y-88001431D01*
X122593484Y-88027153D01*
X122645699Y-88042992D01*
X122700000Y-88048340D01*
X123109042Y-88048340D01*
X122918748Y-88115843D01*
X122668645Y-88264822D01*
X122452412Y-88459731D01*
X122278359Y-88693080D01*
X122153175Y-88955901D01*
X122108524Y-89103110D01*
X122229845Y-89333000D01*
X123423000Y-89333000D01*
X123423000Y-89313000D01*
X123677000Y-89313000D01*
X123677000Y-89333000D01*
X123697000Y-89333000D01*
X123697000Y-89587000D01*
X123677000Y-89587000D01*
X123677000Y-89607000D01*
X123423000Y-89607000D01*
X123423000Y-89587000D01*
X122229845Y-89587000D01*
X122108524Y-89816890D01*
X122153175Y-89964099D01*
X122278359Y-90226920D01*
X122452412Y-90460269D01*
X122668645Y-90655178D01*
X122918748Y-90804157D01*
X123193109Y-90901481D01*
X123422998Y-90780815D01*
X123422998Y-90876183D01*
X123221266Y-90916310D01*
X123016165Y-91001266D01*
X122831579Y-91124602D01*
X122674602Y-91281579D01*
X122551266Y-91466165D01*
X122466310Y-91671266D01*
X122423000Y-91889000D01*
X122423000Y-92111000D01*
X122466310Y-92328734D01*
X122551266Y-92533835D01*
X122674602Y-92718421D01*
X122831579Y-92875398D01*
X123016165Y-92998734D01*
X123221266Y-93083690D01*
X123439000Y-93127000D01*
X123661000Y-93127000D01*
X123878734Y-93083690D01*
X124083835Y-92998734D01*
X124268421Y-92875398D01*
X124425398Y-92718421D01*
X124548734Y-92533835D01*
X124633690Y-92328734D01*
X124648000Y-92256790D01*
X124648000Y-94283209D01*
X124633690Y-94211266D01*
X124548734Y-94006165D01*
X124425398Y-93821579D01*
X124268421Y-93664602D01*
X124083835Y-93541266D01*
X123878734Y-93456310D01*
X123661000Y-93413000D01*
X123439000Y-93413000D01*
X123221266Y-93456310D01*
X123016165Y-93541266D01*
X122831579Y-93664602D01*
X122674602Y-93821579D01*
X122571369Y-93976078D01*
X120965955Y-92370666D01*
X120949448Y-92350552D01*
X120869202Y-92284696D01*
X120777650Y-92235761D01*
X120678310Y-92205626D01*
X120600881Y-92198000D01*
X120575000Y-92195451D01*
X120549119Y-92198000D01*
X118943236Y-92198000D01*
X118907746Y-92154754D01*
X118832418Y-92092935D01*
X118746478Y-92046999D01*
X118653227Y-92018711D01*
X118556250Y-92009160D01*
X118043750Y-92009160D01*
X117946773Y-92018711D01*
X117853522Y-92046999D01*
X117767582Y-92092935D01*
X117749225Y-92108000D01*
X114549119Y-92108000D01*
X114471690Y-92115626D01*
X114372350Y-92145761D01*
X114280798Y-92194696D01*
X114200552Y-92260552D01*
X114134696Y-92340798D01*
X114085761Y-92432350D01*
X114055626Y-92531690D01*
X114045451Y-92635000D01*
X114055626Y-92738310D01*
X114085761Y-92837650D01*
X114134696Y-92929202D01*
X114200552Y-93009448D01*
X114280798Y-93075304D01*
X114372350Y-93124239D01*
X114471690Y-93154374D01*
X114549119Y-93162000D01*
X117599477Y-93162000D01*
X117630435Y-93219918D01*
X117692254Y-93295246D01*
X117767582Y-93357065D01*
X117853522Y-93403001D01*
X117946773Y-93431289D01*
X118043750Y-93440840D01*
X118556250Y-93440840D01*
X118653227Y-93431289D01*
X118746478Y-93403001D01*
X118832418Y-93357065D01*
X118907746Y-93295246D01*
X118943236Y-93252000D01*
X120356711Y-93252000D01*
X121999053Y-94894344D01*
X122015552Y-94914448D01*
X122095798Y-94980304D01*
X122187350Y-95029239D01*
X122286690Y-95059374D01*
X122390000Y-95069549D01*
X122415881Y-95067000D01*
X122548435Y-95067000D01*
X122551266Y-95073835D01*
X122674602Y-95258421D01*
X122831579Y-95415398D01*
X123016165Y-95538734D01*
X123221266Y-95623690D01*
X123439000Y-95667000D01*
X123661000Y-95667000D01*
X123878734Y-95623690D01*
X124083835Y-95538734D01*
X124268421Y-95415398D01*
X124425398Y-95258421D01*
X124548734Y-95073835D01*
X124633690Y-94868734D01*
X124648000Y-94796791D01*
X124648000Y-96823208D01*
X124633690Y-96751266D01*
X124548734Y-96546165D01*
X124425398Y-96361579D01*
X124268421Y-96204602D01*
X124083835Y-96081266D01*
X123878734Y-95996310D01*
X123661000Y-95953000D01*
X123439000Y-95953000D01*
X123221266Y-95996310D01*
X123016165Y-96081266D01*
X122831579Y-96204602D01*
X122674602Y-96361579D01*
X122551266Y-96546165D01*
X122503907Y-96660500D01*
X115946872Y-96660500D01*
X115988685Y-96626185D01*
X116068037Y-96529494D01*
X116127002Y-96419180D01*
X116163312Y-96299482D01*
X116175572Y-96175000D01*
X116172500Y-95985750D01*
X116013750Y-95827000D01*
X115227000Y-95827000D01*
X115227000Y-95847000D01*
X114973000Y-95847000D01*
X114973000Y-95827000D01*
X114953000Y-95827000D01*
X114953000Y-95573000D01*
X114973000Y-95573000D01*
X114973000Y-94748750D01*
X115227000Y-94748750D01*
X115227000Y-95573000D01*
X116013750Y-95573000D01*
X116172500Y-95414250D01*
X116175572Y-95225000D01*
X116163312Y-95100518D01*
X116127002Y-94980820D01*
X116068037Y-94870506D01*
X115988685Y-94773815D01*
X115891994Y-94694463D01*
X115781680Y-94635498D01*
X115661982Y-94599188D01*
X115537500Y-94586928D01*
X115385750Y-94590000D01*
X115227000Y-94748750D01*
X114973000Y-94748750D01*
X114814250Y-94590000D01*
X114662500Y-94586928D01*
X114583340Y-94594724D01*
X114583340Y-94482000D01*
X114750881Y-94482000D01*
X114828310Y-94474374D01*
X114927650Y-94444239D01*
X115019202Y-94395304D01*
X115099448Y-94329448D01*
X115165304Y-94249202D01*
X115214239Y-94157650D01*
X115237415Y-94081250D01*
X117546660Y-94081250D01*
X117546660Y-94518750D01*
X117556211Y-94615727D01*
X117584499Y-94708978D01*
X117630435Y-94794918D01*
X117692254Y-94870246D01*
X117767582Y-94932065D01*
X117773001Y-94934961D01*
X117773000Y-95177539D01*
X117767582Y-95180435D01*
X117692254Y-95242254D01*
X117630435Y-95317582D01*
X117584499Y-95403522D01*
X117556211Y-95496773D01*
X117546660Y-95593750D01*
X117546660Y-96031250D01*
X117556211Y-96128227D01*
X117584499Y-96221478D01*
X117630435Y-96307418D01*
X117692254Y-96382746D01*
X117767582Y-96444565D01*
X117853522Y-96490501D01*
X117946773Y-96518789D01*
X118043750Y-96528340D01*
X118556250Y-96528340D01*
X118653227Y-96518789D01*
X118746478Y-96490501D01*
X118832418Y-96444565D01*
X118907746Y-96382746D01*
X118969565Y-96307418D01*
X119015501Y-96221478D01*
X119043789Y-96128227D01*
X119053340Y-96031250D01*
X119053340Y-95593750D01*
X119043789Y-95496773D01*
X119015501Y-95403522D01*
X118969565Y-95317582D01*
X118907746Y-95242254D01*
X118832418Y-95180435D01*
X118827000Y-95177539D01*
X118827000Y-94934961D01*
X118832418Y-94932065D01*
X118907746Y-94870246D01*
X118969565Y-94794918D01*
X119015501Y-94708978D01*
X119043789Y-94615727D01*
X119053340Y-94518750D01*
X119053340Y-94081250D01*
X119043789Y-93984273D01*
X119015501Y-93891022D01*
X118969565Y-93805082D01*
X118907746Y-93729754D01*
X118832418Y-93667935D01*
X118746478Y-93621999D01*
X118653227Y-93593711D01*
X118556250Y-93584160D01*
X118043750Y-93584160D01*
X117946773Y-93593711D01*
X117853522Y-93621999D01*
X117767582Y-93667935D01*
X117692254Y-93729754D01*
X117630435Y-93805082D01*
X117584499Y-93891022D01*
X117556211Y-93984273D01*
X117546660Y-94081250D01*
X115237415Y-94081250D01*
X115244374Y-94058310D01*
X115254549Y-93955000D01*
X115244374Y-93851690D01*
X115214239Y-93752350D01*
X115165304Y-93660798D01*
X115099448Y-93580552D01*
X115019202Y-93514696D01*
X114927650Y-93465761D01*
X114828310Y-93435626D01*
X114811767Y-93433997D01*
X114777650Y-93415761D01*
X114678310Y-93385626D01*
X114600881Y-93378000D01*
X114483226Y-93378000D01*
X114457882Y-93347118D01*
X114392973Y-93293848D01*
X114318919Y-93254265D01*
X114238565Y-93229890D01*
X114155000Y-93221660D01*
X113855000Y-93221660D01*
X113771435Y-93229890D01*
X113691081Y-93254265D01*
X113633385Y-93285104D01*
X113624502Y-93255820D01*
X113565537Y-93145506D01*
X113486185Y-93048815D01*
X113420418Y-92994842D01*
X113427000Y-92961754D01*
X113427000Y-92838246D01*
X113402905Y-92717111D01*
X113355640Y-92603004D01*
X113287023Y-92500311D01*
X113199689Y-92412977D01*
X113096996Y-92344360D01*
X112982889Y-92297095D01*
X112861754Y-92273000D01*
X112738246Y-92273000D01*
X112617111Y-92297095D01*
X112503004Y-92344360D01*
X112400311Y-92412977D01*
X112312977Y-92500311D01*
X112244360Y-92603004D01*
X112197095Y-92717111D01*
X112173000Y-92838246D01*
X112173000Y-92920023D01*
X112080506Y-92969463D01*
X111983815Y-93048815D01*
X111904463Y-93145506D01*
X111845498Y-93255820D01*
X111836615Y-93285104D01*
X111778919Y-93254265D01*
X111698565Y-93229890D01*
X111615000Y-93221660D01*
X111315000Y-93221660D01*
X111231435Y-93229890D01*
X111151081Y-93254265D01*
X111077027Y-93293848D01*
X111012118Y-93347118D01*
X110986774Y-93378000D01*
X110673226Y-93378000D01*
X110647882Y-93347118D01*
X110582973Y-93293848D01*
X110508919Y-93254265D01*
X110428565Y-93229890D01*
X110345000Y-93221660D01*
X110045000Y-93221660D01*
X109961435Y-93229890D01*
X109881081Y-93254265D01*
X109807027Y-93293848D01*
X109742118Y-93347118D01*
X109716774Y-93378000D01*
X109599119Y-93378000D01*
X109521690Y-93385626D01*
X109422350Y-93415761D01*
X109330798Y-93464696D01*
X109250552Y-93530552D01*
X109184696Y-93610798D01*
X109135761Y-93702350D01*
X109105626Y-93801690D01*
X109095451Y-93905000D01*
X109105626Y-94008310D01*
X109135761Y-94107650D01*
X109184696Y-94199202D01*
X109250552Y-94279448D01*
X109330798Y-94345304D01*
X109422350Y-94394239D01*
X109521690Y-94424374D01*
X109599119Y-94432000D01*
X109616660Y-94432000D01*
X109616660Y-95300000D01*
X109624890Y-95383565D01*
X109649265Y-95463919D01*
X109688848Y-95537973D01*
X109742118Y-95602882D01*
X109807027Y-95656152D01*
X109881081Y-95695735D01*
X109961435Y-95720110D01*
X110045000Y-95728340D01*
X110345000Y-95728340D01*
X110428565Y-95720110D01*
X110508919Y-95695735D01*
X110582973Y-95656152D01*
X110647882Y-95602882D01*
X110701152Y-95537973D01*
X110740735Y-95463919D01*
X110765110Y-95383565D01*
X110773340Y-95300000D01*
X110773340Y-94432000D01*
X110886660Y-94432000D01*
X110886660Y-95300000D01*
X110894890Y-95383565D01*
X110919265Y-95463919D01*
X110958848Y-95537973D01*
X111012118Y-95602882D01*
X111077027Y-95656152D01*
X111151081Y-95695735D01*
X111231435Y-95720110D01*
X111315000Y-95728340D01*
X111615000Y-95728340D01*
X111698565Y-95720110D01*
X111778919Y-95695735D01*
X111836615Y-95664896D01*
X111845498Y-95694180D01*
X111904463Y-95804494D01*
X111983815Y-95901185D01*
X112080506Y-95980537D01*
X112190820Y-96039502D01*
X112310518Y-96075812D01*
X112435000Y-96088072D01*
X112449250Y-96085000D01*
X112608000Y-95926250D01*
X112608000Y-94602000D01*
X112588000Y-94602000D01*
X112588000Y-94348000D01*
X112608000Y-94348000D01*
X112608000Y-94328000D01*
X112862000Y-94328000D01*
X112862000Y-94348000D01*
X112882000Y-94348000D01*
X112882000Y-94602000D01*
X112862000Y-94602000D01*
X112862000Y-95225457D01*
X112846999Y-95253522D01*
X112818711Y-95346773D01*
X112809160Y-95443750D01*
X112809160Y-95956250D01*
X112818711Y-96053227D01*
X112846999Y-96146478D01*
X112864875Y-96179921D01*
X112856741Y-96262500D01*
X112860501Y-96300673D01*
X112860501Y-96660500D01*
X108659344Y-96660500D01*
X107378340Y-95379497D01*
X107378340Y-94950000D01*
X107372992Y-94895699D01*
X107357153Y-94843484D01*
X107331431Y-94795363D01*
X107296816Y-94753184D01*
X107254637Y-94718569D01*
X107206516Y-94692847D01*
X107154301Y-94677008D01*
X107100000Y-94671660D01*
X104600000Y-94671660D01*
X104545699Y-94677008D01*
X104493484Y-94692847D01*
X104445363Y-94718569D01*
X104403184Y-94753184D01*
X104368569Y-94795363D01*
X104342847Y-94843484D01*
X104327008Y-94895699D01*
X104321660Y-94950000D01*
X104321660Y-96050000D01*
X104327008Y-96104301D01*
X104342847Y-96156516D01*
X104354540Y-96178392D01*
X104333778Y-96170232D01*
X104027000Y-96115000D01*
X103227000Y-96115000D01*
X103227000Y-97573000D01*
X105320584Y-97573000D01*
X105440586Y-97327412D01*
X105412949Y-97210779D01*
X105288436Y-96925017D01*
X105110566Y-96669038D01*
X104886175Y-96452678D01*
X104692544Y-96328340D01*
X106129497Y-96328340D01*
X107761092Y-97959936D01*
X107785420Y-97989580D01*
X107815064Y-98013908D01*
X107815065Y-98013909D01*
X107903733Y-98086677D01*
X108038716Y-98158827D01*
X108185181Y-98203257D01*
X108299334Y-98214500D01*
X108299343Y-98214500D01*
X108337499Y-98218258D01*
X108375655Y-98214500D01*
X113599334Y-98214500D01*
X113637500Y-98218259D01*
X113675666Y-98214500D01*
X123354337Y-98214500D01*
X123392500Y-98218259D01*
X123430663Y-98214500D01*
X123430666Y-98214500D01*
X123506815Y-98207000D01*
X123661000Y-98207000D01*
X123878734Y-98163690D01*
X124083835Y-98078734D01*
X124268421Y-97955398D01*
X124425398Y-97798421D01*
X124548734Y-97613835D01*
X124633690Y-97408734D01*
X124648000Y-97336792D01*
X124648000Y-99578938D01*
X124616870Y-99616870D01*
X124578938Y-99648000D01*
X100421062Y-99648000D01*
X100383130Y-99616870D01*
X100352000Y-99578938D01*
X100352000Y-98072588D01*
X100759414Y-98072588D01*
X100787051Y-98189221D01*
X100911564Y-98474983D01*
X101089434Y-98730962D01*
X101313825Y-98947322D01*
X101576114Y-99115748D01*
X101866222Y-99229768D01*
X102173000Y-99285000D01*
X102973000Y-99285000D01*
X102973000Y-97827000D01*
X103227000Y-97827000D01*
X103227000Y-99285000D01*
X104027000Y-99285000D01*
X104333778Y-99229768D01*
X104623886Y-99115748D01*
X104886175Y-98947322D01*
X105110566Y-98730962D01*
X105288436Y-98474983D01*
X105412949Y-98189221D01*
X105440586Y-98072588D01*
X105320584Y-97827000D01*
X103227000Y-97827000D01*
X102973000Y-97827000D01*
X100879416Y-97827000D01*
X100759414Y-98072588D01*
X100352000Y-98072588D01*
X100352000Y-97327412D01*
X100759414Y-97327412D01*
X100879416Y-97573000D01*
X102973000Y-97573000D01*
X102973000Y-96115000D01*
X102173000Y-96115000D01*
X101866222Y-96170232D01*
X101576114Y-96284252D01*
X101313825Y-96452678D01*
X101089434Y-96669038D01*
X100911564Y-96925017D01*
X100787051Y-97210779D01*
X100759414Y-97327412D01*
X100352000Y-97327412D01*
X100352000Y-94218548D01*
X102273000Y-94218548D01*
X102273000Y-94381452D01*
X102304782Y-94541227D01*
X102367123Y-94691731D01*
X102457628Y-94827181D01*
X102572819Y-94942372D01*
X102708269Y-95032877D01*
X102858773Y-95095218D01*
X103018548Y-95127000D01*
X103181452Y-95127000D01*
X103341227Y-95095218D01*
X103491731Y-95032877D01*
X103627181Y-94942372D01*
X103742372Y-94827181D01*
X103832877Y-94691731D01*
X103895218Y-94541227D01*
X103927000Y-94381452D01*
X103927000Y-94218548D01*
X103895218Y-94058773D01*
X103832877Y-93908269D01*
X103742372Y-93772819D01*
X103627181Y-93657628D01*
X103491731Y-93567123D01*
X103341227Y-93504782D01*
X103181452Y-93473000D01*
X103018548Y-93473000D01*
X102858773Y-93504782D01*
X102708269Y-93567123D01*
X102572819Y-93657628D01*
X102457628Y-93772819D01*
X102367123Y-93908269D01*
X102304782Y-94058773D01*
X102273000Y-94218548D01*
X100352000Y-94218548D01*
X100352000Y-89618548D01*
X102273000Y-89618548D01*
X102273000Y-89781452D01*
X102304782Y-89941227D01*
X102367123Y-90091731D01*
X102457628Y-90227181D01*
X102572819Y-90342372D01*
X102708269Y-90432877D01*
X102858773Y-90495218D01*
X103018548Y-90527000D01*
X103181452Y-90527000D01*
X103341227Y-90495218D01*
X103450392Y-90450000D01*
X104321660Y-90450000D01*
X104321660Y-91550000D01*
X104327008Y-91604301D01*
X104342847Y-91656516D01*
X104368569Y-91704637D01*
X104403184Y-91746816D01*
X104445363Y-91781431D01*
X104493484Y-91807153D01*
X104545699Y-91822992D01*
X104600000Y-91828340D01*
X106088613Y-91828340D01*
X106260273Y-92000000D01*
X106088613Y-92171660D01*
X104600000Y-92171660D01*
X104545699Y-92177008D01*
X104493484Y-92192847D01*
X104445363Y-92218569D01*
X104403184Y-92253184D01*
X104368569Y-92295363D01*
X104342847Y-92343484D01*
X104327008Y-92395699D01*
X104321660Y-92450000D01*
X104321660Y-93550000D01*
X104327008Y-93604301D01*
X104342847Y-93656516D01*
X104368569Y-93704637D01*
X104403184Y-93746816D01*
X104445363Y-93781431D01*
X104493484Y-93807153D01*
X104545699Y-93822992D01*
X104600000Y-93828340D01*
X107100000Y-93828340D01*
X107154301Y-93822992D01*
X107206516Y-93807153D01*
X107254637Y-93781431D01*
X107296816Y-93746816D01*
X107331431Y-93704637D01*
X107357153Y-93656516D01*
X107372992Y-93604301D01*
X107378340Y-93550000D01*
X107378340Y-92633000D01*
X107468995Y-92633000D01*
X107489472Y-92635017D01*
X107509949Y-92633000D01*
X107509952Y-92633000D01*
X107571218Y-92626966D01*
X107649823Y-92603121D01*
X107722265Y-92564400D01*
X107785762Y-92512290D01*
X107798823Y-92496375D01*
X108932199Y-91363000D01*
X109033274Y-91363000D01*
X109344617Y-91674344D01*
X109392205Y-91713399D01*
X109464649Y-91752120D01*
X109543253Y-91775965D01*
X109624999Y-91784016D01*
X109706746Y-91775965D01*
X109785350Y-91752120D01*
X109857793Y-91713399D01*
X109921289Y-91661289D01*
X109973399Y-91597793D01*
X110012120Y-91525350D01*
X110035965Y-91446746D01*
X110044015Y-91365000D01*
X114045451Y-91365000D01*
X114055626Y-91468310D01*
X114085761Y-91567650D01*
X114134696Y-91659202D01*
X114200552Y-91739448D01*
X114280798Y-91805304D01*
X114372350Y-91854239D01*
X114471690Y-91884374D01*
X114549119Y-91892000D01*
X117899670Y-91892000D01*
X117946773Y-91906289D01*
X118043750Y-91915840D01*
X118556250Y-91915840D01*
X118653227Y-91906289D01*
X118746478Y-91878001D01*
X118832418Y-91832065D01*
X118907746Y-91770246D01*
X118969565Y-91694918D01*
X119015501Y-91608978D01*
X119043789Y-91515727D01*
X119053340Y-91418750D01*
X119053340Y-90981250D01*
X119043789Y-90884273D01*
X119015501Y-90791022D01*
X118969565Y-90705082D01*
X118907746Y-90629754D01*
X118832418Y-90567935D01*
X118746478Y-90521999D01*
X118653227Y-90493711D01*
X118556250Y-90484160D01*
X118043750Y-90484160D01*
X117946773Y-90493711D01*
X117853522Y-90521999D01*
X117767582Y-90567935D01*
X117692254Y-90629754D01*
X117630435Y-90705082D01*
X117584499Y-90791022D01*
X117570248Y-90838000D01*
X114915529Y-90838000D01*
X114894583Y-90826804D01*
X114818805Y-90803817D01*
X114739999Y-90796056D01*
X114661194Y-90803817D01*
X114585416Y-90826804D01*
X114564471Y-90838000D01*
X114549119Y-90838000D01*
X114471690Y-90845626D01*
X114372350Y-90875761D01*
X114280798Y-90924696D01*
X114200552Y-90990552D01*
X114134696Y-91070798D01*
X114085761Y-91162350D01*
X114055626Y-91261690D01*
X114045451Y-91365000D01*
X110044015Y-91365000D01*
X110044016Y-91364999D01*
X110035965Y-91283253D01*
X110012120Y-91204649D01*
X109973399Y-91132205D01*
X109934344Y-91084617D01*
X109579726Y-90730000D01*
X109703680Y-90606046D01*
X109742118Y-90652882D01*
X109807027Y-90706152D01*
X109881081Y-90745735D01*
X109961435Y-90770110D01*
X110045000Y-90778340D01*
X110345000Y-90778340D01*
X110428565Y-90770110D01*
X110508919Y-90745735D01*
X110582973Y-90706152D01*
X110647882Y-90652882D01*
X110701152Y-90587973D01*
X110740735Y-90513919D01*
X110765110Y-90433565D01*
X110773340Y-90350000D01*
X110773340Y-88700000D01*
X110886660Y-88700000D01*
X110886660Y-90350000D01*
X110894890Y-90433565D01*
X110919265Y-90513919D01*
X110958848Y-90587973D01*
X111012118Y-90652882D01*
X111077027Y-90706152D01*
X111151081Y-90745735D01*
X111231435Y-90770110D01*
X111315000Y-90778340D01*
X111615000Y-90778340D01*
X111698565Y-90770110D01*
X111778919Y-90745735D01*
X111852973Y-90706152D01*
X111917882Y-90652882D01*
X111971152Y-90587973D01*
X112010735Y-90513919D01*
X112035110Y-90433565D01*
X112043340Y-90350000D01*
X112043340Y-88700000D01*
X112156660Y-88700000D01*
X112156660Y-90350000D01*
X112164890Y-90433565D01*
X112189265Y-90513919D01*
X112228848Y-90587973D01*
X112282118Y-90652882D01*
X112347027Y-90706152D01*
X112421081Y-90745735D01*
X112501435Y-90770110D01*
X112585000Y-90778340D01*
X112885000Y-90778340D01*
X112968565Y-90770110D01*
X113048919Y-90745735D01*
X113122973Y-90706152D01*
X113187882Y-90652882D01*
X113241152Y-90587973D01*
X113280735Y-90513919D01*
X113305110Y-90433565D01*
X113313340Y-90350000D01*
X113313340Y-89003340D01*
X113426660Y-89003340D01*
X113426660Y-90350000D01*
X113434890Y-90433565D01*
X113459265Y-90513919D01*
X113498848Y-90587973D01*
X113552118Y-90652882D01*
X113617027Y-90706152D01*
X113691081Y-90745735D01*
X113771435Y-90770110D01*
X113855000Y-90778340D01*
X114155000Y-90778340D01*
X114238565Y-90770110D01*
X114318919Y-90745735D01*
X114392973Y-90706152D01*
X114457882Y-90652882D01*
X114511152Y-90587973D01*
X114550735Y-90513919D01*
X114575110Y-90433565D01*
X114583340Y-90350000D01*
X114583340Y-89355276D01*
X114662500Y-89363072D01*
X114814250Y-89360000D01*
X114973000Y-89201250D01*
X114973000Y-88377000D01*
X115227000Y-88377000D01*
X115227000Y-89201250D01*
X115385750Y-89360000D01*
X115537500Y-89363072D01*
X115661982Y-89350812D01*
X115781680Y-89314502D01*
X115891994Y-89255537D01*
X115988685Y-89176185D01*
X116068037Y-89079494D01*
X116127002Y-88969180D01*
X116163312Y-88849482D01*
X116175572Y-88725000D01*
X116172500Y-88535750D01*
X116013750Y-88377000D01*
X115227000Y-88377000D01*
X114973000Y-88377000D01*
X114953000Y-88377000D01*
X114953000Y-88123000D01*
X114973000Y-88123000D01*
X114973000Y-87298750D01*
X115227000Y-87298750D01*
X115227000Y-88123000D01*
X116013750Y-88123000D01*
X116172500Y-87964250D01*
X116173035Y-87931250D01*
X117546660Y-87931250D01*
X117546660Y-88368750D01*
X117556211Y-88465727D01*
X117584499Y-88558978D01*
X117630435Y-88644918D01*
X117692254Y-88720246D01*
X117767582Y-88782065D01*
X117773001Y-88784961D01*
X117773000Y-88990039D01*
X117767582Y-88992935D01*
X117692254Y-89054754D01*
X117630435Y-89130082D01*
X117584499Y-89216022D01*
X117556211Y-89309273D01*
X117546660Y-89406250D01*
X117546660Y-89843750D01*
X117556211Y-89940727D01*
X117584499Y-90033978D01*
X117630435Y-90119918D01*
X117692254Y-90195246D01*
X117767582Y-90257065D01*
X117853522Y-90303001D01*
X117946773Y-90331289D01*
X118043750Y-90340840D01*
X118556250Y-90340840D01*
X118653227Y-90331289D01*
X118746478Y-90303001D01*
X118832418Y-90257065D01*
X118907746Y-90195246D01*
X118969565Y-90119918D01*
X119015501Y-90033978D01*
X119043789Y-89940727D01*
X119053340Y-89843750D01*
X119053340Y-89406250D01*
X119043789Y-89309273D01*
X119015501Y-89216022D01*
X118969565Y-89130082D01*
X118907746Y-89054754D01*
X118832418Y-88992935D01*
X118827000Y-88990039D01*
X118827000Y-88784961D01*
X118832418Y-88782065D01*
X118907746Y-88720246D01*
X118969565Y-88644918D01*
X119015501Y-88558978D01*
X119043789Y-88465727D01*
X119053340Y-88368750D01*
X119053340Y-87931250D01*
X119043789Y-87834273D01*
X119015501Y-87741022D01*
X118969565Y-87655082D01*
X118907746Y-87579754D01*
X118832418Y-87517935D01*
X118746478Y-87471999D01*
X118653227Y-87443711D01*
X118556250Y-87434160D01*
X118043750Y-87434160D01*
X117946773Y-87443711D01*
X117853522Y-87471999D01*
X117767582Y-87517935D01*
X117692254Y-87579754D01*
X117630435Y-87655082D01*
X117584499Y-87741022D01*
X117556211Y-87834273D01*
X117546660Y-87931250D01*
X116173035Y-87931250D01*
X116175572Y-87775000D01*
X116163312Y-87650518D01*
X116127002Y-87530820D01*
X116068037Y-87420506D01*
X115988685Y-87323815D01*
X115891994Y-87244463D01*
X115880363Y-87238246D01*
X116123000Y-87238246D01*
X116123000Y-87361754D01*
X116147095Y-87482889D01*
X116194360Y-87596996D01*
X116262977Y-87699689D01*
X116350311Y-87787023D01*
X116453004Y-87855640D01*
X116567111Y-87902905D01*
X116688246Y-87927000D01*
X116811754Y-87927000D01*
X116932889Y-87902905D01*
X117046996Y-87855640D01*
X117149689Y-87787023D01*
X117237023Y-87699689D01*
X117305640Y-87596996D01*
X117352905Y-87482889D01*
X117377000Y-87361754D01*
X117377000Y-87238246D01*
X117365394Y-87179896D01*
X117443290Y-87102000D01*
X117656764Y-87102000D01*
X117692254Y-87145246D01*
X117767582Y-87207065D01*
X117853522Y-87253001D01*
X117946773Y-87281289D01*
X118043750Y-87290840D01*
X118556250Y-87290840D01*
X118653227Y-87281289D01*
X118746478Y-87253001D01*
X118832418Y-87207065D01*
X118907746Y-87145246D01*
X118969565Y-87069918D01*
X119015501Y-86983978D01*
X119043789Y-86890727D01*
X119053340Y-86793750D01*
X119053340Y-86356250D01*
X119043789Y-86259273D01*
X119015501Y-86166022D01*
X118969565Y-86080082D01*
X118907746Y-86004754D01*
X118832418Y-85942935D01*
X118746478Y-85896999D01*
X118653227Y-85868711D01*
X118556250Y-85859160D01*
X118043750Y-85859160D01*
X117946773Y-85868711D01*
X117853522Y-85896999D01*
X117767582Y-85942935D01*
X117692254Y-86004754D01*
X117656764Y-86048000D01*
X117250877Y-86048000D01*
X117224999Y-86045451D01*
X117199121Y-86048000D01*
X117199119Y-86048000D01*
X117121690Y-86055626D01*
X117022350Y-86085761D01*
X116930798Y-86134696D01*
X116850552Y-86200552D01*
X116834049Y-86220661D01*
X116395666Y-86659045D01*
X116375552Y-86675552D01*
X116309696Y-86755798D01*
X116289411Y-86793750D01*
X116260761Y-86847351D01*
X116230626Y-86946691D01*
X116230391Y-86949080D01*
X116194360Y-87003004D01*
X116147095Y-87117111D01*
X116123000Y-87238246D01*
X115880363Y-87238246D01*
X115781680Y-87185498D01*
X115661982Y-87149188D01*
X115537500Y-87136928D01*
X115385750Y-87140000D01*
X115227000Y-87298750D01*
X114973000Y-87298750D01*
X114814250Y-87140000D01*
X114662500Y-87136928D01*
X114538018Y-87149188D01*
X114418320Y-87185498D01*
X114308006Y-87244463D01*
X114211315Y-87323815D01*
X114131963Y-87420506D01*
X114072998Y-87530820D01*
X114050367Y-87605424D01*
X114019918Y-87580435D01*
X113933978Y-87534499D01*
X113840727Y-87506211D01*
X113743750Y-87496660D01*
X113306250Y-87496660D01*
X113209273Y-87506211D01*
X113116022Y-87534499D01*
X113030082Y-87580435D01*
X112954754Y-87642254D01*
X112892935Y-87717582D01*
X112846999Y-87803522D01*
X112818711Y-87896773D01*
X112809160Y-87993750D01*
X112809160Y-88271660D01*
X112585000Y-88271660D01*
X112501435Y-88279890D01*
X112421081Y-88304265D01*
X112347027Y-88343848D01*
X112282118Y-88397118D01*
X112228848Y-88462027D01*
X112189265Y-88536081D01*
X112164890Y-88616435D01*
X112156660Y-88700000D01*
X112043340Y-88700000D01*
X112035110Y-88616435D01*
X112010735Y-88536081D01*
X111971152Y-88462027D01*
X111917882Y-88397118D01*
X111852973Y-88343848D01*
X111778919Y-88304265D01*
X111698565Y-88279890D01*
X111615000Y-88271660D01*
X111315000Y-88271660D01*
X111231435Y-88279890D01*
X111151081Y-88304265D01*
X111077027Y-88343848D01*
X111012118Y-88397118D01*
X110958848Y-88462027D01*
X110919265Y-88536081D01*
X110894890Y-88616435D01*
X110886660Y-88700000D01*
X110773340Y-88700000D01*
X110765110Y-88616435D01*
X110740735Y-88536081D01*
X110701152Y-88462027D01*
X110647882Y-88397118D01*
X110582973Y-88343848D01*
X110508919Y-88304265D01*
X110428565Y-88279890D01*
X110345000Y-88271660D01*
X110045000Y-88271660D01*
X109961435Y-88279890D01*
X109881081Y-88304265D01*
X109807027Y-88343848D01*
X109742118Y-88397118D01*
X109688848Y-88462027D01*
X109649265Y-88536081D01*
X109624890Y-88616435D01*
X109616660Y-88700000D01*
X109616660Y-89676805D01*
X109543253Y-89684035D01*
X109464649Y-89707880D01*
X109392205Y-89746601D01*
X109344617Y-89785656D01*
X109033274Y-90097000D01*
X108601004Y-90097000D01*
X108580527Y-90094983D01*
X108560050Y-90097000D01*
X108560048Y-90097000D01*
X108498782Y-90103034D01*
X108420177Y-90126879D01*
X108347735Y-90165600D01*
X108284238Y-90217710D01*
X108271182Y-90233619D01*
X107378340Y-91126462D01*
X107378340Y-90450000D01*
X107372992Y-90395699D01*
X107357153Y-90343484D01*
X107331431Y-90295363D01*
X107296816Y-90253184D01*
X107254637Y-90218569D01*
X107206516Y-90192847D01*
X107154301Y-90177008D01*
X107100000Y-90171660D01*
X104600000Y-90171660D01*
X104545699Y-90177008D01*
X104493484Y-90192847D01*
X104445363Y-90218569D01*
X104403184Y-90253184D01*
X104368569Y-90295363D01*
X104342847Y-90343484D01*
X104327008Y-90395699D01*
X104321660Y-90450000D01*
X103450392Y-90450000D01*
X103491731Y-90432877D01*
X103627181Y-90342372D01*
X103742372Y-90227181D01*
X103832877Y-90091731D01*
X103895218Y-89941227D01*
X103927000Y-89781452D01*
X103927000Y-89618548D01*
X103895218Y-89458773D01*
X103832877Y-89308269D01*
X103742372Y-89172819D01*
X103627181Y-89057628D01*
X103615765Y-89050000D01*
X103961928Y-89050000D01*
X103974188Y-89174482D01*
X104010498Y-89294180D01*
X104069463Y-89404494D01*
X104148815Y-89501185D01*
X104245506Y-89580537D01*
X104355820Y-89639502D01*
X104475518Y-89675812D01*
X104600000Y-89688072D01*
X105564250Y-89685000D01*
X105723000Y-89526250D01*
X105723000Y-88627000D01*
X105977000Y-88627000D01*
X105977000Y-89526250D01*
X106135750Y-89685000D01*
X107100000Y-89688072D01*
X107224482Y-89675812D01*
X107344180Y-89639502D01*
X107454494Y-89580537D01*
X107551185Y-89501185D01*
X107630537Y-89404494D01*
X107689502Y-89294180D01*
X107725812Y-89174482D01*
X107738072Y-89050000D01*
X107735000Y-88785750D01*
X107576250Y-88627000D01*
X105977000Y-88627000D01*
X105723000Y-88627000D01*
X104123750Y-88627000D01*
X103965000Y-88785750D01*
X103961928Y-89050000D01*
X103615765Y-89050000D01*
X103491731Y-88967123D01*
X103341227Y-88904782D01*
X103181452Y-88873000D01*
X103018548Y-88873000D01*
X102858773Y-88904782D01*
X102708269Y-88967123D01*
X102572819Y-89057628D01*
X102457628Y-89172819D01*
X102367123Y-89308269D01*
X102304782Y-89458773D01*
X102273000Y-89618548D01*
X100352000Y-89618548D01*
X100352000Y-86672588D01*
X100759414Y-86672588D01*
X100787051Y-86789221D01*
X100911564Y-87074983D01*
X101089434Y-87330962D01*
X101313825Y-87547322D01*
X101576114Y-87715748D01*
X101866222Y-87829768D01*
X102173000Y-87885000D01*
X102973000Y-87885000D01*
X102973000Y-86427000D01*
X103227000Y-86427000D01*
X103227000Y-87885000D01*
X103968330Y-87885000D01*
X103961928Y-87950000D01*
X103965000Y-88214250D01*
X104123750Y-88373000D01*
X105723000Y-88373000D01*
X105723000Y-87473750D01*
X105977000Y-87473750D01*
X105977000Y-88373000D01*
X107576250Y-88373000D01*
X107735000Y-88214250D01*
X107738072Y-87950000D01*
X107725812Y-87825518D01*
X107689502Y-87705820D01*
X107630537Y-87595506D01*
X107551185Y-87498815D01*
X107454494Y-87419463D01*
X107344180Y-87360498D01*
X107224482Y-87324188D01*
X107100000Y-87311928D01*
X106135750Y-87315000D01*
X105977000Y-87473750D01*
X105723000Y-87473750D01*
X105564250Y-87315000D01*
X105122635Y-87313593D01*
X105288436Y-87074983D01*
X105412949Y-86789221D01*
X105440586Y-86672588D01*
X105320584Y-86427000D01*
X103227000Y-86427000D01*
X102973000Y-86427000D01*
X100879416Y-86427000D01*
X100759414Y-86672588D01*
X100352000Y-86672588D01*
X100352000Y-85927412D01*
X100759414Y-85927412D01*
X100879416Y-86173000D01*
X102973000Y-86173000D01*
X102973000Y-84715000D01*
X103227000Y-84715000D01*
X103227000Y-86173000D01*
X105320584Y-86173000D01*
X105440586Y-85927412D01*
X105412949Y-85810779D01*
X105288436Y-85525017D01*
X105110566Y-85269038D01*
X104886175Y-85052678D01*
X104623886Y-84884252D01*
X104333778Y-84770232D01*
X104027000Y-84715000D01*
X103227000Y-84715000D01*
X102973000Y-84715000D01*
X102173000Y-84715000D01*
X101866222Y-84770232D01*
X101576114Y-84884252D01*
X101313825Y-85052678D01*
X101089434Y-85269038D01*
X100911564Y-85525017D01*
X100787051Y-85810779D01*
X100759414Y-85927412D01*
X100352000Y-85927412D01*
X100352000Y-84421062D01*
X100383130Y-84383130D01*
X100421062Y-84352000D01*
X124578938Y-84352000D01*
X124616870Y-84383130D01*
G37*
X124616870Y-84383130D02*
X124648001Y-84421063D01*
X124648001Y-85946362D01*
X124631431Y-85915363D01*
X124596816Y-85873184D01*
X124554637Y-85838569D01*
X124506516Y-85812847D01*
X124454301Y-85797008D01*
X124400000Y-85791660D01*
X122700000Y-85791660D01*
X122645699Y-85797008D01*
X122593484Y-85812847D01*
X122545363Y-85838569D01*
X122503184Y-85873184D01*
X122468569Y-85915363D01*
X122442847Y-85963484D01*
X122427008Y-86015699D01*
X122421660Y-86070000D01*
X122421660Y-87770000D01*
X122427008Y-87824301D01*
X122442847Y-87876516D01*
X122468569Y-87924637D01*
X122503184Y-87966816D01*
X122545363Y-88001431D01*
X122593484Y-88027153D01*
X122645699Y-88042992D01*
X122700000Y-88048340D01*
X123109042Y-88048340D01*
X122918748Y-88115843D01*
X122668645Y-88264822D01*
X122452412Y-88459731D01*
X122278359Y-88693080D01*
X122153175Y-88955901D01*
X122108524Y-89103110D01*
X122229845Y-89333000D01*
X123423000Y-89333000D01*
X123423000Y-89313000D01*
X123677000Y-89313000D01*
X123677000Y-89333000D01*
X123697000Y-89333000D01*
X123697000Y-89587000D01*
X123677000Y-89587000D01*
X123677000Y-89607000D01*
X123423000Y-89607000D01*
X123423000Y-89587000D01*
X122229845Y-89587000D01*
X122108524Y-89816890D01*
X122153175Y-89964099D01*
X122278359Y-90226920D01*
X122452412Y-90460269D01*
X122668645Y-90655178D01*
X122918748Y-90804157D01*
X123193109Y-90901481D01*
X123422998Y-90780815D01*
X123422998Y-90876183D01*
X123221266Y-90916310D01*
X123016165Y-91001266D01*
X122831579Y-91124602D01*
X122674602Y-91281579D01*
X122551266Y-91466165D01*
X122466310Y-91671266D01*
X122423000Y-91889000D01*
X122423000Y-92111000D01*
X122466310Y-92328734D01*
X122551266Y-92533835D01*
X122674602Y-92718421D01*
X122831579Y-92875398D01*
X123016165Y-92998734D01*
X123221266Y-93083690D01*
X123439000Y-93127000D01*
X123661000Y-93127000D01*
X123878734Y-93083690D01*
X124083835Y-92998734D01*
X124268421Y-92875398D01*
X124425398Y-92718421D01*
X124548734Y-92533835D01*
X124633690Y-92328734D01*
X124648000Y-92256790D01*
X124648000Y-94283209D01*
X124633690Y-94211266D01*
X124548734Y-94006165D01*
X124425398Y-93821579D01*
X124268421Y-93664602D01*
X124083835Y-93541266D01*
X123878734Y-93456310D01*
X123661000Y-93413000D01*
X123439000Y-93413000D01*
X123221266Y-93456310D01*
X123016165Y-93541266D01*
X122831579Y-93664602D01*
X122674602Y-93821579D01*
X122571369Y-93976078D01*
X120965955Y-92370666D01*
X120949448Y-92350552D01*
X120869202Y-92284696D01*
X120777650Y-92235761D01*
X120678310Y-92205626D01*
X120600881Y-92198000D01*
X120575000Y-92195451D01*
X120549119Y-92198000D01*
X118943236Y-92198000D01*
X118907746Y-92154754D01*
X118832418Y-92092935D01*
X118746478Y-92046999D01*
X118653227Y-92018711D01*
X118556250Y-92009160D01*
X118043750Y-92009160D01*
X117946773Y-92018711D01*
X117853522Y-92046999D01*
X117767582Y-92092935D01*
X117749225Y-92108000D01*
X114549119Y-92108000D01*
X114471690Y-92115626D01*
X114372350Y-92145761D01*
X114280798Y-92194696D01*
X114200552Y-92260552D01*
X114134696Y-92340798D01*
X114085761Y-92432350D01*
X114055626Y-92531690D01*
X114045451Y-92635000D01*
X114055626Y-92738310D01*
X114085761Y-92837650D01*
X114134696Y-92929202D01*
X114200552Y-93009448D01*
X114280798Y-93075304D01*
X114372350Y-93124239D01*
X114471690Y-93154374D01*
X114549119Y-93162000D01*
X117599477Y-93162000D01*
X117630435Y-93219918D01*
X117692254Y-93295246D01*
X117767582Y-93357065D01*
X117853522Y-93403001D01*
X117946773Y-93431289D01*
X118043750Y-93440840D01*
X118556250Y-93440840D01*
X118653227Y-93431289D01*
X118746478Y-93403001D01*
X118832418Y-93357065D01*
X118907746Y-93295246D01*
X118943236Y-93252000D01*
X120356711Y-93252000D01*
X121999053Y-94894344D01*
X122015552Y-94914448D01*
X122095798Y-94980304D01*
X122187350Y-95029239D01*
X122286690Y-95059374D01*
X122390000Y-95069549D01*
X122415881Y-95067000D01*
X122548435Y-95067000D01*
X122551266Y-95073835D01*
X122674602Y-95258421D01*
X122831579Y-95415398D01*
X123016165Y-95538734D01*
X123221266Y-95623690D01*
X123439000Y-95667000D01*
X123661000Y-95667000D01*
X123878734Y-95623690D01*
X124083835Y-95538734D01*
X124268421Y-95415398D01*
X124425398Y-95258421D01*
X124548734Y-95073835D01*
X124633690Y-94868734D01*
X124648000Y-94796791D01*
X124648000Y-96823208D01*
X124633690Y-96751266D01*
X124548734Y-96546165D01*
X124425398Y-96361579D01*
X124268421Y-96204602D01*
X124083835Y-96081266D01*
X123878734Y-95996310D01*
X123661000Y-95953000D01*
X123439000Y-95953000D01*
X123221266Y-95996310D01*
X123016165Y-96081266D01*
X122831579Y-96204602D01*
X122674602Y-96361579D01*
X122551266Y-96546165D01*
X122503907Y-96660500D01*
X115946872Y-96660500D01*
X115988685Y-96626185D01*
X116068037Y-96529494D01*
X116127002Y-96419180D01*
X116163312Y-96299482D01*
X116175572Y-96175000D01*
X116172500Y-95985750D01*
X116013750Y-95827000D01*
X115227000Y-95827000D01*
X115227000Y-95847000D01*
X114973000Y-95847000D01*
X114973000Y-95827000D01*
X114953000Y-95827000D01*
X114953000Y-95573000D01*
X114973000Y-95573000D01*
X114973000Y-94748750D01*
X115227000Y-94748750D01*
X115227000Y-95573000D01*
X116013750Y-95573000D01*
X116172500Y-95414250D01*
X116175572Y-95225000D01*
X116163312Y-95100518D01*
X116127002Y-94980820D01*
X116068037Y-94870506D01*
X115988685Y-94773815D01*
X115891994Y-94694463D01*
X115781680Y-94635498D01*
X115661982Y-94599188D01*
X115537500Y-94586928D01*
X115385750Y-94590000D01*
X115227000Y-94748750D01*
X114973000Y-94748750D01*
X114814250Y-94590000D01*
X114662500Y-94586928D01*
X114583340Y-94594724D01*
X114583340Y-94482000D01*
X114750881Y-94482000D01*
X114828310Y-94474374D01*
X114927650Y-94444239D01*
X115019202Y-94395304D01*
X115099448Y-94329448D01*
X115165304Y-94249202D01*
X115214239Y-94157650D01*
X115237415Y-94081250D01*
X117546660Y-94081250D01*
X117546660Y-94518750D01*
X117556211Y-94615727D01*
X117584499Y-94708978D01*
X117630435Y-94794918D01*
X117692254Y-94870246D01*
X117767582Y-94932065D01*
X117773001Y-94934961D01*
X117773000Y-95177539D01*
X117767582Y-95180435D01*
X117692254Y-95242254D01*
X117630435Y-95317582D01*
X117584499Y-95403522D01*
X117556211Y-95496773D01*
X117546660Y-95593750D01*
X117546660Y-96031250D01*
X117556211Y-96128227D01*
X117584499Y-96221478D01*
X117630435Y-96307418D01*
X117692254Y-96382746D01*
X117767582Y-96444565D01*
X117853522Y-96490501D01*
X117946773Y-96518789D01*
X118043750Y-96528340D01*
X118556250Y-96528340D01*
X118653227Y-96518789D01*
X118746478Y-96490501D01*
X118832418Y-96444565D01*
X118907746Y-96382746D01*
X118969565Y-96307418D01*
X119015501Y-96221478D01*
X119043789Y-96128227D01*
X119053340Y-96031250D01*
X119053340Y-95593750D01*
X119043789Y-95496773D01*
X119015501Y-95403522D01*
X118969565Y-95317582D01*
X118907746Y-95242254D01*
X118832418Y-95180435D01*
X118827000Y-95177539D01*
X118827000Y-94934961D01*
X118832418Y-94932065D01*
X118907746Y-94870246D01*
X118969565Y-94794918D01*
X119015501Y-94708978D01*
X119043789Y-94615727D01*
X119053340Y-94518750D01*
X119053340Y-94081250D01*
X119043789Y-93984273D01*
X119015501Y-93891022D01*
X118969565Y-93805082D01*
X118907746Y-93729754D01*
X118832418Y-93667935D01*
X118746478Y-93621999D01*
X118653227Y-93593711D01*
X118556250Y-93584160D01*
X118043750Y-93584160D01*
X117946773Y-93593711D01*
X117853522Y-93621999D01*
X117767582Y-93667935D01*
X117692254Y-93729754D01*
X117630435Y-93805082D01*
X117584499Y-93891022D01*
X117556211Y-93984273D01*
X117546660Y-94081250D01*
X115237415Y-94081250D01*
X115244374Y-94058310D01*
X115254549Y-93955000D01*
X115244374Y-93851690D01*
X115214239Y-93752350D01*
X115165304Y-93660798D01*
X115099448Y-93580552D01*
X115019202Y-93514696D01*
X114927650Y-93465761D01*
X114828310Y-93435626D01*
X114811767Y-93433997D01*
X114777650Y-93415761D01*
X114678310Y-93385626D01*
X114600881Y-93378000D01*
X114483226Y-93378000D01*
X114457882Y-93347118D01*
X114392973Y-93293848D01*
X114318919Y-93254265D01*
X114238565Y-93229890D01*
X114155000Y-93221660D01*
X113855000Y-93221660D01*
X113771435Y-93229890D01*
X113691081Y-93254265D01*
X113633385Y-93285104D01*
X113624502Y-93255820D01*
X113565537Y-93145506D01*
X113486185Y-93048815D01*
X113420418Y-92994842D01*
X113427000Y-92961754D01*
X113427000Y-92838246D01*
X113402905Y-92717111D01*
X113355640Y-92603004D01*
X113287023Y-92500311D01*
X113199689Y-92412977D01*
X113096996Y-92344360D01*
X112982889Y-92297095D01*
X112861754Y-92273000D01*
X112738246Y-92273000D01*
X112617111Y-92297095D01*
X112503004Y-92344360D01*
X112400311Y-92412977D01*
X112312977Y-92500311D01*
X112244360Y-92603004D01*
X112197095Y-92717111D01*
X112173000Y-92838246D01*
X112173000Y-92920023D01*
X112080506Y-92969463D01*
X111983815Y-93048815D01*
X111904463Y-93145506D01*
X111845498Y-93255820D01*
X111836615Y-93285104D01*
X111778919Y-93254265D01*
X111698565Y-93229890D01*
X111615000Y-93221660D01*
X111315000Y-93221660D01*
X111231435Y-93229890D01*
X111151081Y-93254265D01*
X111077027Y-93293848D01*
X111012118Y-93347118D01*
X110986774Y-93378000D01*
X110673226Y-93378000D01*
X110647882Y-93347118D01*
X110582973Y-93293848D01*
X110508919Y-93254265D01*
X110428565Y-93229890D01*
X110345000Y-93221660D01*
X110045000Y-93221660D01*
X109961435Y-93229890D01*
X109881081Y-93254265D01*
X109807027Y-93293848D01*
X109742118Y-93347118D01*
X109716774Y-93378000D01*
X109599119Y-93378000D01*
X109521690Y-93385626D01*
X109422350Y-93415761D01*
X109330798Y-93464696D01*
X109250552Y-93530552D01*
X109184696Y-93610798D01*
X109135761Y-93702350D01*
X109105626Y-93801690D01*
X109095451Y-93905000D01*
X109105626Y-94008310D01*
X109135761Y-94107650D01*
X109184696Y-94199202D01*
X109250552Y-94279448D01*
X109330798Y-94345304D01*
X109422350Y-94394239D01*
X109521690Y-94424374D01*
X109599119Y-94432000D01*
X109616660Y-94432000D01*
X109616660Y-95300000D01*
X109624890Y-95383565D01*
X109649265Y-95463919D01*
X109688848Y-95537973D01*
X109742118Y-95602882D01*
X109807027Y-95656152D01*
X109881081Y-95695735D01*
X109961435Y-95720110D01*
X110045000Y-95728340D01*
X110345000Y-95728340D01*
X110428565Y-95720110D01*
X110508919Y-95695735D01*
X110582973Y-95656152D01*
X110647882Y-95602882D01*
X110701152Y-95537973D01*
X110740735Y-95463919D01*
X110765110Y-95383565D01*
X110773340Y-95300000D01*
X110773340Y-94432000D01*
X110886660Y-94432000D01*
X110886660Y-95300000D01*
X110894890Y-95383565D01*
X110919265Y-95463919D01*
X110958848Y-95537973D01*
X111012118Y-95602882D01*
X111077027Y-95656152D01*
X111151081Y-95695735D01*
X111231435Y-95720110D01*
X111315000Y-95728340D01*
X111615000Y-95728340D01*
X111698565Y-95720110D01*
X111778919Y-95695735D01*
X111836615Y-95664896D01*
X111845498Y-95694180D01*
X111904463Y-95804494D01*
X111983815Y-95901185D01*
X112080506Y-95980537D01*
X112190820Y-96039502D01*
X112310518Y-96075812D01*
X112435000Y-96088072D01*
X112449250Y-96085000D01*
X112608000Y-95926250D01*
X112608000Y-94602000D01*
X112588000Y-94602000D01*
X112588000Y-94348000D01*
X112608000Y-94348000D01*
X112608000Y-94328000D01*
X112862000Y-94328000D01*
X112862000Y-94348000D01*
X112882000Y-94348000D01*
X112882000Y-94602000D01*
X112862000Y-94602000D01*
X112862000Y-95225457D01*
X112846999Y-95253522D01*
X112818711Y-95346773D01*
X112809160Y-95443750D01*
X112809160Y-95956250D01*
X112818711Y-96053227D01*
X112846999Y-96146478D01*
X112864875Y-96179921D01*
X112856741Y-96262500D01*
X112860501Y-96300673D01*
X112860501Y-96660500D01*
X108659344Y-96660500D01*
X107378340Y-95379497D01*
X107378340Y-94950000D01*
X107372992Y-94895699D01*
X107357153Y-94843484D01*
X107331431Y-94795363D01*
X107296816Y-94753184D01*
X107254637Y-94718569D01*
X107206516Y-94692847D01*
X107154301Y-94677008D01*
X107100000Y-94671660D01*
X104600000Y-94671660D01*
X104545699Y-94677008D01*
X104493484Y-94692847D01*
X104445363Y-94718569D01*
X104403184Y-94753184D01*
X104368569Y-94795363D01*
X104342847Y-94843484D01*
X104327008Y-94895699D01*
X104321660Y-94950000D01*
X104321660Y-96050000D01*
X104327008Y-96104301D01*
X104342847Y-96156516D01*
X104354540Y-96178392D01*
X104333778Y-96170232D01*
X104027000Y-96115000D01*
X103227000Y-96115000D01*
X103227000Y-97573000D01*
X105320584Y-97573000D01*
X105440586Y-97327412D01*
X105412949Y-97210779D01*
X105288436Y-96925017D01*
X105110566Y-96669038D01*
X104886175Y-96452678D01*
X104692544Y-96328340D01*
X106129497Y-96328340D01*
X107761092Y-97959936D01*
X107785420Y-97989580D01*
X107815064Y-98013908D01*
X107815065Y-98013909D01*
X107903733Y-98086677D01*
X108038716Y-98158827D01*
X108185181Y-98203257D01*
X108299334Y-98214500D01*
X108299343Y-98214500D01*
X108337499Y-98218258D01*
X108375655Y-98214500D01*
X113599334Y-98214500D01*
X113637500Y-98218259D01*
X113675666Y-98214500D01*
X123354337Y-98214500D01*
X123392500Y-98218259D01*
X123430663Y-98214500D01*
X123430666Y-98214500D01*
X123506815Y-98207000D01*
X123661000Y-98207000D01*
X123878734Y-98163690D01*
X124083835Y-98078734D01*
X124268421Y-97955398D01*
X124425398Y-97798421D01*
X124548734Y-97613835D01*
X124633690Y-97408734D01*
X124648000Y-97336792D01*
X124648000Y-99578938D01*
X124616870Y-99616870D01*
X124578938Y-99648000D01*
X100421062Y-99648000D01*
X100383130Y-99616870D01*
X100352000Y-99578938D01*
X100352000Y-98072588D01*
X100759414Y-98072588D01*
X100787051Y-98189221D01*
X100911564Y-98474983D01*
X101089434Y-98730962D01*
X101313825Y-98947322D01*
X101576114Y-99115748D01*
X101866222Y-99229768D01*
X102173000Y-99285000D01*
X102973000Y-99285000D01*
X102973000Y-97827000D01*
X103227000Y-97827000D01*
X103227000Y-99285000D01*
X104027000Y-99285000D01*
X104333778Y-99229768D01*
X104623886Y-99115748D01*
X104886175Y-98947322D01*
X105110566Y-98730962D01*
X105288436Y-98474983D01*
X105412949Y-98189221D01*
X105440586Y-98072588D01*
X105320584Y-97827000D01*
X103227000Y-97827000D01*
X102973000Y-97827000D01*
X100879416Y-97827000D01*
X100759414Y-98072588D01*
X100352000Y-98072588D01*
X100352000Y-97327412D01*
X100759414Y-97327412D01*
X100879416Y-97573000D01*
X102973000Y-97573000D01*
X102973000Y-96115000D01*
X102173000Y-96115000D01*
X101866222Y-96170232D01*
X101576114Y-96284252D01*
X101313825Y-96452678D01*
X101089434Y-96669038D01*
X100911564Y-96925017D01*
X100787051Y-97210779D01*
X100759414Y-97327412D01*
X100352000Y-97327412D01*
X100352000Y-94218548D01*
X102273000Y-94218548D01*
X102273000Y-94381452D01*
X102304782Y-94541227D01*
X102367123Y-94691731D01*
X102457628Y-94827181D01*
X102572819Y-94942372D01*
X102708269Y-95032877D01*
X102858773Y-95095218D01*
X103018548Y-95127000D01*
X103181452Y-95127000D01*
X103341227Y-95095218D01*
X103491731Y-95032877D01*
X103627181Y-94942372D01*
X103742372Y-94827181D01*
X103832877Y-94691731D01*
X103895218Y-94541227D01*
X103927000Y-94381452D01*
X103927000Y-94218548D01*
X103895218Y-94058773D01*
X103832877Y-93908269D01*
X103742372Y-93772819D01*
X103627181Y-93657628D01*
X103491731Y-93567123D01*
X103341227Y-93504782D01*
X103181452Y-93473000D01*
X103018548Y-93473000D01*
X102858773Y-93504782D01*
X102708269Y-93567123D01*
X102572819Y-93657628D01*
X102457628Y-93772819D01*
X102367123Y-93908269D01*
X102304782Y-94058773D01*
X102273000Y-94218548D01*
X100352000Y-94218548D01*
X100352000Y-89618548D01*
X102273000Y-89618548D01*
X102273000Y-89781452D01*
X102304782Y-89941227D01*
X102367123Y-90091731D01*
X102457628Y-90227181D01*
X102572819Y-90342372D01*
X102708269Y-90432877D01*
X102858773Y-90495218D01*
X103018548Y-90527000D01*
X103181452Y-90527000D01*
X103341227Y-90495218D01*
X103450392Y-90450000D01*
X104321660Y-90450000D01*
X104321660Y-91550000D01*
X104327008Y-91604301D01*
X104342847Y-91656516D01*
X104368569Y-91704637D01*
X104403184Y-91746816D01*
X104445363Y-91781431D01*
X104493484Y-91807153D01*
X104545699Y-91822992D01*
X104600000Y-91828340D01*
X106088613Y-91828340D01*
X106260273Y-92000000D01*
X106088613Y-92171660D01*
X104600000Y-92171660D01*
X104545699Y-92177008D01*
X104493484Y-92192847D01*
X104445363Y-92218569D01*
X104403184Y-92253184D01*
X104368569Y-92295363D01*
X104342847Y-92343484D01*
X104327008Y-92395699D01*
X104321660Y-92450000D01*
X104321660Y-93550000D01*
X104327008Y-93604301D01*
X104342847Y-93656516D01*
X104368569Y-93704637D01*
X104403184Y-93746816D01*
X104445363Y-93781431D01*
X104493484Y-93807153D01*
X104545699Y-93822992D01*
X104600000Y-93828340D01*
X107100000Y-93828340D01*
X107154301Y-93822992D01*
X107206516Y-93807153D01*
X107254637Y-93781431D01*
X107296816Y-93746816D01*
X107331431Y-93704637D01*
X107357153Y-93656516D01*
X107372992Y-93604301D01*
X107378340Y-93550000D01*
X107378340Y-92633000D01*
X107468995Y-92633000D01*
X107489472Y-92635017D01*
X107509949Y-92633000D01*
X107509952Y-92633000D01*
X107571218Y-92626966D01*
X107649823Y-92603121D01*
X107722265Y-92564400D01*
X107785762Y-92512290D01*
X107798823Y-92496375D01*
X108932199Y-91363000D01*
X109033274Y-91363000D01*
X109344617Y-91674344D01*
X109392205Y-91713399D01*
X109464649Y-91752120D01*
X109543253Y-91775965D01*
X109624999Y-91784016D01*
X109706746Y-91775965D01*
X109785350Y-91752120D01*
X109857793Y-91713399D01*
X109921289Y-91661289D01*
X109973399Y-91597793D01*
X110012120Y-91525350D01*
X110035965Y-91446746D01*
X110044015Y-91365000D01*
X114045451Y-91365000D01*
X114055626Y-91468310D01*
X114085761Y-91567650D01*
X114134696Y-91659202D01*
X114200552Y-91739448D01*
X114280798Y-91805304D01*
X114372350Y-91854239D01*
X114471690Y-91884374D01*
X114549119Y-91892000D01*
X117899670Y-91892000D01*
X117946773Y-91906289D01*
X118043750Y-91915840D01*
X118556250Y-91915840D01*
X118653227Y-91906289D01*
X118746478Y-91878001D01*
X118832418Y-91832065D01*
X118907746Y-91770246D01*
X118969565Y-91694918D01*
X119015501Y-91608978D01*
X119043789Y-91515727D01*
X119053340Y-91418750D01*
X119053340Y-90981250D01*
X119043789Y-90884273D01*
X119015501Y-90791022D01*
X118969565Y-90705082D01*
X118907746Y-90629754D01*
X118832418Y-90567935D01*
X118746478Y-90521999D01*
X118653227Y-90493711D01*
X118556250Y-90484160D01*
X118043750Y-90484160D01*
X117946773Y-90493711D01*
X117853522Y-90521999D01*
X117767582Y-90567935D01*
X117692254Y-90629754D01*
X117630435Y-90705082D01*
X117584499Y-90791022D01*
X117570248Y-90838000D01*
X114915529Y-90838000D01*
X114894583Y-90826804D01*
X114818805Y-90803817D01*
X114739999Y-90796056D01*
X114661194Y-90803817D01*
X114585416Y-90826804D01*
X114564471Y-90838000D01*
X114549119Y-90838000D01*
X114471690Y-90845626D01*
X114372350Y-90875761D01*
X114280798Y-90924696D01*
X114200552Y-90990552D01*
X114134696Y-91070798D01*
X114085761Y-91162350D01*
X114055626Y-91261690D01*
X114045451Y-91365000D01*
X110044015Y-91365000D01*
X110044016Y-91364999D01*
X110035965Y-91283253D01*
X110012120Y-91204649D01*
X109973399Y-91132205D01*
X109934344Y-91084617D01*
X109579726Y-90730000D01*
X109703680Y-90606046D01*
X109742118Y-90652882D01*
X109807027Y-90706152D01*
X109881081Y-90745735D01*
X109961435Y-90770110D01*
X110045000Y-90778340D01*
X110345000Y-90778340D01*
X110428565Y-90770110D01*
X110508919Y-90745735D01*
X110582973Y-90706152D01*
X110647882Y-90652882D01*
X110701152Y-90587973D01*
X110740735Y-90513919D01*
X110765110Y-90433565D01*
X110773340Y-90350000D01*
X110773340Y-88700000D01*
X110886660Y-88700000D01*
X110886660Y-90350000D01*
X110894890Y-90433565D01*
X110919265Y-90513919D01*
X110958848Y-90587973D01*
X111012118Y-90652882D01*
X111077027Y-90706152D01*
X111151081Y-90745735D01*
X111231435Y-90770110D01*
X111315000Y-90778340D01*
X111615000Y-90778340D01*
X111698565Y-90770110D01*
X111778919Y-90745735D01*
X111852973Y-90706152D01*
X111917882Y-90652882D01*
X111971152Y-90587973D01*
X112010735Y-90513919D01*
X112035110Y-90433565D01*
X112043340Y-90350000D01*
X112043340Y-88700000D01*
X112156660Y-88700000D01*
X112156660Y-90350000D01*
X112164890Y-90433565D01*
X112189265Y-90513919D01*
X112228848Y-90587973D01*
X112282118Y-90652882D01*
X112347027Y-90706152D01*
X112421081Y-90745735D01*
X112501435Y-90770110D01*
X112585000Y-90778340D01*
X112885000Y-90778340D01*
X112968565Y-90770110D01*
X113048919Y-90745735D01*
X113122973Y-90706152D01*
X113187882Y-90652882D01*
X113241152Y-90587973D01*
X113280735Y-90513919D01*
X113305110Y-90433565D01*
X113313340Y-90350000D01*
X113313340Y-89003340D01*
X113426660Y-89003340D01*
X113426660Y-90350000D01*
X113434890Y-90433565D01*
X113459265Y-90513919D01*
X113498848Y-90587973D01*
X113552118Y-90652882D01*
X113617027Y-90706152D01*
X113691081Y-90745735D01*
X113771435Y-90770110D01*
X113855000Y-90778340D01*
X114155000Y-90778340D01*
X114238565Y-90770110D01*
X114318919Y-90745735D01*
X114392973Y-90706152D01*
X114457882Y-90652882D01*
X114511152Y-90587973D01*
X114550735Y-90513919D01*
X114575110Y-90433565D01*
X114583340Y-90350000D01*
X114583340Y-89355276D01*
X114662500Y-89363072D01*
X114814250Y-89360000D01*
X114973000Y-89201250D01*
X114973000Y-88377000D01*
X115227000Y-88377000D01*
X115227000Y-89201250D01*
X115385750Y-89360000D01*
X115537500Y-89363072D01*
X115661982Y-89350812D01*
X115781680Y-89314502D01*
X115891994Y-89255537D01*
X115988685Y-89176185D01*
X116068037Y-89079494D01*
X116127002Y-88969180D01*
X116163312Y-88849482D01*
X116175572Y-88725000D01*
X116172500Y-88535750D01*
X116013750Y-88377000D01*
X115227000Y-88377000D01*
X114973000Y-88377000D01*
X114953000Y-88377000D01*
X114953000Y-88123000D01*
X114973000Y-88123000D01*
X114973000Y-87298750D01*
X115227000Y-87298750D01*
X115227000Y-88123000D01*
X116013750Y-88123000D01*
X116172500Y-87964250D01*
X116173035Y-87931250D01*
X117546660Y-87931250D01*
X117546660Y-88368750D01*
X117556211Y-88465727D01*
X117584499Y-88558978D01*
X117630435Y-88644918D01*
X117692254Y-88720246D01*
X117767582Y-88782065D01*
X117773001Y-88784961D01*
X117773000Y-88990039D01*
X117767582Y-88992935D01*
X117692254Y-89054754D01*
X117630435Y-89130082D01*
X117584499Y-89216022D01*
X117556211Y-89309273D01*
X117546660Y-89406250D01*
X117546660Y-89843750D01*
X117556211Y-89940727D01*
X117584499Y-90033978D01*
X117630435Y-90119918D01*
X117692254Y-90195246D01*
X117767582Y-90257065D01*
X117853522Y-90303001D01*
X117946773Y-90331289D01*
X118043750Y-90340840D01*
X118556250Y-90340840D01*
X118653227Y-90331289D01*
X118746478Y-90303001D01*
X118832418Y-90257065D01*
X118907746Y-90195246D01*
X118969565Y-90119918D01*
X119015501Y-90033978D01*
X119043789Y-89940727D01*
X119053340Y-89843750D01*
X119053340Y-89406250D01*
X119043789Y-89309273D01*
X119015501Y-89216022D01*
X118969565Y-89130082D01*
X118907746Y-89054754D01*
X118832418Y-88992935D01*
X118827000Y-88990039D01*
X118827000Y-88784961D01*
X118832418Y-88782065D01*
X118907746Y-88720246D01*
X118969565Y-88644918D01*
X119015501Y-88558978D01*
X119043789Y-88465727D01*
X119053340Y-88368750D01*
X119053340Y-87931250D01*
X119043789Y-87834273D01*
X119015501Y-87741022D01*
X118969565Y-87655082D01*
X118907746Y-87579754D01*
X118832418Y-87517935D01*
X118746478Y-87471999D01*
X118653227Y-87443711D01*
X118556250Y-87434160D01*
X118043750Y-87434160D01*
X117946773Y-87443711D01*
X117853522Y-87471999D01*
X117767582Y-87517935D01*
X117692254Y-87579754D01*
X117630435Y-87655082D01*
X117584499Y-87741022D01*
X117556211Y-87834273D01*
X117546660Y-87931250D01*
X116173035Y-87931250D01*
X116175572Y-87775000D01*
X116163312Y-87650518D01*
X116127002Y-87530820D01*
X116068037Y-87420506D01*
X115988685Y-87323815D01*
X115891994Y-87244463D01*
X115880363Y-87238246D01*
X116123000Y-87238246D01*
X116123000Y-87361754D01*
X116147095Y-87482889D01*
X116194360Y-87596996D01*
X116262977Y-87699689D01*
X116350311Y-87787023D01*
X116453004Y-87855640D01*
X116567111Y-87902905D01*
X116688246Y-87927000D01*
X116811754Y-87927000D01*
X116932889Y-87902905D01*
X117046996Y-87855640D01*
X117149689Y-87787023D01*
X117237023Y-87699689D01*
X117305640Y-87596996D01*
X117352905Y-87482889D01*
X117377000Y-87361754D01*
X117377000Y-87238246D01*
X117365394Y-87179896D01*
X117443290Y-87102000D01*
X117656764Y-87102000D01*
X117692254Y-87145246D01*
X117767582Y-87207065D01*
X117853522Y-87253001D01*
X117946773Y-87281289D01*
X118043750Y-87290840D01*
X118556250Y-87290840D01*
X118653227Y-87281289D01*
X118746478Y-87253001D01*
X118832418Y-87207065D01*
X118907746Y-87145246D01*
X118969565Y-87069918D01*
X119015501Y-86983978D01*
X119043789Y-86890727D01*
X119053340Y-86793750D01*
X119053340Y-86356250D01*
X119043789Y-86259273D01*
X119015501Y-86166022D01*
X118969565Y-86080082D01*
X118907746Y-86004754D01*
X118832418Y-85942935D01*
X118746478Y-85896999D01*
X118653227Y-85868711D01*
X118556250Y-85859160D01*
X118043750Y-85859160D01*
X117946773Y-85868711D01*
X117853522Y-85896999D01*
X117767582Y-85942935D01*
X117692254Y-86004754D01*
X117656764Y-86048000D01*
X117250877Y-86048000D01*
X117224999Y-86045451D01*
X117199121Y-86048000D01*
X117199119Y-86048000D01*
X117121690Y-86055626D01*
X117022350Y-86085761D01*
X116930798Y-86134696D01*
X116850552Y-86200552D01*
X116834049Y-86220661D01*
X116395666Y-86659045D01*
X116375552Y-86675552D01*
X116309696Y-86755798D01*
X116289411Y-86793750D01*
X116260761Y-86847351D01*
X116230626Y-86946691D01*
X116230391Y-86949080D01*
X116194360Y-87003004D01*
X116147095Y-87117111D01*
X116123000Y-87238246D01*
X115880363Y-87238246D01*
X115781680Y-87185498D01*
X115661982Y-87149188D01*
X115537500Y-87136928D01*
X115385750Y-87140000D01*
X115227000Y-87298750D01*
X114973000Y-87298750D01*
X114814250Y-87140000D01*
X114662500Y-87136928D01*
X114538018Y-87149188D01*
X114418320Y-87185498D01*
X114308006Y-87244463D01*
X114211315Y-87323815D01*
X114131963Y-87420506D01*
X114072998Y-87530820D01*
X114050367Y-87605424D01*
X114019918Y-87580435D01*
X113933978Y-87534499D01*
X113840727Y-87506211D01*
X113743750Y-87496660D01*
X113306250Y-87496660D01*
X113209273Y-87506211D01*
X113116022Y-87534499D01*
X113030082Y-87580435D01*
X112954754Y-87642254D01*
X112892935Y-87717582D01*
X112846999Y-87803522D01*
X112818711Y-87896773D01*
X112809160Y-87993750D01*
X112809160Y-88271660D01*
X112585000Y-88271660D01*
X112501435Y-88279890D01*
X112421081Y-88304265D01*
X112347027Y-88343848D01*
X112282118Y-88397118D01*
X112228848Y-88462027D01*
X112189265Y-88536081D01*
X112164890Y-88616435D01*
X112156660Y-88700000D01*
X112043340Y-88700000D01*
X112035110Y-88616435D01*
X112010735Y-88536081D01*
X111971152Y-88462027D01*
X111917882Y-88397118D01*
X111852973Y-88343848D01*
X111778919Y-88304265D01*
X111698565Y-88279890D01*
X111615000Y-88271660D01*
X111315000Y-88271660D01*
X111231435Y-88279890D01*
X111151081Y-88304265D01*
X111077027Y-88343848D01*
X111012118Y-88397118D01*
X110958848Y-88462027D01*
X110919265Y-88536081D01*
X110894890Y-88616435D01*
X110886660Y-88700000D01*
X110773340Y-88700000D01*
X110765110Y-88616435D01*
X110740735Y-88536081D01*
X110701152Y-88462027D01*
X110647882Y-88397118D01*
X110582973Y-88343848D01*
X110508919Y-88304265D01*
X110428565Y-88279890D01*
X110345000Y-88271660D01*
X110045000Y-88271660D01*
X109961435Y-88279890D01*
X109881081Y-88304265D01*
X109807027Y-88343848D01*
X109742118Y-88397118D01*
X109688848Y-88462027D01*
X109649265Y-88536081D01*
X109624890Y-88616435D01*
X109616660Y-88700000D01*
X109616660Y-89676805D01*
X109543253Y-89684035D01*
X109464649Y-89707880D01*
X109392205Y-89746601D01*
X109344617Y-89785656D01*
X109033274Y-90097000D01*
X108601004Y-90097000D01*
X108580527Y-90094983D01*
X108560050Y-90097000D01*
X108560048Y-90097000D01*
X108498782Y-90103034D01*
X108420177Y-90126879D01*
X108347735Y-90165600D01*
X108284238Y-90217710D01*
X108271182Y-90233619D01*
X107378340Y-91126462D01*
X107378340Y-90450000D01*
X107372992Y-90395699D01*
X107357153Y-90343484D01*
X107331431Y-90295363D01*
X107296816Y-90253184D01*
X107254637Y-90218569D01*
X107206516Y-90192847D01*
X107154301Y-90177008D01*
X107100000Y-90171660D01*
X104600000Y-90171660D01*
X104545699Y-90177008D01*
X104493484Y-90192847D01*
X104445363Y-90218569D01*
X104403184Y-90253184D01*
X104368569Y-90295363D01*
X104342847Y-90343484D01*
X104327008Y-90395699D01*
X104321660Y-90450000D01*
X103450392Y-90450000D01*
X103491731Y-90432877D01*
X103627181Y-90342372D01*
X103742372Y-90227181D01*
X103832877Y-90091731D01*
X103895218Y-89941227D01*
X103927000Y-89781452D01*
X103927000Y-89618548D01*
X103895218Y-89458773D01*
X103832877Y-89308269D01*
X103742372Y-89172819D01*
X103627181Y-89057628D01*
X103615765Y-89050000D01*
X103961928Y-89050000D01*
X103974188Y-89174482D01*
X104010498Y-89294180D01*
X104069463Y-89404494D01*
X104148815Y-89501185D01*
X104245506Y-89580537D01*
X104355820Y-89639502D01*
X104475518Y-89675812D01*
X104600000Y-89688072D01*
X105564250Y-89685000D01*
X105723000Y-89526250D01*
X105723000Y-88627000D01*
X105977000Y-88627000D01*
X105977000Y-89526250D01*
X106135750Y-89685000D01*
X107100000Y-89688072D01*
X107224482Y-89675812D01*
X107344180Y-89639502D01*
X107454494Y-89580537D01*
X107551185Y-89501185D01*
X107630537Y-89404494D01*
X107689502Y-89294180D01*
X107725812Y-89174482D01*
X107738072Y-89050000D01*
X107735000Y-88785750D01*
X107576250Y-88627000D01*
X105977000Y-88627000D01*
X105723000Y-88627000D01*
X104123750Y-88627000D01*
X103965000Y-88785750D01*
X103961928Y-89050000D01*
X103615765Y-89050000D01*
X103491731Y-88967123D01*
X103341227Y-88904782D01*
X103181452Y-88873000D01*
X103018548Y-88873000D01*
X102858773Y-88904782D01*
X102708269Y-88967123D01*
X102572819Y-89057628D01*
X102457628Y-89172819D01*
X102367123Y-89308269D01*
X102304782Y-89458773D01*
X102273000Y-89618548D01*
X100352000Y-89618548D01*
X100352000Y-86672588D01*
X100759414Y-86672588D01*
X100787051Y-86789221D01*
X100911564Y-87074983D01*
X101089434Y-87330962D01*
X101313825Y-87547322D01*
X101576114Y-87715748D01*
X101866222Y-87829768D01*
X102173000Y-87885000D01*
X102973000Y-87885000D01*
X102973000Y-86427000D01*
X103227000Y-86427000D01*
X103227000Y-87885000D01*
X103968330Y-87885000D01*
X103961928Y-87950000D01*
X103965000Y-88214250D01*
X104123750Y-88373000D01*
X105723000Y-88373000D01*
X105723000Y-87473750D01*
X105977000Y-87473750D01*
X105977000Y-88373000D01*
X107576250Y-88373000D01*
X107735000Y-88214250D01*
X107738072Y-87950000D01*
X107725812Y-87825518D01*
X107689502Y-87705820D01*
X107630537Y-87595506D01*
X107551185Y-87498815D01*
X107454494Y-87419463D01*
X107344180Y-87360498D01*
X107224482Y-87324188D01*
X107100000Y-87311928D01*
X106135750Y-87315000D01*
X105977000Y-87473750D01*
X105723000Y-87473750D01*
X105564250Y-87315000D01*
X105122635Y-87313593D01*
X105288436Y-87074983D01*
X105412949Y-86789221D01*
X105440586Y-86672588D01*
X105320584Y-86427000D01*
X103227000Y-86427000D01*
X102973000Y-86427000D01*
X100879416Y-86427000D01*
X100759414Y-86672588D01*
X100352000Y-86672588D01*
X100352000Y-85927412D01*
X100759414Y-85927412D01*
X100879416Y-86173000D01*
X102973000Y-86173000D01*
X102973000Y-84715000D01*
X103227000Y-84715000D01*
X103227000Y-86173000D01*
X105320584Y-86173000D01*
X105440586Y-85927412D01*
X105412949Y-85810779D01*
X105288436Y-85525017D01*
X105110566Y-85269038D01*
X104886175Y-85052678D01*
X104623886Y-84884252D01*
X104333778Y-84770232D01*
X104027000Y-84715000D01*
X103227000Y-84715000D01*
X102973000Y-84715000D01*
X102173000Y-84715000D01*
X101866222Y-84770232D01*
X101576114Y-84884252D01*
X101313825Y-85052678D01*
X101089434Y-85269038D01*
X100911564Y-85525017D01*
X100787051Y-85810779D01*
X100759414Y-85927412D01*
X100352000Y-85927412D01*
X100352000Y-84421062D01*
X100383130Y-84383130D01*
X100421062Y-84352000D01*
X124578938Y-84352000D01*
X124616870Y-84383130D01*
%TD*%
M02*
