%TF.GenerationSoftware,KiCad,Pcbnew,(5.1.6)-1*%
%TF.CreationDate,2020-07-02T16:49:34+08:00*%
%TF.ProjectId,usb-ttl,7573622d-7474-46c2-9e6b-696361645f70,rev?*%
%TF.SameCoordinates,Original*%
%TF.FileFunction,Soldermask,Bot*%
%TF.FilePolarity,Negative*%
%FSLAX46Y46*%
G04 Gerber Fmt 4.6, Leading zero omitted, Abs format (unit mm)*
G04 Created by KiCad (PCBNEW (5.1.6)-1) date 2020-07-02 16:49:34*
%MOMM*%
%LPD*%
G01*
G04 APERTURE LIST*
%ADD10C,0.150000*%
%ADD11C,0.100000*%
G04 APERTURE END LIST*
D10*
X121290476Y-96552380D02*
X121766666Y-96552380D01*
X121814285Y-97028571D01*
X121766666Y-96980952D01*
X121671428Y-96933333D01*
X121433333Y-96933333D01*
X121338095Y-96980952D01*
X121290476Y-97028571D01*
X121242857Y-97123809D01*
X121242857Y-97361904D01*
X121290476Y-97457142D01*
X121338095Y-97504761D01*
X121433333Y-97552380D01*
X121671428Y-97552380D01*
X121766666Y-97504761D01*
X121814285Y-97457142D01*
X120957142Y-96552380D02*
X120623809Y-97552380D01*
X120290476Y-96552380D01*
X122161904Y-94052380D02*
X121590476Y-94052380D01*
X121876190Y-95052380D02*
X121876190Y-94052380D01*
X121352380Y-94052380D02*
X120685714Y-95052380D01*
X120685714Y-94052380D02*
X121352380Y-95052380D01*
X120304761Y-95052380D02*
X120304761Y-94052380D01*
X120066666Y-94052380D01*
X119923809Y-94100000D01*
X119828571Y-94195238D01*
X119780952Y-94290476D01*
X119733333Y-94480952D01*
X119733333Y-94623809D01*
X119780952Y-94814285D01*
X119828571Y-94909523D01*
X119923809Y-95004761D01*
X120066666Y-95052380D01*
X120304761Y-95052380D01*
X121466666Y-92552380D02*
X121800000Y-92076190D01*
X122038095Y-92552380D02*
X122038095Y-91552380D01*
X121657142Y-91552380D01*
X121561904Y-91600000D01*
X121514285Y-91647619D01*
X121466666Y-91742857D01*
X121466666Y-91885714D01*
X121514285Y-91980952D01*
X121561904Y-92028571D01*
X121657142Y-92076190D01*
X122038095Y-92076190D01*
X121133333Y-91552380D02*
X120466666Y-92552380D01*
X120466666Y-91552380D02*
X121133333Y-92552380D01*
X120085714Y-92552380D02*
X120085714Y-91552380D01*
X119847619Y-91552380D01*
X119704761Y-91600000D01*
X119609523Y-91695238D01*
X119561904Y-91790476D01*
X119514285Y-91980952D01*
X119514285Y-92123809D01*
X119561904Y-92314285D01*
X119609523Y-92409523D01*
X119704761Y-92504761D01*
X119847619Y-92552380D01*
X120085714Y-92552380D01*
X121661904Y-89100000D02*
X121757142Y-89052380D01*
X121900000Y-89052380D01*
X122042857Y-89100000D01*
X122138095Y-89195238D01*
X122185714Y-89290476D01*
X122233333Y-89480952D01*
X122233333Y-89623809D01*
X122185714Y-89814285D01*
X122138095Y-89909523D01*
X122042857Y-90004761D01*
X121900000Y-90052380D01*
X121804761Y-90052380D01*
X121661904Y-90004761D01*
X121614285Y-89957142D01*
X121614285Y-89623809D01*
X121804761Y-89623809D01*
X121185714Y-90052380D02*
X121185714Y-89052380D01*
X120614285Y-90052380D01*
X120614285Y-89052380D01*
X120138095Y-90052380D02*
X120138095Y-89052380D01*
X119900000Y-89052380D01*
X119757142Y-89100000D01*
X119661904Y-89195238D01*
X119614285Y-89290476D01*
X119566666Y-89480952D01*
X119566666Y-89623809D01*
X119614285Y-89814285D01*
X119661904Y-89909523D01*
X119757142Y-90004761D01*
X119900000Y-90052380D01*
X120138095Y-90052380D01*
X121547619Y-87452380D02*
X121880952Y-86976190D01*
X122119047Y-87452380D02*
X122119047Y-86452380D01*
X121738095Y-86452380D01*
X121642857Y-86500000D01*
X121595238Y-86547619D01*
X121547619Y-86642857D01*
X121547619Y-86785714D01*
X121595238Y-86880952D01*
X121642857Y-86928571D01*
X121738095Y-86976190D01*
X122119047Y-86976190D01*
X121261904Y-86452380D02*
X120690476Y-86452380D01*
X120976190Y-87452380D02*
X120976190Y-86452380D01*
X120404761Y-87404761D02*
X120261904Y-87452380D01*
X120023809Y-87452380D01*
X119928571Y-87404761D01*
X119880952Y-87357142D01*
X119833333Y-87261904D01*
X119833333Y-87166666D01*
X119880952Y-87071428D01*
X119928571Y-87023809D01*
X120023809Y-86976190D01*
X120214285Y-86928571D01*
X120309523Y-86880952D01*
X120357142Y-86833333D01*
X120404761Y-86738095D01*
X120404761Y-86642857D01*
X120357142Y-86547619D01*
X120309523Y-86500000D01*
X120214285Y-86452380D01*
X119976190Y-86452380D01*
X119833333Y-86500000D01*
X123490476Y-99352380D02*
X123490476Y-98352380D01*
X123061904Y-99352380D02*
X123061904Y-98828571D01*
X123109523Y-98733333D01*
X123204761Y-98685714D01*
X123347619Y-98685714D01*
X123442857Y-98733333D01*
X123490476Y-98780952D01*
X122728571Y-98685714D02*
X122347619Y-98685714D01*
X122585714Y-98352380D02*
X122585714Y-99209523D01*
X122538095Y-99304761D01*
X122442857Y-99352380D01*
X122347619Y-99352380D01*
X122157142Y-98685714D02*
X121776190Y-98685714D01*
X122014285Y-98352380D02*
X122014285Y-99209523D01*
X121966666Y-99304761D01*
X121871428Y-99352380D01*
X121776190Y-99352380D01*
X121442857Y-98685714D02*
X121442857Y-99685714D01*
X121442857Y-98733333D02*
X121347619Y-98685714D01*
X121157142Y-98685714D01*
X121061904Y-98733333D01*
X121014285Y-98780952D01*
X120966666Y-98876190D01*
X120966666Y-99161904D01*
X121014285Y-99257142D01*
X121061904Y-99304761D01*
X121157142Y-99352380D01*
X121347619Y-99352380D01*
X121442857Y-99304761D01*
X120585714Y-99304761D02*
X120490476Y-99352380D01*
X120300000Y-99352380D01*
X120204761Y-99304761D01*
X120157142Y-99209523D01*
X120157142Y-99161904D01*
X120204761Y-99066666D01*
X120300000Y-99019047D01*
X120442857Y-99019047D01*
X120538095Y-98971428D01*
X120585714Y-98876190D01*
X120585714Y-98828571D01*
X120538095Y-98733333D01*
X120442857Y-98685714D01*
X120300000Y-98685714D01*
X120204761Y-98733333D01*
X119728571Y-99257142D02*
X119680952Y-99304761D01*
X119728571Y-99352380D01*
X119776190Y-99304761D01*
X119728571Y-99257142D01*
X119728571Y-99352380D01*
X119728571Y-98733333D02*
X119680952Y-98780952D01*
X119728571Y-98828571D01*
X119776190Y-98780952D01*
X119728571Y-98733333D01*
X119728571Y-98828571D01*
X118538095Y-98304761D02*
X119395238Y-99590476D01*
X117490476Y-98304761D02*
X118347619Y-99590476D01*
X116728571Y-98685714D02*
X116728571Y-99352380D01*
X117157142Y-98685714D02*
X117157142Y-99209523D01*
X117109523Y-99304761D01*
X117014285Y-99352380D01*
X116871428Y-99352380D01*
X116776190Y-99304761D01*
X116728571Y-99257142D01*
X116252380Y-99352380D02*
X116252380Y-98685714D01*
X116252380Y-98352380D02*
X116300000Y-98400000D01*
X116252380Y-98447619D01*
X116204761Y-98400000D01*
X116252380Y-98352380D01*
X116252380Y-98447619D01*
X115776190Y-98685714D02*
X115776190Y-99352380D01*
X115776190Y-98780952D02*
X115728571Y-98733333D01*
X115633333Y-98685714D01*
X115490476Y-98685714D01*
X115395238Y-98733333D01*
X115347619Y-98828571D01*
X115347619Y-99352380D01*
X114871428Y-99352380D02*
X114871428Y-98685714D01*
X114871428Y-98352380D02*
X114919047Y-98400000D01*
X114871428Y-98447619D01*
X114823809Y-98400000D01*
X114871428Y-98352380D01*
X114871428Y-98447619D01*
X114395238Y-99352380D02*
X114395238Y-98352380D01*
X114300000Y-98971428D02*
X114014285Y-99352380D01*
X114014285Y-98685714D02*
X114395238Y-99066666D01*
X113157142Y-99352380D02*
X113157142Y-98828571D01*
X113204761Y-98733333D01*
X113300000Y-98685714D01*
X113490476Y-98685714D01*
X113585714Y-98733333D01*
X113157142Y-99304761D02*
X113252380Y-99352380D01*
X113490476Y-99352380D01*
X113585714Y-99304761D01*
X113633333Y-99209523D01*
X113633333Y-99114285D01*
X113585714Y-99019047D01*
X113490476Y-98971428D01*
X113252380Y-98971428D01*
X113157142Y-98923809D01*
X112680952Y-99257142D02*
X112633333Y-99304761D01*
X112680952Y-99352380D01*
X112728571Y-99304761D01*
X112680952Y-99257142D01*
X112680952Y-99352380D01*
X111776190Y-98685714D02*
X111776190Y-99495238D01*
X111823809Y-99590476D01*
X111871428Y-99638095D01*
X111966666Y-99685714D01*
X112109523Y-99685714D01*
X112204761Y-99638095D01*
X111776190Y-99304761D02*
X111871428Y-99352380D01*
X112061904Y-99352380D01*
X112157142Y-99304761D01*
X112204761Y-99257142D01*
X112252380Y-99161904D01*
X112252380Y-98876190D01*
X112204761Y-98780952D01*
X112157142Y-98733333D01*
X112061904Y-98685714D01*
X111871428Y-98685714D01*
X111776190Y-98733333D01*
X111300000Y-99352380D02*
X111300000Y-98685714D01*
X111300000Y-98352380D02*
X111347619Y-98400000D01*
X111300000Y-98447619D01*
X111252380Y-98400000D01*
X111300000Y-98352380D01*
X111300000Y-98447619D01*
X110966666Y-98685714D02*
X110585714Y-98685714D01*
X110823809Y-98352380D02*
X110823809Y-99209523D01*
X110776190Y-99304761D01*
X110680952Y-99352380D01*
X110585714Y-99352380D01*
X109871428Y-99304761D02*
X109966666Y-99352380D01*
X110157142Y-99352380D01*
X110252380Y-99304761D01*
X110300000Y-99209523D01*
X110300000Y-98828571D01*
X110252380Y-98733333D01*
X110157142Y-98685714D01*
X109966666Y-98685714D01*
X109871428Y-98733333D01*
X109823809Y-98828571D01*
X109823809Y-98923809D01*
X110300000Y-99019047D01*
X109014285Y-99304761D02*
X109109523Y-99352380D01*
X109300000Y-99352380D01*
X109395238Y-99304761D01*
X109442857Y-99209523D01*
X109442857Y-98828571D01*
X109395238Y-98733333D01*
X109300000Y-98685714D01*
X109109523Y-98685714D01*
X109014285Y-98733333D01*
X108966666Y-98828571D01*
X108966666Y-98923809D01*
X109442857Y-99019047D01*
X108538095Y-99257142D02*
X108490476Y-99304761D01*
X108538095Y-99352380D01*
X108585714Y-99304761D01*
X108538095Y-99257142D01*
X108538095Y-99352380D01*
X108061904Y-99352380D02*
X108061904Y-98685714D01*
X108061904Y-98352380D02*
X108109523Y-98400000D01*
X108061904Y-98447619D01*
X108014285Y-98400000D01*
X108061904Y-98352380D01*
X108061904Y-98447619D01*
X107442857Y-99352380D02*
X107538095Y-99304761D01*
X107585714Y-99257142D01*
X107633333Y-99161904D01*
X107633333Y-98876190D01*
X107585714Y-98780952D01*
X107538095Y-98733333D01*
X107442857Y-98685714D01*
X107300000Y-98685714D01*
X107204761Y-98733333D01*
X107157142Y-98780952D01*
X107109523Y-98876190D01*
X107109523Y-99161904D01*
X107157142Y-99257142D01*
X107204761Y-99304761D01*
X107300000Y-99352380D01*
X107442857Y-99352380D01*
X105966666Y-98304761D02*
X106823809Y-99590476D01*
D11*
G36*
X104096034Y-96714469D02*
G01*
X104284536Y-96771651D01*
X104458256Y-96864506D01*
X104610528Y-96989472D01*
X104735494Y-97141744D01*
X104828349Y-97315464D01*
X104885531Y-97503966D01*
X104904838Y-97700000D01*
X104885531Y-97896034D01*
X104828349Y-98084536D01*
X104735494Y-98258256D01*
X104610528Y-98410528D01*
X104458256Y-98535494D01*
X104284536Y-98628349D01*
X104096034Y-98685531D01*
X103949124Y-98700000D01*
X102250876Y-98700000D01*
X102103966Y-98685531D01*
X101915464Y-98628349D01*
X101741744Y-98535494D01*
X101589472Y-98410528D01*
X101464506Y-98258256D01*
X101371651Y-98084536D01*
X101314469Y-97896034D01*
X101295162Y-97700000D01*
X101314469Y-97503966D01*
X101371651Y-97315464D01*
X101464506Y-97141744D01*
X101589472Y-96989472D01*
X101741744Y-96864506D01*
X101915464Y-96771651D01*
X102103966Y-96714469D01*
X102250876Y-96700000D01*
X103949124Y-96700000D01*
X104096034Y-96714469D01*
G37*
G36*
X123754561Y-96203057D02*
G01*
X123812520Y-96214586D01*
X123976310Y-96282430D01*
X124123717Y-96380924D01*
X124249076Y-96506283D01*
X124347570Y-96653690D01*
X124415414Y-96817480D01*
X124450000Y-96991358D01*
X124450000Y-97168642D01*
X124415414Y-97342520D01*
X124347570Y-97506310D01*
X124249076Y-97653717D01*
X124123717Y-97779076D01*
X123976310Y-97877570D01*
X123812520Y-97945414D01*
X123754561Y-97956943D01*
X123638644Y-97980000D01*
X123461356Y-97980000D01*
X123345439Y-97956943D01*
X123287480Y-97945414D01*
X123123690Y-97877570D01*
X122976283Y-97779076D01*
X122850924Y-97653717D01*
X122752430Y-97506310D01*
X122684586Y-97342520D01*
X122650000Y-97168642D01*
X122650000Y-96991358D01*
X122684586Y-96817480D01*
X122752430Y-96653690D01*
X122850924Y-96506283D01*
X122976283Y-96380924D01*
X123123690Y-96282430D01*
X123287480Y-96214586D01*
X123345439Y-96203057D01*
X123461356Y-96180000D01*
X123638644Y-96180000D01*
X123754561Y-96203057D01*
G37*
G36*
X123754561Y-93663057D02*
G01*
X123812520Y-93674586D01*
X123976310Y-93742430D01*
X124123717Y-93840924D01*
X124249076Y-93966283D01*
X124347570Y-94113690D01*
X124415414Y-94277480D01*
X124450000Y-94451358D01*
X124450000Y-94628642D01*
X124415414Y-94802520D01*
X124347570Y-94966310D01*
X124249076Y-95113717D01*
X124123717Y-95239076D01*
X123976310Y-95337570D01*
X123812520Y-95405414D01*
X123754561Y-95416943D01*
X123638644Y-95440000D01*
X123461356Y-95440000D01*
X123345439Y-95416943D01*
X123287480Y-95405414D01*
X123123690Y-95337570D01*
X122976283Y-95239076D01*
X122850924Y-95113717D01*
X122752430Y-94966310D01*
X122684586Y-94802520D01*
X122650000Y-94628642D01*
X122650000Y-94451358D01*
X122684586Y-94277480D01*
X122752430Y-94113690D01*
X122850924Y-93966283D01*
X122976283Y-93840924D01*
X123123690Y-93742430D01*
X123287480Y-93674586D01*
X123345439Y-93663057D01*
X123461356Y-93640000D01*
X123638644Y-93640000D01*
X123754561Y-93663057D01*
G37*
G36*
X103275012Y-93723057D02*
G01*
X103384205Y-93768286D01*
X103384207Y-93768287D01*
X103482478Y-93833950D01*
X103566050Y-93917522D01*
X103631713Y-94015793D01*
X103631714Y-94015795D01*
X103676943Y-94124988D01*
X103700000Y-94240904D01*
X103700000Y-94359096D01*
X103676943Y-94475012D01*
X103676942Y-94475014D01*
X103631713Y-94584207D01*
X103566050Y-94682478D01*
X103482478Y-94766050D01*
X103384207Y-94831713D01*
X103384206Y-94831714D01*
X103384205Y-94831714D01*
X103275012Y-94876943D01*
X103159096Y-94900000D01*
X103040904Y-94900000D01*
X102924988Y-94876943D01*
X102815795Y-94831714D01*
X102815794Y-94831714D01*
X102815793Y-94831713D01*
X102717522Y-94766050D01*
X102633950Y-94682478D01*
X102568287Y-94584207D01*
X102523058Y-94475014D01*
X102523057Y-94475012D01*
X102500000Y-94359096D01*
X102500000Y-94240904D01*
X102523057Y-94124988D01*
X102568286Y-94015795D01*
X102568287Y-94015793D01*
X102633950Y-93917522D01*
X102717522Y-93833950D01*
X102815793Y-93768287D01*
X102815795Y-93768286D01*
X102924988Y-93723057D01*
X103040904Y-93700000D01*
X103159096Y-93700000D01*
X103275012Y-93723057D01*
G37*
G36*
X123754561Y-91123057D02*
G01*
X123812520Y-91134586D01*
X123976310Y-91202430D01*
X124123717Y-91300924D01*
X124249076Y-91426283D01*
X124347570Y-91573690D01*
X124415414Y-91737480D01*
X124450000Y-91911358D01*
X124450000Y-92088642D01*
X124415414Y-92262520D01*
X124347570Y-92426310D01*
X124249076Y-92573717D01*
X124123717Y-92699076D01*
X123976310Y-92797570D01*
X123812520Y-92865414D01*
X123754561Y-92876943D01*
X123638644Y-92900000D01*
X123461356Y-92900000D01*
X123345439Y-92876943D01*
X123287480Y-92865414D01*
X123123690Y-92797570D01*
X122976283Y-92699076D01*
X122850924Y-92573717D01*
X122752430Y-92426310D01*
X122684586Y-92262520D01*
X122650000Y-92088642D01*
X122650000Y-91911358D01*
X122684586Y-91737480D01*
X122752430Y-91573690D01*
X122850924Y-91426283D01*
X122976283Y-91300924D01*
X123123690Y-91202430D01*
X123287480Y-91134586D01*
X123345439Y-91123057D01*
X123461356Y-91100000D01*
X123638644Y-91100000D01*
X123754561Y-91123057D01*
G37*
G36*
X123754561Y-88583057D02*
G01*
X123812520Y-88594586D01*
X123976310Y-88662430D01*
X124123717Y-88760924D01*
X124249076Y-88886283D01*
X124347570Y-89033690D01*
X124415414Y-89197480D01*
X124450000Y-89371358D01*
X124450000Y-89548642D01*
X124415414Y-89722520D01*
X124347570Y-89886310D01*
X124249076Y-90033717D01*
X124123717Y-90159076D01*
X123976310Y-90257570D01*
X123812520Y-90325414D01*
X123754561Y-90336943D01*
X123638644Y-90360000D01*
X123461356Y-90360000D01*
X123345439Y-90336943D01*
X123287480Y-90325414D01*
X123123690Y-90257570D01*
X122976283Y-90159076D01*
X122850924Y-90033717D01*
X122752430Y-89886310D01*
X122684586Y-89722520D01*
X122650000Y-89548642D01*
X122650000Y-89371358D01*
X122684586Y-89197480D01*
X122752430Y-89033690D01*
X122850924Y-88886283D01*
X122976283Y-88760924D01*
X123123690Y-88662430D01*
X123287480Y-88594586D01*
X123345439Y-88583057D01*
X123461356Y-88560000D01*
X123638644Y-88560000D01*
X123754561Y-88583057D01*
G37*
G36*
X103275012Y-89123057D02*
G01*
X103275015Y-89123058D01*
X103275014Y-89123058D01*
X103384207Y-89168287D01*
X103482478Y-89233950D01*
X103566050Y-89317522D01*
X103566051Y-89317524D01*
X103631714Y-89415795D01*
X103676943Y-89524988D01*
X103700000Y-89640904D01*
X103700000Y-89759096D01*
X103676943Y-89875012D01*
X103676942Y-89875014D01*
X103631713Y-89984207D01*
X103566050Y-90082478D01*
X103482478Y-90166050D01*
X103384207Y-90231713D01*
X103384206Y-90231714D01*
X103384205Y-90231714D01*
X103275012Y-90276943D01*
X103159096Y-90300000D01*
X103040904Y-90300000D01*
X102924988Y-90276943D01*
X102815795Y-90231714D01*
X102815794Y-90231714D01*
X102815793Y-90231713D01*
X102717522Y-90166050D01*
X102633950Y-90082478D01*
X102568287Y-89984207D01*
X102523058Y-89875014D01*
X102523057Y-89875012D01*
X102500000Y-89759096D01*
X102500000Y-89640904D01*
X102523057Y-89524988D01*
X102568286Y-89415795D01*
X102633949Y-89317524D01*
X102633950Y-89317522D01*
X102717522Y-89233950D01*
X102815793Y-89168287D01*
X102924986Y-89123058D01*
X102924985Y-89123058D01*
X102924988Y-89123057D01*
X103040904Y-89100000D01*
X103159096Y-89100000D01*
X103275012Y-89123057D01*
G37*
G36*
X124450000Y-87820000D02*
G01*
X122650000Y-87820000D01*
X122650000Y-86020000D01*
X124450000Y-86020000D01*
X124450000Y-87820000D01*
G37*
G36*
X104096034Y-85314469D02*
G01*
X104284536Y-85371651D01*
X104458256Y-85464506D01*
X104610528Y-85589472D01*
X104735494Y-85741744D01*
X104828349Y-85915464D01*
X104885531Y-86103966D01*
X104904838Y-86300000D01*
X104885531Y-86496034D01*
X104828349Y-86684536D01*
X104735494Y-86858256D01*
X104610528Y-87010528D01*
X104458256Y-87135494D01*
X104284536Y-87228349D01*
X104096034Y-87285531D01*
X103949124Y-87300000D01*
X102250876Y-87300000D01*
X102103966Y-87285531D01*
X101915464Y-87228349D01*
X101741744Y-87135494D01*
X101589472Y-87010528D01*
X101464506Y-86858256D01*
X101371651Y-86684536D01*
X101314469Y-86496034D01*
X101295162Y-86300000D01*
X101314469Y-86103966D01*
X101371651Y-85915464D01*
X101464506Y-85741744D01*
X101589472Y-85589472D01*
X101741744Y-85464506D01*
X101915464Y-85371651D01*
X102103966Y-85314469D01*
X102250876Y-85300000D01*
X103949124Y-85300000D01*
X104096034Y-85314469D01*
G37*
M02*
