%TF.GenerationSoftware,KiCad,Pcbnew,(5.1.6)-1*%
%TF.CreationDate,2020-07-02T16:49:34+08:00*%
%TF.ProjectId,usb-ttl,7573622d-7474-46c2-9e6b-696361645f70,rev?*%
%TF.SameCoordinates,Original*%
%TF.FileFunction,Legend,Bot*%
%TF.FilePolarity,Positive*%
%FSLAX46Y46*%
G04 Gerber Fmt 4.6, Leading zero omitted, Abs format (unit mm)*
G04 Created by KiCad (PCBNEW (5.1.6)-1) date 2020-07-02 16:49:34*
%MOMM*%
%LPD*%
G01*
G04 APERTURE LIST*
%ADD10C,0.150000*%
%ADD11O,3.600000X2.000000*%
%ADD12C,1.200000*%
%ADD13O,1.800000X1.800000*%
%ADD14R,1.800000X1.800000*%
G04 APERTURE END LIST*
%LPC*%
D10*
X121290476Y-96552380D02*
X121766666Y-96552380D01*
X121814285Y-97028571D01*
X121766666Y-96980952D01*
X121671428Y-96933333D01*
X121433333Y-96933333D01*
X121338095Y-96980952D01*
X121290476Y-97028571D01*
X121242857Y-97123809D01*
X121242857Y-97361904D01*
X121290476Y-97457142D01*
X121338095Y-97504761D01*
X121433333Y-97552380D01*
X121671428Y-97552380D01*
X121766666Y-97504761D01*
X121814285Y-97457142D01*
X120957142Y-96552380D02*
X120623809Y-97552380D01*
X120290476Y-96552380D01*
X122161904Y-94052380D02*
X121590476Y-94052380D01*
X121876190Y-95052380D02*
X121876190Y-94052380D01*
X121352380Y-94052380D02*
X120685714Y-95052380D01*
X120685714Y-94052380D02*
X121352380Y-95052380D01*
X120304761Y-95052380D02*
X120304761Y-94052380D01*
X120066666Y-94052380D01*
X119923809Y-94100000D01*
X119828571Y-94195238D01*
X119780952Y-94290476D01*
X119733333Y-94480952D01*
X119733333Y-94623809D01*
X119780952Y-94814285D01*
X119828571Y-94909523D01*
X119923809Y-95004761D01*
X120066666Y-95052380D01*
X120304761Y-95052380D01*
X121466666Y-92552380D02*
X121800000Y-92076190D01*
X122038095Y-92552380D02*
X122038095Y-91552380D01*
X121657142Y-91552380D01*
X121561904Y-91600000D01*
X121514285Y-91647619D01*
X121466666Y-91742857D01*
X121466666Y-91885714D01*
X121514285Y-91980952D01*
X121561904Y-92028571D01*
X121657142Y-92076190D01*
X122038095Y-92076190D01*
X121133333Y-91552380D02*
X120466666Y-92552380D01*
X120466666Y-91552380D02*
X121133333Y-92552380D01*
X120085714Y-92552380D02*
X120085714Y-91552380D01*
X119847619Y-91552380D01*
X119704761Y-91600000D01*
X119609523Y-91695238D01*
X119561904Y-91790476D01*
X119514285Y-91980952D01*
X119514285Y-92123809D01*
X119561904Y-92314285D01*
X119609523Y-92409523D01*
X119704761Y-92504761D01*
X119847619Y-92552380D01*
X120085714Y-92552380D01*
X121661904Y-89100000D02*
X121757142Y-89052380D01*
X121900000Y-89052380D01*
X122042857Y-89100000D01*
X122138095Y-89195238D01*
X122185714Y-89290476D01*
X122233333Y-89480952D01*
X122233333Y-89623809D01*
X122185714Y-89814285D01*
X122138095Y-89909523D01*
X122042857Y-90004761D01*
X121900000Y-90052380D01*
X121804761Y-90052380D01*
X121661904Y-90004761D01*
X121614285Y-89957142D01*
X121614285Y-89623809D01*
X121804761Y-89623809D01*
X121185714Y-90052380D02*
X121185714Y-89052380D01*
X120614285Y-90052380D01*
X120614285Y-89052380D01*
X120138095Y-90052380D02*
X120138095Y-89052380D01*
X119900000Y-89052380D01*
X119757142Y-89100000D01*
X119661904Y-89195238D01*
X119614285Y-89290476D01*
X119566666Y-89480952D01*
X119566666Y-89623809D01*
X119614285Y-89814285D01*
X119661904Y-89909523D01*
X119757142Y-90004761D01*
X119900000Y-90052380D01*
X120138095Y-90052380D01*
X121547619Y-87452380D02*
X121880952Y-86976190D01*
X122119047Y-87452380D02*
X122119047Y-86452380D01*
X121738095Y-86452380D01*
X121642857Y-86500000D01*
X121595238Y-86547619D01*
X121547619Y-86642857D01*
X121547619Y-86785714D01*
X121595238Y-86880952D01*
X121642857Y-86928571D01*
X121738095Y-86976190D01*
X122119047Y-86976190D01*
X121261904Y-86452380D02*
X120690476Y-86452380D01*
X120976190Y-87452380D02*
X120976190Y-86452380D01*
X120404761Y-87404761D02*
X120261904Y-87452380D01*
X120023809Y-87452380D01*
X119928571Y-87404761D01*
X119880952Y-87357142D01*
X119833333Y-87261904D01*
X119833333Y-87166666D01*
X119880952Y-87071428D01*
X119928571Y-87023809D01*
X120023809Y-86976190D01*
X120214285Y-86928571D01*
X120309523Y-86880952D01*
X120357142Y-86833333D01*
X120404761Y-86738095D01*
X120404761Y-86642857D01*
X120357142Y-86547619D01*
X120309523Y-86500000D01*
X120214285Y-86452380D01*
X119976190Y-86452380D01*
X119833333Y-86500000D01*
X123490476Y-99352380D02*
X123490476Y-98352380D01*
X123061904Y-99352380D02*
X123061904Y-98828571D01*
X123109523Y-98733333D01*
X123204761Y-98685714D01*
X123347619Y-98685714D01*
X123442857Y-98733333D01*
X123490476Y-98780952D01*
X122728571Y-98685714D02*
X122347619Y-98685714D01*
X122585714Y-98352380D02*
X122585714Y-99209523D01*
X122538095Y-99304761D01*
X122442857Y-99352380D01*
X122347619Y-99352380D01*
X122157142Y-98685714D02*
X121776190Y-98685714D01*
X122014285Y-98352380D02*
X122014285Y-99209523D01*
X121966666Y-99304761D01*
X121871428Y-99352380D01*
X121776190Y-99352380D01*
X121442857Y-98685714D02*
X121442857Y-99685714D01*
X121442857Y-98733333D02*
X121347619Y-98685714D01*
X121157142Y-98685714D01*
X121061904Y-98733333D01*
X121014285Y-98780952D01*
X120966666Y-98876190D01*
X120966666Y-99161904D01*
X121014285Y-99257142D01*
X121061904Y-99304761D01*
X121157142Y-99352380D01*
X121347619Y-99352380D01*
X121442857Y-99304761D01*
X120585714Y-99304761D02*
X120490476Y-99352380D01*
X120300000Y-99352380D01*
X120204761Y-99304761D01*
X120157142Y-99209523D01*
X120157142Y-99161904D01*
X120204761Y-99066666D01*
X120300000Y-99019047D01*
X120442857Y-99019047D01*
X120538095Y-98971428D01*
X120585714Y-98876190D01*
X120585714Y-98828571D01*
X120538095Y-98733333D01*
X120442857Y-98685714D01*
X120300000Y-98685714D01*
X120204761Y-98733333D01*
X119728571Y-99257142D02*
X119680952Y-99304761D01*
X119728571Y-99352380D01*
X119776190Y-99304761D01*
X119728571Y-99257142D01*
X119728571Y-99352380D01*
X119728571Y-98733333D02*
X119680952Y-98780952D01*
X119728571Y-98828571D01*
X119776190Y-98780952D01*
X119728571Y-98733333D01*
X119728571Y-98828571D01*
X118538095Y-98304761D02*
X119395238Y-99590476D01*
X117490476Y-98304761D02*
X118347619Y-99590476D01*
X116728571Y-98685714D02*
X116728571Y-99352380D01*
X117157142Y-98685714D02*
X117157142Y-99209523D01*
X117109523Y-99304761D01*
X117014285Y-99352380D01*
X116871428Y-99352380D01*
X116776190Y-99304761D01*
X116728571Y-99257142D01*
X116252380Y-99352380D02*
X116252380Y-98685714D01*
X116252380Y-98352380D02*
X116300000Y-98400000D01*
X116252380Y-98447619D01*
X116204761Y-98400000D01*
X116252380Y-98352380D01*
X116252380Y-98447619D01*
X115776190Y-98685714D02*
X115776190Y-99352380D01*
X115776190Y-98780952D02*
X115728571Y-98733333D01*
X115633333Y-98685714D01*
X115490476Y-98685714D01*
X115395238Y-98733333D01*
X115347619Y-98828571D01*
X115347619Y-99352380D01*
X114871428Y-99352380D02*
X114871428Y-98685714D01*
X114871428Y-98352380D02*
X114919047Y-98400000D01*
X114871428Y-98447619D01*
X114823809Y-98400000D01*
X114871428Y-98352380D01*
X114871428Y-98447619D01*
X114395238Y-99352380D02*
X114395238Y-98352380D01*
X114300000Y-98971428D02*
X114014285Y-99352380D01*
X114014285Y-98685714D02*
X114395238Y-99066666D01*
X113157142Y-99352380D02*
X113157142Y-98828571D01*
X113204761Y-98733333D01*
X113300000Y-98685714D01*
X113490476Y-98685714D01*
X113585714Y-98733333D01*
X113157142Y-99304761D02*
X113252380Y-99352380D01*
X113490476Y-99352380D01*
X113585714Y-99304761D01*
X113633333Y-99209523D01*
X113633333Y-99114285D01*
X113585714Y-99019047D01*
X113490476Y-98971428D01*
X113252380Y-98971428D01*
X113157142Y-98923809D01*
X112680952Y-99257142D02*
X112633333Y-99304761D01*
X112680952Y-99352380D01*
X112728571Y-99304761D01*
X112680952Y-99257142D01*
X112680952Y-99352380D01*
X111776190Y-98685714D02*
X111776190Y-99495238D01*
X111823809Y-99590476D01*
X111871428Y-99638095D01*
X111966666Y-99685714D01*
X112109523Y-99685714D01*
X112204761Y-99638095D01*
X111776190Y-99304761D02*
X111871428Y-99352380D01*
X112061904Y-99352380D01*
X112157142Y-99304761D01*
X112204761Y-99257142D01*
X112252380Y-99161904D01*
X112252380Y-98876190D01*
X112204761Y-98780952D01*
X112157142Y-98733333D01*
X112061904Y-98685714D01*
X111871428Y-98685714D01*
X111776190Y-98733333D01*
X111300000Y-99352380D02*
X111300000Y-98685714D01*
X111300000Y-98352380D02*
X111347619Y-98400000D01*
X111300000Y-98447619D01*
X111252380Y-98400000D01*
X111300000Y-98352380D01*
X111300000Y-98447619D01*
X110966666Y-98685714D02*
X110585714Y-98685714D01*
X110823809Y-98352380D02*
X110823809Y-99209523D01*
X110776190Y-99304761D01*
X110680952Y-99352380D01*
X110585714Y-99352380D01*
X109871428Y-99304761D02*
X109966666Y-99352380D01*
X110157142Y-99352380D01*
X110252380Y-99304761D01*
X110300000Y-99209523D01*
X110300000Y-98828571D01*
X110252380Y-98733333D01*
X110157142Y-98685714D01*
X109966666Y-98685714D01*
X109871428Y-98733333D01*
X109823809Y-98828571D01*
X109823809Y-98923809D01*
X110300000Y-99019047D01*
X109014285Y-99304761D02*
X109109523Y-99352380D01*
X109300000Y-99352380D01*
X109395238Y-99304761D01*
X109442857Y-99209523D01*
X109442857Y-98828571D01*
X109395238Y-98733333D01*
X109300000Y-98685714D01*
X109109523Y-98685714D01*
X109014285Y-98733333D01*
X108966666Y-98828571D01*
X108966666Y-98923809D01*
X109442857Y-99019047D01*
X108538095Y-99257142D02*
X108490476Y-99304761D01*
X108538095Y-99352380D01*
X108585714Y-99304761D01*
X108538095Y-99257142D01*
X108538095Y-99352380D01*
X108061904Y-99352380D02*
X108061904Y-98685714D01*
X108061904Y-98352380D02*
X108109523Y-98400000D01*
X108061904Y-98447619D01*
X108014285Y-98400000D01*
X108061904Y-98352380D01*
X108061904Y-98447619D01*
X107442857Y-99352380D02*
X107538095Y-99304761D01*
X107585714Y-99257142D01*
X107633333Y-99161904D01*
X107633333Y-98876190D01*
X107585714Y-98780952D01*
X107538095Y-98733333D01*
X107442857Y-98685714D01*
X107300000Y-98685714D01*
X107204761Y-98733333D01*
X107157142Y-98780952D01*
X107109523Y-98876190D01*
X107109523Y-99161904D01*
X107157142Y-99257142D01*
X107204761Y-99304761D01*
X107300000Y-99352380D01*
X107442857Y-99352380D01*
X105966666Y-98304761D02*
X106823809Y-99590476D01*
D11*
%TO.C,J1*%
X103100000Y-97700000D03*
X103100000Y-86300000D03*
D12*
X103100000Y-94300000D03*
X103100000Y-89700000D03*
%TD*%
D13*
%TO.C,J2*%
X123550000Y-97080000D03*
X123550000Y-94540000D03*
X123550000Y-92000000D03*
X123550000Y-89460000D03*
D14*
X123550000Y-86920000D03*
%TD*%
M02*
