%TF.GenerationSoftware,KiCad,Pcbnew,(5.1.6)-1*%
%TF.CreationDate,2020-07-02T16:49:34+08:00*%
%TF.ProjectId,usb-ttl,7573622d-7474-46c2-9e6b-696361645f70,rev?*%
%TF.SameCoordinates,Original*%
%TF.FileFunction,Paste,Top*%
%TF.FilePolarity,Positive*%
%FSLAX46Y46*%
G04 Gerber Fmt 4.6, Leading zero omitted, Abs format (unit mm)*
G04 Created by KiCad (PCBNEW (5.1.6)-1) date 2020-07-02 16:49:34*
%MOMM*%
%LPD*%
G01*
G04 APERTURE LIST*
%ADD10R,2.500000X1.100000*%
G04 APERTURE END LIST*
D10*
%TO.C,J1*%
X105850000Y-93000000D03*
X105850000Y-91000000D03*
X105850000Y-95500000D03*
X105850000Y-88500000D03*
%TD*%
%TO.C,U1*%
G36*
G01*
X110345000Y-90500000D02*
X110045000Y-90500000D01*
G75*
G02*
X109895000Y-90350000I0J150000D01*
G01*
X109895000Y-88700000D01*
G75*
G02*
X110045000Y-88550000I150000J0D01*
G01*
X110345000Y-88550000D01*
G75*
G02*
X110495000Y-88700000I0J-150000D01*
G01*
X110495000Y-90350000D01*
G75*
G02*
X110345000Y-90500000I-150000J0D01*
G01*
G37*
G36*
G01*
X111615000Y-90500000D02*
X111315000Y-90500000D01*
G75*
G02*
X111165000Y-90350000I0J150000D01*
G01*
X111165000Y-88700000D01*
G75*
G02*
X111315000Y-88550000I150000J0D01*
G01*
X111615000Y-88550000D01*
G75*
G02*
X111765000Y-88700000I0J-150000D01*
G01*
X111765000Y-90350000D01*
G75*
G02*
X111615000Y-90500000I-150000J0D01*
G01*
G37*
G36*
G01*
X112885000Y-90500000D02*
X112585000Y-90500000D01*
G75*
G02*
X112435000Y-90350000I0J150000D01*
G01*
X112435000Y-88700000D01*
G75*
G02*
X112585000Y-88550000I150000J0D01*
G01*
X112885000Y-88550000D01*
G75*
G02*
X113035000Y-88700000I0J-150000D01*
G01*
X113035000Y-90350000D01*
G75*
G02*
X112885000Y-90500000I-150000J0D01*
G01*
G37*
G36*
G01*
X114155000Y-90500000D02*
X113855000Y-90500000D01*
G75*
G02*
X113705000Y-90350000I0J150000D01*
G01*
X113705000Y-88700000D01*
G75*
G02*
X113855000Y-88550000I150000J0D01*
G01*
X114155000Y-88550000D01*
G75*
G02*
X114305000Y-88700000I0J-150000D01*
G01*
X114305000Y-90350000D01*
G75*
G02*
X114155000Y-90500000I-150000J0D01*
G01*
G37*
G36*
G01*
X114155000Y-95450000D02*
X113855000Y-95450000D01*
G75*
G02*
X113705000Y-95300000I0J150000D01*
G01*
X113705000Y-93650000D01*
G75*
G02*
X113855000Y-93500000I150000J0D01*
G01*
X114155000Y-93500000D01*
G75*
G02*
X114305000Y-93650000I0J-150000D01*
G01*
X114305000Y-95300000D01*
G75*
G02*
X114155000Y-95450000I-150000J0D01*
G01*
G37*
G36*
G01*
X112885000Y-95450000D02*
X112585000Y-95450000D01*
G75*
G02*
X112435000Y-95300000I0J150000D01*
G01*
X112435000Y-93650000D01*
G75*
G02*
X112585000Y-93500000I150000J0D01*
G01*
X112885000Y-93500000D01*
G75*
G02*
X113035000Y-93650000I0J-150000D01*
G01*
X113035000Y-95300000D01*
G75*
G02*
X112885000Y-95450000I-150000J0D01*
G01*
G37*
G36*
G01*
X111615000Y-95450000D02*
X111315000Y-95450000D01*
G75*
G02*
X111165000Y-95300000I0J150000D01*
G01*
X111165000Y-93650000D01*
G75*
G02*
X111315000Y-93500000I150000J0D01*
G01*
X111615000Y-93500000D01*
G75*
G02*
X111765000Y-93650000I0J-150000D01*
G01*
X111765000Y-95300000D01*
G75*
G02*
X111615000Y-95450000I-150000J0D01*
G01*
G37*
G36*
G01*
X110345000Y-95450000D02*
X110045000Y-95450000D01*
G75*
G02*
X109895000Y-95300000I0J150000D01*
G01*
X109895000Y-93650000D01*
G75*
G02*
X110045000Y-93500000I150000J0D01*
G01*
X110345000Y-93500000D01*
G75*
G02*
X110495000Y-93650000I0J-150000D01*
G01*
X110495000Y-95300000D01*
G75*
G02*
X110345000Y-95450000I-150000J0D01*
G01*
G37*
%TD*%
%TO.C,R2*%
G36*
G01*
X118556250Y-88587500D02*
X118043750Y-88587500D01*
G75*
G02*
X117825000Y-88368750I0J218750D01*
G01*
X117825000Y-87931250D01*
G75*
G02*
X118043750Y-87712500I218750J0D01*
G01*
X118556250Y-87712500D01*
G75*
G02*
X118775000Y-87931250I0J-218750D01*
G01*
X118775000Y-88368750D01*
G75*
G02*
X118556250Y-88587500I-218750J0D01*
G01*
G37*
G36*
G01*
X118556250Y-87012500D02*
X118043750Y-87012500D01*
G75*
G02*
X117825000Y-86793750I0J218750D01*
G01*
X117825000Y-86356250D01*
G75*
G02*
X118043750Y-86137500I218750J0D01*
G01*
X118556250Y-86137500D01*
G75*
G02*
X118775000Y-86356250I0J-218750D01*
G01*
X118775000Y-86793750D01*
G75*
G02*
X118556250Y-87012500I-218750J0D01*
G01*
G37*
%TD*%
%TO.C,R1*%
G36*
G01*
X118556250Y-97825000D02*
X118043750Y-97825000D01*
G75*
G02*
X117825000Y-97606250I0J218750D01*
G01*
X117825000Y-97168750D01*
G75*
G02*
X118043750Y-96950000I218750J0D01*
G01*
X118556250Y-96950000D01*
G75*
G02*
X118775000Y-97168750I0J-218750D01*
G01*
X118775000Y-97606250D01*
G75*
G02*
X118556250Y-97825000I-218750J0D01*
G01*
G37*
G36*
G01*
X118556250Y-96250000D02*
X118043750Y-96250000D01*
G75*
G02*
X117825000Y-96031250I0J218750D01*
G01*
X117825000Y-95593750D01*
G75*
G02*
X118043750Y-95375000I218750J0D01*
G01*
X118556250Y-95375000D01*
G75*
G02*
X118775000Y-95593750I0J-218750D01*
G01*
X118775000Y-96031250D01*
G75*
G02*
X118556250Y-96250000I-218750J0D01*
G01*
G37*
%TD*%
%TO.C,D2*%
G36*
G01*
X118556250Y-91637500D02*
X118043750Y-91637500D01*
G75*
G02*
X117825000Y-91418750I0J218750D01*
G01*
X117825000Y-90981250D01*
G75*
G02*
X118043750Y-90762500I218750J0D01*
G01*
X118556250Y-90762500D01*
G75*
G02*
X118775000Y-90981250I0J-218750D01*
G01*
X118775000Y-91418750D01*
G75*
G02*
X118556250Y-91637500I-218750J0D01*
G01*
G37*
G36*
G01*
X118556250Y-90062500D02*
X118043750Y-90062500D01*
G75*
G02*
X117825000Y-89843750I0J218750D01*
G01*
X117825000Y-89406250D01*
G75*
G02*
X118043750Y-89187500I218750J0D01*
G01*
X118556250Y-89187500D01*
G75*
G02*
X118775000Y-89406250I0J-218750D01*
G01*
X118775000Y-89843750D01*
G75*
G02*
X118556250Y-90062500I-218750J0D01*
G01*
G37*
%TD*%
%TO.C,D1*%
G36*
G01*
X118556250Y-94737500D02*
X118043750Y-94737500D01*
G75*
G02*
X117825000Y-94518750I0J218750D01*
G01*
X117825000Y-94081250D01*
G75*
G02*
X118043750Y-93862500I218750J0D01*
G01*
X118556250Y-93862500D01*
G75*
G02*
X118775000Y-94081250I0J-218750D01*
G01*
X118775000Y-94518750D01*
G75*
G02*
X118556250Y-94737500I-218750J0D01*
G01*
G37*
G36*
G01*
X118556250Y-93162500D02*
X118043750Y-93162500D01*
G75*
G02*
X117825000Y-92943750I0J218750D01*
G01*
X117825000Y-92506250D01*
G75*
G02*
X118043750Y-92287500I218750J0D01*
G01*
X118556250Y-92287500D01*
G75*
G02*
X118775000Y-92506250I0J-218750D01*
G01*
X118775000Y-92943750D01*
G75*
G02*
X118556250Y-93162500I-218750J0D01*
G01*
G37*
%TD*%
%TO.C,C2*%
G36*
G01*
X113087500Y-88506250D02*
X113087500Y-87993750D01*
G75*
G02*
X113306250Y-87775000I218750J0D01*
G01*
X113743750Y-87775000D01*
G75*
G02*
X113962500Y-87993750I0J-218750D01*
G01*
X113962500Y-88506250D01*
G75*
G02*
X113743750Y-88725000I-218750J0D01*
G01*
X113306250Y-88725000D01*
G75*
G02*
X113087500Y-88506250I0J218750D01*
G01*
G37*
G36*
G01*
X114662500Y-88506250D02*
X114662500Y-87993750D01*
G75*
G02*
X114881250Y-87775000I218750J0D01*
G01*
X115318750Y-87775000D01*
G75*
G02*
X115537500Y-87993750I0J-218750D01*
G01*
X115537500Y-88506250D01*
G75*
G02*
X115318750Y-88725000I-218750J0D01*
G01*
X114881250Y-88725000D01*
G75*
G02*
X114662500Y-88506250I0J218750D01*
G01*
G37*
%TD*%
%TO.C,C1*%
G36*
G01*
X113087500Y-95956250D02*
X113087500Y-95443750D01*
G75*
G02*
X113306250Y-95225000I218750J0D01*
G01*
X113743750Y-95225000D01*
G75*
G02*
X113962500Y-95443750I0J-218750D01*
G01*
X113962500Y-95956250D01*
G75*
G02*
X113743750Y-96175000I-218750J0D01*
G01*
X113306250Y-96175000D01*
G75*
G02*
X113087500Y-95956250I0J218750D01*
G01*
G37*
G36*
G01*
X114662500Y-95956250D02*
X114662500Y-95443750D01*
G75*
G02*
X114881250Y-95225000I218750J0D01*
G01*
X115318750Y-95225000D01*
G75*
G02*
X115537500Y-95443750I0J-218750D01*
G01*
X115537500Y-95956250D01*
G75*
G02*
X115318750Y-96175000I-218750J0D01*
G01*
X114881250Y-96175000D01*
G75*
G02*
X114662500Y-95956250I0J218750D01*
G01*
G37*
%TD*%
M02*
