%TF.GenerationSoftware,KiCad,Pcbnew,(5.1.6)-1*%
%TF.CreationDate,2020-07-02T16:49:34+08:00*%
%TF.ProjectId,usb-ttl,7573622d-7474-46c2-9e6b-696361645f70,rev?*%
%TF.SameCoordinates,Original*%
%TF.FileFunction,Soldermask,Top*%
%TF.FilePolarity,Negative*%
%FSLAX46Y46*%
G04 Gerber Fmt 4.6, Leading zero omitted, Abs format (unit mm)*
G04 Created by KiCad (PCBNEW (5.1.6)-1) date 2020-07-02 16:49:34*
%MOMM*%
%LPD*%
G01*
G04 APERTURE LIST*
%ADD10C,0.100000*%
G04 APERTURE END LIST*
D10*
G36*
X104096034Y-96714469D02*
G01*
X104284536Y-96771651D01*
X104458256Y-96864506D01*
X104610528Y-96989472D01*
X104735494Y-97141744D01*
X104828349Y-97315464D01*
X104885531Y-97503966D01*
X104904838Y-97700000D01*
X104885531Y-97896034D01*
X104828349Y-98084536D01*
X104735494Y-98258256D01*
X104610528Y-98410528D01*
X104458256Y-98535494D01*
X104284536Y-98628349D01*
X104096034Y-98685531D01*
X103949124Y-98700000D01*
X102250876Y-98700000D01*
X102103966Y-98685531D01*
X101915464Y-98628349D01*
X101741744Y-98535494D01*
X101589472Y-98410528D01*
X101464506Y-98258256D01*
X101371651Y-98084536D01*
X101314469Y-97896034D01*
X101295162Y-97700000D01*
X101314469Y-97503966D01*
X101371651Y-97315464D01*
X101464506Y-97141744D01*
X101589472Y-96989472D01*
X101741744Y-96864506D01*
X101915464Y-96771651D01*
X102103966Y-96714469D01*
X102250876Y-96700000D01*
X103949124Y-96700000D01*
X104096034Y-96714469D01*
G37*
G36*
X123752488Y-96202645D02*
G01*
X123812520Y-96214586D01*
X123919554Y-96258921D01*
X123973935Y-96281446D01*
X123976310Y-96282430D01*
X124123717Y-96380924D01*
X124249076Y-96506283D01*
X124249077Y-96506285D01*
X124347571Y-96653692D01*
X124415414Y-96817481D01*
X124444607Y-96964242D01*
X124450000Y-96991358D01*
X124450000Y-97168642D01*
X124415414Y-97342520D01*
X124347570Y-97506310D01*
X124249076Y-97653717D01*
X124123717Y-97779076D01*
X123976310Y-97877570D01*
X123812520Y-97945414D01*
X123754561Y-97956943D01*
X123638644Y-97980000D01*
X123461356Y-97980000D01*
X123345439Y-97956943D01*
X123287480Y-97945414D01*
X123123690Y-97877570D01*
X122976283Y-97779076D01*
X122850924Y-97653717D01*
X122752430Y-97506310D01*
X122684586Y-97342520D01*
X122650000Y-97168642D01*
X122650000Y-96991358D01*
X122655394Y-96964242D01*
X122684586Y-96817481D01*
X122752429Y-96653692D01*
X122850923Y-96506285D01*
X122850924Y-96506283D01*
X122976283Y-96380924D01*
X123123690Y-96282430D01*
X123126066Y-96281446D01*
X123180446Y-96258921D01*
X123287480Y-96214586D01*
X123347512Y-96202645D01*
X123461356Y-96180000D01*
X123638644Y-96180000D01*
X123752488Y-96202645D01*
G37*
G36*
X118648879Y-96904440D02*
G01*
X118689870Y-96916874D01*
X118727645Y-96937065D01*
X118760758Y-96964242D01*
X118787935Y-96997355D01*
X118808126Y-97035130D01*
X118820560Y-97076121D01*
X118825000Y-97121204D01*
X118825000Y-97653796D01*
X118820560Y-97698879D01*
X118808126Y-97739870D01*
X118787935Y-97777645D01*
X118760758Y-97810758D01*
X118727645Y-97837935D01*
X118689870Y-97858126D01*
X118648879Y-97870560D01*
X118603796Y-97875000D01*
X117996204Y-97875000D01*
X117951121Y-97870560D01*
X117910130Y-97858126D01*
X117872355Y-97837935D01*
X117839242Y-97810758D01*
X117812065Y-97777645D01*
X117791874Y-97739870D01*
X117779440Y-97698879D01*
X117775000Y-97653796D01*
X117775000Y-97121204D01*
X117779440Y-97076121D01*
X117791874Y-97035130D01*
X117812065Y-96997355D01*
X117839242Y-96964242D01*
X117872355Y-96937065D01*
X117910130Y-96916874D01*
X117951121Y-96904440D01*
X117996204Y-96900000D01*
X118603796Y-96900000D01*
X118648879Y-96904440D01*
G37*
G36*
X118648879Y-95329440D02*
G01*
X118689870Y-95341874D01*
X118727645Y-95362065D01*
X118760758Y-95389242D01*
X118787935Y-95422355D01*
X118808126Y-95460130D01*
X118820560Y-95501121D01*
X118825000Y-95546204D01*
X118825000Y-96078796D01*
X118820560Y-96123879D01*
X118808126Y-96164870D01*
X118787935Y-96202645D01*
X118760758Y-96235758D01*
X118727645Y-96262935D01*
X118689870Y-96283126D01*
X118648879Y-96295560D01*
X118603796Y-96300000D01*
X117996204Y-96300000D01*
X117951121Y-96295560D01*
X117910130Y-96283126D01*
X117872355Y-96262935D01*
X117839242Y-96235758D01*
X117812065Y-96202645D01*
X117791874Y-96164870D01*
X117779440Y-96123879D01*
X117775000Y-96078796D01*
X117775000Y-95546204D01*
X117779440Y-95501121D01*
X117791874Y-95460130D01*
X117812065Y-95422355D01*
X117839242Y-95389242D01*
X117872355Y-95362065D01*
X117910130Y-95341874D01*
X117951121Y-95329440D01*
X117996204Y-95325000D01*
X118603796Y-95325000D01*
X118648879Y-95329440D01*
G37*
G36*
X115411379Y-95179440D02*
G01*
X115452370Y-95191874D01*
X115490145Y-95212065D01*
X115523258Y-95239242D01*
X115550435Y-95272355D01*
X115570626Y-95310130D01*
X115583060Y-95351121D01*
X115587500Y-95396204D01*
X115587500Y-96003796D01*
X115583060Y-96048879D01*
X115570626Y-96089870D01*
X115550435Y-96127645D01*
X115523258Y-96160758D01*
X115490145Y-96187935D01*
X115452370Y-96208126D01*
X115411379Y-96220560D01*
X115366296Y-96225000D01*
X114833704Y-96225000D01*
X114788621Y-96220560D01*
X114747630Y-96208126D01*
X114709855Y-96187935D01*
X114676742Y-96160758D01*
X114649565Y-96127645D01*
X114629374Y-96089870D01*
X114616940Y-96048879D01*
X114612500Y-96003796D01*
X114612500Y-95396204D01*
X114616940Y-95351121D01*
X114629374Y-95310130D01*
X114649565Y-95272355D01*
X114676742Y-95239242D01*
X114709855Y-95212065D01*
X114747630Y-95191874D01*
X114788621Y-95179440D01*
X114833704Y-95175000D01*
X115366296Y-95175000D01*
X115411379Y-95179440D01*
G37*
G36*
X112964216Y-93453119D02*
G01*
X112992309Y-93461641D01*
X113018204Y-93475483D01*
X113040896Y-93494104D01*
X113059517Y-93516796D01*
X113073359Y-93542691D01*
X113081881Y-93570784D01*
X113085000Y-93602454D01*
X113085000Y-95155296D01*
X113085961Y-95165050D01*
X113088806Y-95174430D01*
X113093426Y-95183074D01*
X113099644Y-95190651D01*
X113107221Y-95196869D01*
X113115865Y-95201489D01*
X113125245Y-95204334D01*
X113134999Y-95205295D01*
X113144753Y-95204334D01*
X113154133Y-95201489D01*
X113158569Y-95199391D01*
X113172633Y-95191874D01*
X113213621Y-95179440D01*
X113258704Y-95175000D01*
X113605001Y-95175000D01*
X113614755Y-95174039D01*
X113624135Y-95171194D01*
X113632779Y-95166574D01*
X113640356Y-95160356D01*
X113646574Y-95152779D01*
X113651194Y-95144135D01*
X113654039Y-95134755D01*
X113655000Y-95125001D01*
X113655000Y-93602454D01*
X113658119Y-93570784D01*
X113666641Y-93542691D01*
X113680483Y-93516796D01*
X113699104Y-93494104D01*
X113721796Y-93475483D01*
X113747691Y-93461641D01*
X113775784Y-93453119D01*
X113807454Y-93450000D01*
X114202546Y-93450000D01*
X114234216Y-93453119D01*
X114262309Y-93461641D01*
X114288204Y-93475483D01*
X114310896Y-93494104D01*
X114329517Y-93516796D01*
X114343359Y-93542691D01*
X114351881Y-93570784D01*
X114355000Y-93602454D01*
X114355000Y-95347546D01*
X114351881Y-95379216D01*
X114343359Y-95407309D01*
X114329517Y-95433204D01*
X114310896Y-95455896D01*
X114288204Y-95474517D01*
X114262309Y-95488359D01*
X114234216Y-95496881D01*
X114202546Y-95500000D01*
X114062499Y-95500000D01*
X114052745Y-95500961D01*
X114043365Y-95503806D01*
X114034721Y-95508426D01*
X114027144Y-95514644D01*
X114020926Y-95522221D01*
X114016306Y-95530865D01*
X114013461Y-95540245D01*
X114012500Y-95549999D01*
X114012500Y-96003796D01*
X114008060Y-96048879D01*
X113995626Y-96089870D01*
X113975435Y-96127645D01*
X113948258Y-96160758D01*
X113915145Y-96187935D01*
X113877370Y-96208126D01*
X113836379Y-96220560D01*
X113791296Y-96225000D01*
X113258704Y-96225000D01*
X113213621Y-96220560D01*
X113172630Y-96208126D01*
X113134855Y-96187935D01*
X113101742Y-96160758D01*
X113074565Y-96127645D01*
X113054374Y-96089870D01*
X113041940Y-96048879D01*
X113037500Y-96003796D01*
X113037500Y-95542066D01*
X113036539Y-95532312D01*
X113033694Y-95522932D01*
X113029074Y-95514288D01*
X113022856Y-95506711D01*
X113015279Y-95500493D01*
X113006635Y-95495873D01*
X112997255Y-95493028D01*
X112987501Y-95492067D01*
X112972987Y-95494220D01*
X112964216Y-95496881D01*
X112932546Y-95500000D01*
X112537454Y-95500000D01*
X112505784Y-95496881D01*
X112477691Y-95488359D01*
X112451796Y-95474517D01*
X112429104Y-95455896D01*
X112410483Y-95433204D01*
X112396641Y-95407309D01*
X112388119Y-95379216D01*
X112385000Y-95347546D01*
X112385000Y-93602454D01*
X112388119Y-93570784D01*
X112396641Y-93542691D01*
X112410483Y-93516796D01*
X112429104Y-93494104D01*
X112451796Y-93475483D01*
X112477691Y-93461641D01*
X112505784Y-93453119D01*
X112537454Y-93450000D01*
X112932546Y-93450000D01*
X112964216Y-93453119D01*
G37*
G36*
X107150000Y-96100000D02*
G01*
X104550000Y-96100000D01*
X104550000Y-94900000D01*
X107150000Y-94900000D01*
X107150000Y-96100000D01*
G37*
G36*
X110424216Y-93453119D02*
G01*
X110452309Y-93461641D01*
X110478204Y-93475483D01*
X110500896Y-93494104D01*
X110519517Y-93516796D01*
X110533359Y-93542691D01*
X110541881Y-93570784D01*
X110545000Y-93602454D01*
X110545000Y-95347546D01*
X110541881Y-95379216D01*
X110533359Y-95407309D01*
X110519517Y-95433204D01*
X110500896Y-95455896D01*
X110478204Y-95474517D01*
X110452309Y-95488359D01*
X110424216Y-95496881D01*
X110392546Y-95500000D01*
X109997454Y-95500000D01*
X109965784Y-95496881D01*
X109937691Y-95488359D01*
X109911796Y-95474517D01*
X109889104Y-95455896D01*
X109870483Y-95433204D01*
X109856641Y-95407309D01*
X109848119Y-95379216D01*
X109845000Y-95347546D01*
X109845000Y-93602454D01*
X109848119Y-93570784D01*
X109856641Y-93542691D01*
X109870483Y-93516796D01*
X109889104Y-93494104D01*
X109911796Y-93475483D01*
X109937691Y-93461641D01*
X109965784Y-93453119D01*
X109997454Y-93450000D01*
X110392546Y-93450000D01*
X110424216Y-93453119D01*
G37*
G36*
X111694216Y-93453119D02*
G01*
X111722309Y-93461641D01*
X111748204Y-93475483D01*
X111770896Y-93494104D01*
X111789517Y-93516796D01*
X111803359Y-93542691D01*
X111811881Y-93570784D01*
X111815000Y-93602454D01*
X111815000Y-95347546D01*
X111811881Y-95379216D01*
X111803359Y-95407309D01*
X111789517Y-95433204D01*
X111770896Y-95455896D01*
X111748204Y-95474517D01*
X111722309Y-95488359D01*
X111694216Y-95496881D01*
X111662546Y-95500000D01*
X111267454Y-95500000D01*
X111235784Y-95496881D01*
X111207691Y-95488359D01*
X111181796Y-95474517D01*
X111159104Y-95455896D01*
X111140483Y-95433204D01*
X111126641Y-95407309D01*
X111118119Y-95379216D01*
X111115000Y-95347546D01*
X111115000Y-93602454D01*
X111118119Y-93570784D01*
X111126641Y-93542691D01*
X111140483Y-93516796D01*
X111159104Y-93494104D01*
X111181796Y-93475483D01*
X111207691Y-93461641D01*
X111235784Y-93453119D01*
X111267454Y-93450000D01*
X111662546Y-93450000D01*
X111694216Y-93453119D01*
G37*
G36*
X123754561Y-93663057D02*
G01*
X123812520Y-93674586D01*
X123976310Y-93742430D01*
X124123717Y-93840924D01*
X124249076Y-93966283D01*
X124347570Y-94113690D01*
X124400264Y-94240904D01*
X124415414Y-94277481D01*
X124450000Y-94451356D01*
X124450000Y-94628644D01*
X124432602Y-94716107D01*
X124415414Y-94802520D01*
X124347570Y-94966310D01*
X124249076Y-95113717D01*
X124123717Y-95239076D01*
X123976310Y-95337570D01*
X123976309Y-95337571D01*
X123976308Y-95337571D01*
X123952226Y-95347546D01*
X123812520Y-95405414D01*
X123754561Y-95416943D01*
X123638644Y-95440000D01*
X123461356Y-95440000D01*
X123345439Y-95416943D01*
X123287480Y-95405414D01*
X123147774Y-95347546D01*
X123123692Y-95337571D01*
X123123691Y-95337571D01*
X123123690Y-95337570D01*
X122976283Y-95239076D01*
X122850924Y-95113717D01*
X122752430Y-94966310D01*
X122684586Y-94802520D01*
X122667398Y-94716107D01*
X122650000Y-94628644D01*
X122650000Y-94451356D01*
X122684586Y-94277481D01*
X122699737Y-94240904D01*
X122752430Y-94113690D01*
X122850924Y-93966283D01*
X122976283Y-93840924D01*
X123123690Y-93742430D01*
X123287480Y-93674586D01*
X123345439Y-93663057D01*
X123461356Y-93640000D01*
X123638644Y-93640000D01*
X123754561Y-93663057D01*
G37*
G36*
X103275012Y-93723057D02*
G01*
X103384205Y-93768286D01*
X103384207Y-93768287D01*
X103482478Y-93833950D01*
X103566050Y-93917522D01*
X103631713Y-94015793D01*
X103631714Y-94015795D01*
X103676943Y-94124988D01*
X103700000Y-94240904D01*
X103700000Y-94359096D01*
X103676943Y-94475012D01*
X103676942Y-94475014D01*
X103631713Y-94584207D01*
X103566050Y-94682478D01*
X103482478Y-94766050D01*
X103384207Y-94831713D01*
X103384206Y-94831714D01*
X103384205Y-94831714D01*
X103275012Y-94876943D01*
X103159096Y-94900000D01*
X103040904Y-94900000D01*
X102924988Y-94876943D01*
X102815795Y-94831714D01*
X102815794Y-94831714D01*
X102815793Y-94831713D01*
X102717522Y-94766050D01*
X102633950Y-94682478D01*
X102568287Y-94584207D01*
X102523058Y-94475014D01*
X102523057Y-94475012D01*
X102500000Y-94359096D01*
X102500000Y-94240904D01*
X102523057Y-94124988D01*
X102568286Y-94015795D01*
X102568287Y-94015793D01*
X102633950Y-93917522D01*
X102717522Y-93833950D01*
X102815793Y-93768287D01*
X102815795Y-93768286D01*
X102924988Y-93723057D01*
X103040904Y-93700000D01*
X103159096Y-93700000D01*
X103275012Y-93723057D01*
G37*
G36*
X118648879Y-93816940D02*
G01*
X118689870Y-93829374D01*
X118727645Y-93849565D01*
X118760758Y-93876742D01*
X118787935Y-93909855D01*
X118808126Y-93947630D01*
X118820560Y-93988621D01*
X118825000Y-94033704D01*
X118825000Y-94566296D01*
X118820560Y-94611379D01*
X118808126Y-94652370D01*
X118787935Y-94690145D01*
X118760758Y-94723258D01*
X118727645Y-94750435D01*
X118689870Y-94770626D01*
X118648879Y-94783060D01*
X118603796Y-94787500D01*
X117996204Y-94787500D01*
X117951121Y-94783060D01*
X117910130Y-94770626D01*
X117872355Y-94750435D01*
X117839242Y-94723258D01*
X117812065Y-94690145D01*
X117791874Y-94652370D01*
X117779440Y-94611379D01*
X117775000Y-94566296D01*
X117775000Y-94033704D01*
X117779440Y-93988621D01*
X117791874Y-93947630D01*
X117812065Y-93909855D01*
X117839242Y-93876742D01*
X117872355Y-93849565D01*
X117910130Y-93829374D01*
X117951121Y-93816940D01*
X117996204Y-93812500D01*
X118603796Y-93812500D01*
X118648879Y-93816940D01*
G37*
G36*
X107150000Y-93600000D02*
G01*
X104550000Y-93600000D01*
X104550000Y-92400000D01*
X107150000Y-92400000D01*
X107150000Y-93600000D01*
G37*
G36*
X118648879Y-92241940D02*
G01*
X118689870Y-92254374D01*
X118727645Y-92274565D01*
X118760758Y-92301742D01*
X118787935Y-92334855D01*
X118808126Y-92372630D01*
X118820560Y-92413621D01*
X118825000Y-92458704D01*
X118825000Y-92991296D01*
X118820560Y-93036379D01*
X118808126Y-93077370D01*
X118787935Y-93115145D01*
X118760758Y-93148258D01*
X118727645Y-93175435D01*
X118689870Y-93195626D01*
X118648879Y-93208060D01*
X118603796Y-93212500D01*
X117996204Y-93212500D01*
X117951121Y-93208060D01*
X117910130Y-93195626D01*
X117872355Y-93175435D01*
X117839242Y-93148258D01*
X117812065Y-93115145D01*
X117791874Y-93077370D01*
X117779440Y-93036379D01*
X117775000Y-92991296D01*
X117775000Y-92458704D01*
X117779440Y-92413621D01*
X117791874Y-92372630D01*
X117812065Y-92334855D01*
X117839242Y-92301742D01*
X117872355Y-92274565D01*
X117910130Y-92254374D01*
X117951121Y-92241940D01*
X117996204Y-92237500D01*
X118603796Y-92237500D01*
X118648879Y-92241940D01*
G37*
G36*
X123754561Y-91123057D02*
G01*
X123812520Y-91134586D01*
X123976310Y-91202430D01*
X124123717Y-91300924D01*
X124249076Y-91426283D01*
X124347570Y-91573690D01*
X124415414Y-91737480D01*
X124450000Y-91911358D01*
X124450000Y-92088642D01*
X124415414Y-92262520D01*
X124347570Y-92426310D01*
X124249076Y-92573717D01*
X124123717Y-92699076D01*
X123976310Y-92797570D01*
X123812520Y-92865414D01*
X123754561Y-92876943D01*
X123638644Y-92900000D01*
X123461356Y-92900000D01*
X123345439Y-92876943D01*
X123287480Y-92865414D01*
X123123690Y-92797570D01*
X122976283Y-92699076D01*
X122850924Y-92573717D01*
X122752430Y-92426310D01*
X122684586Y-92262520D01*
X122650000Y-92088642D01*
X122650000Y-91911358D01*
X122684586Y-91737480D01*
X122752430Y-91573690D01*
X122850924Y-91426283D01*
X122976283Y-91300924D01*
X123123690Y-91202430D01*
X123287480Y-91134586D01*
X123345439Y-91123057D01*
X123461356Y-91100000D01*
X123638644Y-91100000D01*
X123754561Y-91123057D01*
G37*
G36*
X118648879Y-90716940D02*
G01*
X118689870Y-90729374D01*
X118727645Y-90749565D01*
X118760758Y-90776742D01*
X118787935Y-90809855D01*
X118808126Y-90847630D01*
X118820560Y-90888621D01*
X118825000Y-90933704D01*
X118825000Y-91466296D01*
X118820560Y-91511379D01*
X118808126Y-91552370D01*
X118787935Y-91590145D01*
X118760758Y-91623258D01*
X118727645Y-91650435D01*
X118689870Y-91670626D01*
X118648879Y-91683060D01*
X118603796Y-91687500D01*
X117996204Y-91687500D01*
X117951121Y-91683060D01*
X117910130Y-91670626D01*
X117872355Y-91650435D01*
X117839242Y-91623258D01*
X117812065Y-91590145D01*
X117791874Y-91552370D01*
X117779440Y-91511379D01*
X117775000Y-91466296D01*
X117775000Y-90933704D01*
X117779440Y-90888621D01*
X117791874Y-90847630D01*
X117812065Y-90809855D01*
X117839242Y-90776742D01*
X117872355Y-90749565D01*
X117910130Y-90729374D01*
X117951121Y-90716940D01*
X117996204Y-90712500D01*
X118603796Y-90712500D01*
X118648879Y-90716940D01*
G37*
G36*
X107150000Y-91600000D02*
G01*
X104550000Y-91600000D01*
X104550000Y-90400000D01*
X107150000Y-90400000D01*
X107150000Y-91600000D01*
G37*
G36*
X111694216Y-88503119D02*
G01*
X111722309Y-88511641D01*
X111748204Y-88525483D01*
X111770896Y-88544104D01*
X111789517Y-88566796D01*
X111803359Y-88592691D01*
X111811881Y-88620784D01*
X111815000Y-88652454D01*
X111815000Y-90397546D01*
X111811881Y-90429216D01*
X111803359Y-90457309D01*
X111789517Y-90483204D01*
X111770896Y-90505896D01*
X111748204Y-90524517D01*
X111722309Y-90538359D01*
X111694216Y-90546881D01*
X111662546Y-90550000D01*
X111267454Y-90550000D01*
X111235784Y-90546881D01*
X111207691Y-90538359D01*
X111181796Y-90524517D01*
X111159104Y-90505896D01*
X111140483Y-90483204D01*
X111126641Y-90457309D01*
X111118119Y-90429216D01*
X111115000Y-90397546D01*
X111115000Y-88652454D01*
X111118119Y-88620784D01*
X111126641Y-88592691D01*
X111140483Y-88566796D01*
X111159104Y-88544104D01*
X111181796Y-88525483D01*
X111207691Y-88511641D01*
X111235784Y-88503119D01*
X111267454Y-88500000D01*
X111662546Y-88500000D01*
X111694216Y-88503119D01*
G37*
G36*
X110424216Y-88503119D02*
G01*
X110452309Y-88511641D01*
X110478204Y-88525483D01*
X110500896Y-88544104D01*
X110519517Y-88566796D01*
X110533359Y-88592691D01*
X110541881Y-88620784D01*
X110545000Y-88652454D01*
X110545000Y-90397546D01*
X110541881Y-90429216D01*
X110533359Y-90457309D01*
X110519517Y-90483204D01*
X110500896Y-90505896D01*
X110478204Y-90524517D01*
X110452309Y-90538359D01*
X110424216Y-90546881D01*
X110392546Y-90550000D01*
X109997454Y-90550000D01*
X109965784Y-90546881D01*
X109937691Y-90538359D01*
X109911796Y-90524517D01*
X109889104Y-90505896D01*
X109870483Y-90483204D01*
X109856641Y-90457309D01*
X109848119Y-90429216D01*
X109845000Y-90397546D01*
X109845000Y-88652454D01*
X109848119Y-88620784D01*
X109856641Y-88592691D01*
X109870483Y-88566796D01*
X109889104Y-88544104D01*
X109911796Y-88525483D01*
X109937691Y-88511641D01*
X109965784Y-88503119D01*
X109997454Y-88500000D01*
X110392546Y-88500000D01*
X110424216Y-88503119D01*
G37*
G36*
X113836379Y-87729440D02*
G01*
X113877370Y-87741874D01*
X113915145Y-87762065D01*
X113948258Y-87789242D01*
X113975435Y-87822355D01*
X113995626Y-87860130D01*
X114008060Y-87901121D01*
X114012500Y-87946204D01*
X114012500Y-88450001D01*
X114013461Y-88459755D01*
X114016306Y-88469135D01*
X114020926Y-88477779D01*
X114027144Y-88485356D01*
X114034721Y-88491574D01*
X114043365Y-88496194D01*
X114052745Y-88499039D01*
X114062499Y-88500000D01*
X114202546Y-88500000D01*
X114234216Y-88503119D01*
X114262309Y-88511641D01*
X114288204Y-88525483D01*
X114310896Y-88544104D01*
X114329517Y-88566796D01*
X114343359Y-88592691D01*
X114351881Y-88620784D01*
X114355000Y-88652454D01*
X114355000Y-90397546D01*
X114351881Y-90429216D01*
X114343359Y-90457309D01*
X114329517Y-90483204D01*
X114310896Y-90505896D01*
X114288204Y-90524517D01*
X114262309Y-90538359D01*
X114234216Y-90546881D01*
X114202546Y-90550000D01*
X113807454Y-90550000D01*
X113775784Y-90546881D01*
X113747691Y-90538359D01*
X113721796Y-90524517D01*
X113699104Y-90505896D01*
X113680483Y-90483204D01*
X113666641Y-90457309D01*
X113658119Y-90429216D01*
X113655000Y-90397546D01*
X113655000Y-88824999D01*
X113654039Y-88815245D01*
X113651194Y-88805865D01*
X113646574Y-88797221D01*
X113640356Y-88789644D01*
X113632779Y-88783426D01*
X113624135Y-88778806D01*
X113614755Y-88775961D01*
X113605001Y-88775000D01*
X113258704Y-88775000D01*
X113213621Y-88770560D01*
X113172633Y-88758126D01*
X113158569Y-88750609D01*
X113149514Y-88746858D01*
X113139900Y-88744946D01*
X113130099Y-88744946D01*
X113120486Y-88746858D01*
X113111430Y-88750608D01*
X113103280Y-88756054D01*
X113096350Y-88762984D01*
X113090904Y-88771134D01*
X113087153Y-88780189D01*
X113085241Y-88789803D01*
X113085000Y-88794704D01*
X113085000Y-90397546D01*
X113081881Y-90429216D01*
X113073359Y-90457309D01*
X113059517Y-90483204D01*
X113040896Y-90505896D01*
X113018204Y-90524517D01*
X112992309Y-90538359D01*
X112964216Y-90546881D01*
X112932546Y-90550000D01*
X112537454Y-90550000D01*
X112505784Y-90546881D01*
X112477691Y-90538359D01*
X112451796Y-90524517D01*
X112429104Y-90505896D01*
X112410483Y-90483204D01*
X112396641Y-90457309D01*
X112388119Y-90429216D01*
X112385000Y-90397546D01*
X112385000Y-88652454D01*
X112388119Y-88620784D01*
X112396641Y-88592691D01*
X112410483Y-88566796D01*
X112429104Y-88544104D01*
X112451796Y-88525483D01*
X112477691Y-88511641D01*
X112505784Y-88503119D01*
X112537454Y-88500000D01*
X112932546Y-88500000D01*
X112964216Y-88503119D01*
X112972987Y-88505780D01*
X112982600Y-88507692D01*
X112992402Y-88507692D01*
X113002015Y-88505780D01*
X113011070Y-88502029D01*
X113019220Y-88496584D01*
X113026151Y-88489653D01*
X113031596Y-88481503D01*
X113035347Y-88472448D01*
X113037500Y-88457934D01*
X113037500Y-87946204D01*
X113041940Y-87901121D01*
X113054374Y-87860130D01*
X113074565Y-87822355D01*
X113101742Y-87789242D01*
X113134855Y-87762065D01*
X113172630Y-87741874D01*
X113213621Y-87729440D01*
X113258704Y-87725000D01*
X113791296Y-87725000D01*
X113836379Y-87729440D01*
G37*
G36*
X123754561Y-88583057D02*
G01*
X123812520Y-88594586D01*
X123976310Y-88662430D01*
X124123717Y-88760924D01*
X124249076Y-88886283D01*
X124347570Y-89033690D01*
X124415414Y-89197480D01*
X124450000Y-89371358D01*
X124450000Y-89548642D01*
X124415414Y-89722520D01*
X124347570Y-89886310D01*
X124249076Y-90033717D01*
X124123717Y-90159076D01*
X123976310Y-90257570D01*
X123812520Y-90325414D01*
X123754561Y-90336943D01*
X123638644Y-90360000D01*
X123461356Y-90360000D01*
X123345439Y-90336943D01*
X123287480Y-90325414D01*
X123123690Y-90257570D01*
X122976283Y-90159076D01*
X122850924Y-90033717D01*
X122752430Y-89886310D01*
X122684586Y-89722520D01*
X122650000Y-89548642D01*
X122650000Y-89371358D01*
X122684586Y-89197480D01*
X122752430Y-89033690D01*
X122850924Y-88886283D01*
X122976283Y-88760924D01*
X123123690Y-88662430D01*
X123287480Y-88594586D01*
X123345439Y-88583057D01*
X123461356Y-88560000D01*
X123638644Y-88560000D01*
X123754561Y-88583057D01*
G37*
G36*
X103275012Y-89123057D02*
G01*
X103350618Y-89154374D01*
X103384207Y-89168287D01*
X103482478Y-89233950D01*
X103566050Y-89317522D01*
X103566051Y-89317524D01*
X103631714Y-89415795D01*
X103676943Y-89524988D01*
X103700000Y-89640904D01*
X103700000Y-89759096D01*
X103676943Y-89875012D01*
X103634545Y-89977370D01*
X103631713Y-89984207D01*
X103566050Y-90082478D01*
X103482478Y-90166050D01*
X103384207Y-90231713D01*
X103384206Y-90231714D01*
X103384205Y-90231714D01*
X103275012Y-90276943D01*
X103159096Y-90300000D01*
X103040904Y-90300000D01*
X102924988Y-90276943D01*
X102815795Y-90231714D01*
X102815794Y-90231714D01*
X102815793Y-90231713D01*
X102717522Y-90166050D01*
X102633950Y-90082478D01*
X102568287Y-89984207D01*
X102565455Y-89977370D01*
X102523057Y-89875012D01*
X102500000Y-89759096D01*
X102500000Y-89640904D01*
X102523057Y-89524988D01*
X102568286Y-89415795D01*
X102633949Y-89317524D01*
X102633950Y-89317522D01*
X102717522Y-89233950D01*
X102815793Y-89168287D01*
X102849382Y-89154374D01*
X102924988Y-89123057D01*
X103040904Y-89100000D01*
X103159096Y-89100000D01*
X103275012Y-89123057D01*
G37*
G36*
X118648879Y-89141940D02*
G01*
X118689870Y-89154374D01*
X118727645Y-89174565D01*
X118760758Y-89201742D01*
X118787935Y-89234855D01*
X118808126Y-89272630D01*
X118820560Y-89313621D01*
X118825000Y-89358704D01*
X118825000Y-89891296D01*
X118820560Y-89936379D01*
X118808126Y-89977370D01*
X118787935Y-90015145D01*
X118760758Y-90048258D01*
X118727645Y-90075435D01*
X118689870Y-90095626D01*
X118648879Y-90108060D01*
X118603796Y-90112500D01*
X117996204Y-90112500D01*
X117951121Y-90108060D01*
X117910130Y-90095626D01*
X117872355Y-90075435D01*
X117839242Y-90048258D01*
X117812065Y-90015145D01*
X117791874Y-89977370D01*
X117779440Y-89936379D01*
X117775000Y-89891296D01*
X117775000Y-89358704D01*
X117779440Y-89313621D01*
X117791874Y-89272630D01*
X117812065Y-89234855D01*
X117839242Y-89201742D01*
X117872355Y-89174565D01*
X117910130Y-89154374D01*
X117951121Y-89141940D01*
X117996204Y-89137500D01*
X118603796Y-89137500D01*
X118648879Y-89141940D01*
G37*
G36*
X107150000Y-89100000D02*
G01*
X104550000Y-89100000D01*
X104550000Y-87900000D01*
X107150000Y-87900000D01*
X107150000Y-89100000D01*
G37*
G36*
X115411379Y-87729440D02*
G01*
X115452370Y-87741874D01*
X115490145Y-87762065D01*
X115523258Y-87789242D01*
X115550435Y-87822355D01*
X115570626Y-87860130D01*
X115583060Y-87901121D01*
X115587500Y-87946204D01*
X115587500Y-88553796D01*
X115583060Y-88598879D01*
X115570626Y-88639870D01*
X115550435Y-88677645D01*
X115523258Y-88710758D01*
X115490145Y-88737935D01*
X115452370Y-88758126D01*
X115411379Y-88770560D01*
X115366296Y-88775000D01*
X114833704Y-88775000D01*
X114788621Y-88770560D01*
X114747630Y-88758126D01*
X114709855Y-88737935D01*
X114676742Y-88710758D01*
X114649565Y-88677645D01*
X114629374Y-88639870D01*
X114616940Y-88598879D01*
X114612500Y-88553796D01*
X114612500Y-87946204D01*
X114616940Y-87901121D01*
X114629374Y-87860130D01*
X114649565Y-87822355D01*
X114676742Y-87789242D01*
X114709855Y-87762065D01*
X114747630Y-87741874D01*
X114788621Y-87729440D01*
X114833704Y-87725000D01*
X115366296Y-87725000D01*
X115411379Y-87729440D01*
G37*
G36*
X118648879Y-87666940D02*
G01*
X118689870Y-87679374D01*
X118727645Y-87699565D01*
X118760758Y-87726742D01*
X118787935Y-87759855D01*
X118808126Y-87797630D01*
X118820560Y-87838621D01*
X118825000Y-87883704D01*
X118825000Y-88416296D01*
X118820560Y-88461379D01*
X118808126Y-88502370D01*
X118787935Y-88540145D01*
X118760758Y-88573258D01*
X118727645Y-88600435D01*
X118689870Y-88620626D01*
X118648879Y-88633060D01*
X118603796Y-88637500D01*
X117996204Y-88637500D01*
X117951121Y-88633060D01*
X117910130Y-88620626D01*
X117872355Y-88600435D01*
X117839242Y-88573258D01*
X117812065Y-88540145D01*
X117791874Y-88502370D01*
X117779440Y-88461379D01*
X117775000Y-88416296D01*
X117775000Y-87883704D01*
X117779440Y-87838621D01*
X117791874Y-87797630D01*
X117812065Y-87759855D01*
X117839242Y-87726742D01*
X117872355Y-87699565D01*
X117910130Y-87679374D01*
X117951121Y-87666940D01*
X117996204Y-87662500D01*
X118603796Y-87662500D01*
X118648879Y-87666940D01*
G37*
G36*
X124450000Y-87820000D02*
G01*
X122650000Y-87820000D01*
X122650000Y-86020000D01*
X124450000Y-86020000D01*
X124450000Y-87820000D01*
G37*
G36*
X104096034Y-85314469D02*
G01*
X104284536Y-85371651D01*
X104458256Y-85464506D01*
X104610528Y-85589472D01*
X104735494Y-85741744D01*
X104828349Y-85915464D01*
X104885531Y-86103966D01*
X104904838Y-86300000D01*
X104885531Y-86496034D01*
X104828349Y-86684536D01*
X104735494Y-86858256D01*
X104610528Y-87010528D01*
X104458256Y-87135494D01*
X104284536Y-87228349D01*
X104096034Y-87285531D01*
X103949124Y-87300000D01*
X102250876Y-87300000D01*
X102103966Y-87285531D01*
X101915464Y-87228349D01*
X101741744Y-87135494D01*
X101589472Y-87010528D01*
X101464506Y-86858256D01*
X101371651Y-86684536D01*
X101314469Y-86496034D01*
X101295162Y-86300000D01*
X101314469Y-86103966D01*
X101371651Y-85915464D01*
X101464506Y-85741744D01*
X101589472Y-85589472D01*
X101741744Y-85464506D01*
X101915464Y-85371651D01*
X102103966Y-85314469D01*
X102250876Y-85300000D01*
X103949124Y-85300000D01*
X104096034Y-85314469D01*
G37*
G36*
X118648879Y-86091940D02*
G01*
X118689870Y-86104374D01*
X118727645Y-86124565D01*
X118760758Y-86151742D01*
X118787935Y-86184855D01*
X118808126Y-86222630D01*
X118820560Y-86263621D01*
X118825000Y-86308704D01*
X118825000Y-86841296D01*
X118820560Y-86886379D01*
X118808126Y-86927370D01*
X118787935Y-86965145D01*
X118760758Y-86998258D01*
X118727645Y-87025435D01*
X118689870Y-87045626D01*
X118648879Y-87058060D01*
X118603796Y-87062500D01*
X117996204Y-87062500D01*
X117951121Y-87058060D01*
X117910130Y-87045626D01*
X117872355Y-87025435D01*
X117839242Y-86998258D01*
X117812065Y-86965145D01*
X117791874Y-86927370D01*
X117779440Y-86886379D01*
X117775000Y-86841296D01*
X117775000Y-86308704D01*
X117779440Y-86263621D01*
X117791874Y-86222630D01*
X117812065Y-86184855D01*
X117839242Y-86151742D01*
X117872355Y-86124565D01*
X117910130Y-86104374D01*
X117951121Y-86091940D01*
X117996204Y-86087500D01*
X118603796Y-86087500D01*
X118648879Y-86091940D01*
G37*
M02*
